<?xml version="1.0" encoding="utf-8"?>
<!-- Generator: Adobe Illustrator 23.0.0, SVG Export Plug-In . SVG Version: 6.00 Build 0)  -->
<svg version="1.1" id="Ebene_1" xmlns="http://www.w3.org/2000/svg" xmlns:xlink="http://www.w3.org/1999/xlink" x="0px" y="0px"
	 viewBox="0 0 432.2 62.5" style="enable-background:new 0 0 432.2 62.5;" xml:space="preserve">
<style type="text/css">
	.st0{fill:white;}
</style>
<path class="st0" d="M0,0h27.4c0,0,12.6,37,14,40.7L55.5,1.1L56.7,0h25.6l0.3,1.8l-0.2,59.7H65.3l0.2-46.9L48.9,61.5H32.7L16.9,14.6
	L17,61.5H0V0z M101,61.5V0h47.1v11.8h-29.4v12.5h26.8v11.8h-26.8v13.6h29.4v11.8H101z M233.2,61.5V0h17.5v25.2L270.5,0h20.9
	l-23.8,28.4l25.7,33.1H271l-20.3-27.8v27.8L233.2,61.5L233.2,61.5z M303,0h17.4l0.1,36.1c0.2,3.8,0.6,8,3.3,11.1s7.7,3.6,11.6,2.6
	c3.2-0.8,5.3-3.6,6.3-6.4l0.6-2c0.8-4.6,0.5-41.4,0.5-41.4h17.4v38.5c0.3,5.7-1.6,11.3-5.2,15.7c-5.5,6.2-14.6,8.4-22.9,8.3
	c-6.6,0.2-13.4-0.9-19-4.2c-5-2.9-8.5-7.9-9.6-13.6C303.2,42.2,303,0,303,0L303,0z M211.6,41.8c-1.1-2.7-1.9-5.5-3.7-7.9
	c-1.1-1.3-2.5-2.2-4.1-2.8c4.2-1,8.3-3.3,10.3-7c1.9-3.7,2.5-8,1.5-12.1c-1-4.6-4.9-8.2-9.4-9.9c-3.9-1.7-8.2-1.8-12.3-2h-30.2v61.3
	l17.7,0.1V37.4c0,0,5.6-0.4,8.1,0.8c2.8,1.3,4.3,4.1,5.4,6.8c1.6,3.7,2.7,7.5,4,11.3l1.7,5.3h18.3C218.8,60.6,213.8,47.2,211.6,41.8
	z M198.3,20.5c-0.5,1.5-1.5,2.7-2.8,3.5c-3,1.6-6.6,1.5-9.9,1.5l-4.2-0.1V11.8c3.7-0.1,7.4,0.1,11.1,0.6c2,0.5,4.1,1.3,5.2,3.1
	C198.5,17,198.8,18.8,198.3,20.5L198.3,20.5z M424.9,41.8c-1.1-2.7-1.9-5.5-3.7-7.9c-1.1-1.3-2.5-2.2-4.1-2.8c4.2-1,8.3-3.3,10.3-7
	c1.9-3.7,2.5-8,1.5-12.1c-1-4.6-4.9-8.2-9.4-9.9c-3.9-1.7-8.2-1.8-12.3-2H377v61.3l17.7,0.1V37.4c0,0,5.6-0.4,8.1,0.8
	c2.8,1.3,4.3,4.1,5.4,6.8c1.6,3.7,2.7,7.5,4,11.3l1.7,5.3h18.3C432.2,60.6,427.1,47.2,424.9,41.8z M411.3,21.2
	c-0.7,2.1-2.9,3.3-5,3.8c-3.8,0.9-7.7,0.4-11.6,0.6V11.9c2.5,0.1,5.1-0.2,7.6,0.2c2.8,0,5.6,0.8,7.9,2.4
	C412,16.2,412.1,19,411.3,21.2z"/>
</svg>
