<svg xmlns="http://www.w3.org/2000/svg" fill="none" viewBox="0 0 300 65"><g fill="white"><path fill-rule="evenodd" d="M36.6417 10.6344C36.9403 10.4852 37.0522 10.224 37.2014 10.0001C38.7686 7.91052 40.5597 6.00754 42.6119 4.40306C45.0746 2.50008 47.7985 1.11949 50.8208 0.447846C53.0596 8.44992e-05 55.2611 -0.11186 57.5 0.186647C61.0447 0.634408 64.1791 1.90306 66.9776 4.06724C70.9701 7.12694 73.3955 11.1568 74.2164 16.1195C74.5149 17.7986 74.5149 19.4777 74.3656 21.1568C73.9179 26.2314 72.2014 30.8956 69.6641 35.2986C67.6492 38.8434 65.1865 42.0523 62.4626 45.0747C58.7313 49.2911 54.5149 53.0225 50.0746 56.4553C46.2313 59.3657 42.2761 62.0896 38.0597 64.4404C37.985 64.4653 37.9104 64.5026 37.8358 64.5523C37.1268 64.9255 37.3507 64.9628 36.6791 64.5523C33.3955 62.724 30.2238 60.709 27.1641 58.5075C22.3507 55.0001 17.7985 51.1941 13.694 46.8657C13.3457 46.5175 13.0099 46.1568 12.6865 45.7837C12.8731 45.5971 13.0223 45.709 13.1716 45.7463C15.3358 46.2314 17.5746 46.5299 19.8134 46.4926C21.791 46.4553 23.7686 46.1941 25.7462 45.7837C25.8706 45.7339 25.995 45.6966 26.1194 45.6717C26.3059 45.6344 26.4552 45.6717 26.6044 45.7837C26.7537 45.908 26.9029 46.0324 27.0522 46.1568C30 48.6568 33.0597 50.9329 36.2686 53.0598C36.4925 53.209 36.7537 53.3583 36.9776 53.5076C37.1641 53.6941 37.3507 53.6568 37.5746 53.5076C37.6119 53.4329 37.6865 53.3956 37.7611 53.3583C43.9552 49.2911 49.7014 44.6643 54.7388 39.2165C57.1268 36.6792 59.2537 33.918 61.0447 30.9329C62.3134 28.7687 63.3582 26.5299 64.0671 24.1046C64.49 22.5871 64.7263 21.0449 64.7761 19.4777C65 14.2538 61.0447 10.4852 56.7537 9.81351C54.291 9.40306 52.0149 9.85083 49.888 11.0822C48.4701 11.9031 47.2761 12.9478 46.194 14.1792C44.9253 15.5971 43.8805 17.1643 42.9104 18.8434C41.9029 20.5598 40.9328 22.2762 39.9253 23.9926C38.3955 26.5672 36.6417 28.9926 34.5522 31.1568C33.3582 32.3881 32.0149 33.5449 30.5597 34.515C26.9776 36.9031 23.0223 38.0971 18.6567 37.9105C13.1716 37.6493 8.54473 35.4852 4.8507 31.4553C2.3507 28.6941 0.783535 25.4478 0.261147 21.7911C-0.597062 15.7837 1.11936 10.5225 5.26115 6.08217C8.24622 2.87321 12.0149 0.93292 16.3432 0.261279C21.5671 -0.522304 26.4179 0.559784 30.7462 3.58217C33.097 5.26128 34.9253 7.38814 36.2313 9.92546C36.3805 10.1742 36.5174 10.4105 36.6417 10.6344ZM18.9552 1.00755C17.8731 0.970234 16.3805 1.19411 14.9253 1.56725C12.7985 2.08964 10.8208 2.98515 8.99249 4.25381C7.57458 5.22396 6.34324 6.38068 5.26115 7.72397C4.40294 8.80606 3.65667 9.96277 3.05965 11.2314C2.61189 12.1269 2.2512 13.0473 1.97756 13.9926C1.75368 14.8135 1.60443 15.5971 1.49249 16.418C1.34324 17.4255 1.2313 18.3956 1.2313 19.4031C1.26861 19.8135 1.34324 20.224 1.38055 20.6344C1.38055 21.2687 1.49249 21.9031 1.60443 22.5001C2.01488 24.2911 2.57458 26.0075 3.4701 27.612C4.81339 30.0001 6.56712 31.9777 8.76861 33.5822C10.1492 34.5896 11.6791 35.3732 13.3208 35.9702C15.1492 36.6419 17.0895 36.9404 19.0671 37.015C20.2611 37.0523 21.4179 36.9031 22.6119 36.7165C24.3656 36.418 26.0447 35.821 27.6119 35.0001C29.5522 33.9926 31.2686 32.6867 32.7611 31.0449C34.2164 29.4031 35.3358 27.612 36.1567 25.5971C36.9776 23.4702 37.388 21.3061 37.388 19.0299C37.4253 18.3583 37.3507 17.724 37.2761 17.0523C37.0895 15.2986 36.6417 13.5822 35.9328 11.9404C34.7388 9.10456 32.9104 6.7165 30.4477 4.81351C27.1641 2.31351 23.5074 1.00755 18.9552 1.00755Z" clip-rule="evenodd"/><path fill-rule="evenodd" d="M18.9551 1.00758C23.5073 1.00758 27.164 2.31354 30.4476 4.81354C32.9103 6.71653 34.7387 9.10459 35.9327 11.9404C36.6417 13.5822 37.0894 15.2986 37.276 17.0524C37.3506 17.724 37.4252 18.3583 37.3879 19.03C37.3879 21.3061 36.9775 23.4703 36.1566 25.5971C35.3357 27.612 34.2163 29.4031 32.7611 31.0449C31.2685 32.6867 29.5521 33.9926 27.6118 35.0001C26.0446 35.821 24.3655 36.418 22.6118 36.7165C21.4178 36.9031 20.2611 37.0524 19.067 37.015C17.0894 36.9404 15.1491 36.6419 13.3208 35.9703C11.679 35.3733 10.1491 34.5897 8.76852 33.5822C6.56702 31.9777 4.81329 30.0001 3.47001 27.6121C2.57448 26.0076 2.01478 24.2912 1.60434 22.5001C1.4924 21.9031 1.38046 21.2688 1.38046 20.6344C1.34314 20.224 1.26851 19.8135 1.2312 19.4031C1.2312 18.3956 1.34314 17.4255 1.4924 16.418C1.60434 15.5971 1.75359 14.8135 1.97747 13.9927C2.2511 13.0474 2.6118 12.127 3.05956 11.2315C3.65657 9.9628 4.40284 8.80609 5.26105 7.724C6.34314 6.38071 7.57448 5.22399 8.9924 4.25384C10.8208 2.98518 12.7984 2.08967 14.9252 1.56728C16.3805 1.19415 17.873 0.970266 18.9551 1.00758ZM19.2909 34.8135C27.7984 34.8135 35.1118 28.0971 35.2237 19.1046C35.2984 10.0747 27.873 3.20907 19.4028 3.17175C11.2312 3.09713 3.50732 9.66429 3.47001 18.9553C3.43269 27.5374 10.373 34.7389 19.2909 34.8135Z" clip-rule="evenodd"/><path fill-rule="evenodd" d="M19.291 34.8136C10.3731 34.7389 3.43281 27.5374 3.47012 18.9553C3.50743 9.6643 11.2313 3.09715 19.403 3.17177C27.8731 3.20909 35.2985 10.0748 35.2239 19.1046C35.1119 28.0972 27.7985 34.8136 19.291 34.8136ZM29.0298 18.9927C29.1045 13.7688 25.0373 9.40312 19.7015 9.17924C14.1791 8.99267 9.85072 13.2464 9.66415 18.4703C9.44027 23.4703 13.2836 28.3583 19.1791 28.5076C24.5149 28.6195 28.8806 24.5151 29.0298 18.9927ZM10.0746 31.0076C10.7462 30.3359 12.8731 27.5374 13.1716 26.9404C12.3507 26.2688 11.5671 25.5225 10.9701 24.627C10.7089 24.2912 10.7089 24.2912 10.2985 24.5151C9.10445 25.2365 7.89798 25.9578 6.67908 26.6792C6.56714 26.7539 6.41788 26.7912 6.41788 27.0151C7.38803 28.5449 8.58206 29.8882 10.0746 31.0076ZM19.9627 31.7539C19.9875 31.7539 20 31.7539 20 31.7539C19.9627 30.9703 19.9253 30.1494 19.888 29.3658C19.888 29.0673 19.8134 28.9927 19.4776 28.9927C18.5074 28.9927 17.5373 28.8807 16.6044 28.6195C16.3433 28.5449 16.2686 28.6195 16.1567 28.8434C15.6841 30.2862 15.2239 31.729 14.7761 33.1718C14.7015 33.3583 14.7761 33.4703 14.9627 33.5449C15.3358 33.6444 15.7214 33.7315 16.1194 33.8061C17.2885 34.0797 18.495 34.1917 19.7388 34.1419C20.0373 34.1419 20.1119 34.0673 20.1119 33.7315C20.0622 33.0847 20.0124 32.4255 19.9627 31.7539ZM9.29102 17.0151C8.32087 16.8285 7.46266 16.6419 6.56714 16.4927C5.94525 16.3683 5.31092 16.2439 4.66415 16.1195C4.47758 16.1195 4.36564 16.1942 4.32833 16.3807C4.17908 17.0524 4.17908 17.7613 4.10445 18.433C4.02982 19.3658 4.14176 20.2613 4.2537 21.1569C4.32833 21.6046 4.40296 21.6419 4.77609 21.5673C5.77112 21.418 6.7537 21.2563 7.72385 21.0822C8.17161 20.9827 8.60694 20.8956 9.02982 20.821C9.21639 20.7837 9.32833 20.7091 9.29102 20.4852C9.10445 19.3658 9.14176 18.2464 9.29102 17.0151ZM28.2836 23.7315C28.8806 24.03 29.403 24.3285 29.9253 24.5897C30.7711 25.0375 31.6045 25.4728 32.4253 25.8957C32.7612 26.0822 32.7985 26.0822 32.985 25.7091C33.6069 24.4653 34.0423 23.1593 34.291 21.7912C34.3283 21.6046 34.4403 21.3807 34.291 21.1569C33.6691 21.0573 33.0472 20.9578 32.4253 20.8583C31.5547 20.734 30.6841 20.6096 29.8134 20.4852C29.4776 20.4479 29.3656 20.4852 29.3283 20.7464C29.1418 21.7912 28.7686 22.724 28.2836 23.7315ZM26.1567 26.418C26.0447 26.4927 25.9328 26.5673 25.8209 26.6792C25.2239 27.1643 24.6268 27.5374 23.9552 27.8733C23.8308 27.9479 23.7064 28.0101 23.5821 28.0598C23.4701 28.1345 23.4328 28.2464 23.4701 28.3583C23.5074 28.4703 23.5821 28.6195 23.6194 28.7315C24.1418 29.9753 24.6766 31.219 25.2239 32.4628C25.2612 32.6121 25.2985 32.7986 25.485 32.836C26.9403 32.2763 28.694 31.1195 29.6268 30.0747C28.4701 28.8807 27.3507 27.6121 26.1567 26.418ZM24.5522 4.73894C24.5149 4.77625 24.4776 4.81356 24.4403 4.85088C23.9428 6.26879 23.4452 7.67426 22.9477 9.06729C22.8731 9.29117 23.0224 9.3658 23.1716 9.44042C23.9552 9.77625 24.7015 10.1867 25.4104 10.7091C25.5597 10.821 25.7089 10.8957 25.8955 11.0449C25.9701 10.933 26.0821 10.8957 26.1567 10.7837C27.0273 9.71406 27.9104 8.63198 28.8059 7.53745C28.8806 7.42551 28.9552 7.35087 28.9179 7.23893C27.7985 6.23147 26.1194 5.26133 24.5522 4.73894ZM32.3134 11.2315C31.592 11.6792 30.8831 12.1146 30.1865 12.5374C29.6144 12.8857 29.0547 13.2464 28.5074 13.6195C28.2089 13.7688 28.2089 13.8434 28.3582 14.1419C28.7562 14.9379 29.0671 15.7588 29.291 16.6046C29.3283 16.9031 29.403 16.9404 29.6642 16.9031C30.5348 16.729 31.4054 16.5549 32.2761 16.3807C32.8482 16.2812 33.4204 16.1693 33.9925 16.0449C34.2164 16.0076 34.2537 15.8957 34.2164 15.6718C33.893 14.3285 33.4079 13.0474 32.7612 11.8285C32.6492 11.6419 32.5746 11.418 32.3134 11.2315ZM19.3656 6.3061C19.3656 6.13197 19.3656 5.95784 19.3656 5.78371C19.3656 5.23645 19.3656 4.68919 19.3656 4.14192C19.3656 3.95536 19.291 3.84341 19.0671 3.84341C18.9428 3.81853 18.8059 3.81853 18.6567 3.84341C17.5746 3.84341 16.5298 4.02998 15.485 4.29118C15.1617 4.39068 14.8383 4.49018 14.5149 4.58968C14.3656 4.62699 14.3283 4.77625 14.3656 4.92551C14.5895 5.49765 14.801 6.06978 15 6.64192C15.2736 7.41306 15.5597 8.18421 15.8582 8.95535C15.9328 9.14192 16.0447 9.21655 16.2313 9.17924C17.1766 8.88073 18.1343 8.71903 19.1044 8.69416C19.291 8.69416 19.3656 8.5449 19.3656 8.35834C19.3656 7.6867 19.3656 7.00262 19.3656 6.3061ZM9.77609 7.20162C8.35818 8.28371 7.3134 9.55237 6.41788 10.933C6.30594 11.1195 6.38057 11.2688 6.56714 11.3434C7.78604 12.0897 9.00495 12.8359 10.2239 13.5822C10.485 13.7315 10.5224 13.6942 10.7089 13.4703C11.2313 12.6494 11.791 11.9404 12.5 11.3061C12.9104 10.9703 12.7985 10.933 12.5373 10.5971C12.1642 10.1494 11.8035 9.70162 11.4552 9.25386C10.8955 8.58222 10.3731 7.91057 9.77609 7.20162Z" clip-rule="evenodd"/><path fill-rule="evenodd" d="M19.403 27.1643C14.7388 27.2016 10.9328 23.5076 10.8955 18.8061C10.8955 14.2911 14.4403 10.4479 19.2537 10.4105C24.2164 10.3732 27.7239 14.3658 27.7612 18.6941C27.7985 23.3583 24.1045 27.127 19.403 27.1643ZM19.3657 26.8658C23.7686 26.8285 27.388 23.3956 27.4254 18.7687C27.4254 14.4404 23.9552 10.7091 19.2537 10.7091C14.7015 10.7464 11.2313 14.3285 11.2313 18.8434C11.2686 23.2837 14.888 26.8285 19.3657 26.8658Z" clip-rule="evenodd"/><path d="M18.9551 15.709C18.9551 15.4851 18.9551 15.2612 18.9925 15.0374C19.0298 14.7015 18.9925 14.4404 18.6939 14.1792C18.3581 13.918 18.3954 13.5448 18.5447 13.1717C18.694 12.8732 19.1044 12.6493 19.4402 12.7239C19.8134 12.7986 20.1119 12.9851 20.1865 13.3956C20.2984 13.7687 20.1865 14.0672 19.888 14.2911C19.6641 14.4403 19.6268 14.6642 19.6641 14.9254C19.7387 15.5224 19.776 16.1195 19.7387 16.7538C19.7387 16.9777 19.8134 17.0896 19.9999 17.2015C20.3731 17.3508 20.6716 17.612 20.8208 17.9851C20.9328 18.209 21.082 18.321 21.3432 18.321C21.9775 18.321 22.6492 18.2836 23.3208 18.3956C23.4701 18.4329 23.582 18.3583 23.694 18.2463C23.7686 18.1717 23.8805 18.0598 23.9925 17.9851C24.3656 17.7239 24.8134 17.7612 25.1119 18.0971C25.4104 18.4329 25.4477 18.9553 25.1119 19.2911C24.8134 19.6269 24.3656 19.7016 23.9925 19.4777C23.9551 19.4404 23.9551 19.4404 23.9178 19.4404C23.6566 18.9926 23.2462 19.0672 22.8357 19.0672C22.3134 19.1418 21.791 19.1045 21.2686 19.1045C21.082 19.1045 20.9328 19.1792 20.8581 19.3657C20.6716 19.7762 20.3731 20.0747 19.9626 20.2612C19.776 20.3359 19.7387 20.4851 19.7387 20.6717C19.7387 21.1941 19.7387 21.7165 19.6641 22.2389C19.6268 22.6493 19.6641 22.9478 19.9999 23.2836C20.3731 23.5821 20.2984 24.1418 19.9626 24.4404C19.6268 24.7762 19.1044 24.8135 18.7686 24.515C18.3954 24.2165 18.2835 23.6195 18.6566 23.2463C18.9925 22.9478 18.9925 22.6493 18.9925 22.3135C18.9427 21.7911 18.9178 21.2563 18.9178 20.709C18.9178 20.4851 18.8432 20.2986 18.6193 20.2239C18.2835 20.0374 17.985 19.8135 17.8731 19.4777C17.7238 19.1792 17.5745 19.1045 17.276 19.1045C16.6417 19.1419 16.0074 19.1418 15.3731 19.0299C15.1865 18.9926 15.0745 19.0299 14.9626 19.2165C14.888 19.2911 14.776 19.403 14.6641 19.4777C14.2537 19.7016 13.8432 19.6269 13.5447 19.2911C13.2462 18.9553 13.2462 18.4702 13.5074 18.1344C13.8059 17.7986 14.2537 17.7239 14.6641 17.9478C14.888 18.0598 14.9626 18.4329 15.2984 18.3956C15.5596 18.3956 15.8581 18.321 16.1193 18.321C16.5422 18.321 16.9527 18.321 17.3507 18.321C17.5745 18.321 17.7238 18.2463 17.7984 18.0224C17.985 17.6493 18.2835 17.3508 18.6566 17.1642C18.8805 17.0896 18.9178 16.903 18.9178 16.7165C18.9178 16.3682 18.9178 16.0324 18.9178 15.709C18.9178 15.709 18.9303 15.709 18.9551 15.709Z"/><path d="M277.201 48.582C275.224 48.9552 273.171 48.7313 271.156 48.7313C270.709 48.7313 270.41 48.3955 270.336 47.9477C270.261 47.4626 270.261 46.9402 270.261 46.4179C270.236 37.0149 270.224 27.5994 270.224 18.1716C270.224 17.7611 270.261 17.3507 270.298 16.9775C270.336 16.5298 270.597 16.1566 271.045 16.1566C273.308 16.1318 275.572 16.1318 277.836 16.1566C278.395 16.1566 278.694 16.6044 278.992 17.0149C279.589 17.8731 280.112 18.7313 280.671 19.5895C283.855 24.49 287.052 29.378 290.261 34.2537C290.634 34.8507 291.032 35.4353 291.455 36.0074C291.567 36.1567 291.753 36.2686 291.94 36.2686C292.388 36.3432 292.388 35.8954 292.425 35.6716C292.462 34.8507 292.462 34.0298 292.462 33.2089C292.462 28.5074 292.462 23.7935 292.462 19.0671C292.462 18.3581 292.462 17.6492 292.537 16.9402C292.537 16.4925 292.798 16.194 293.283 16.1566C293.694 16.1193 294.104 16.082 294.515 16.1193C296.119 16.2313 297.761 15.8208 299.365 16.3432C300.074 17.9104 299.664 19.5522 299.664 21.1567C299.701 29.2537 299.701 37.3134 299.701 45.4104C299.701 46.2313 299.676 47.0522 299.627 47.8731C299.627 48.3208 299.403 48.694 298.918 48.694C296.865 48.7313 294.85 48.7313 292.798 48.7313C292.201 48.7313 291.828 48.3955 291.53 47.9477C291.132 47.3756 290.746 46.791 290.373 46.194C286.816 40.7959 283.271 35.398 279.739 29.9999C279.291 29.3283 278.806 28.694 278.283 28.0223C278.246 27.985 278.097 28.0223 278.022 27.985C277.748 27.9104 277.612 28.0099 277.612 28.2835C277.537 29.1044 277.462 29.888 277.462 30.7089C277.462 35.6343 277.462 40.5223 277.462 45.4477C277.462 46.4552 277.612 47.4999 277.201 48.582Z"/><path d="M216.865 23.6194C216.156 23.3209 215.447 22.9851 214.738 22.6866C212.612 21.791 210.373 21.5298 208.097 21.7537C207.052 21.8283 206.082 22.1642 205.261 22.7985C204.067 23.7313 203.918 25.1492 204.85 26.3433C205.447 27.0522 206.231 27.5746 207.052 27.9851C208.246 28.5821 209.477 29.1045 210.671 29.7015C212.052 30.3731 213.432 31.0075 214.701 31.8657C217.91 34.0299 219.141 37.1642 218.656 40.9328C218.171 44.6642 216.007 47.0149 212.5 48.2836C210.746 48.9179 208.918 49.1791 207.089 49.291C203.88 49.4776 200.746 49.1045 197.686 48.0597C196.753 47.7239 196.194 47.1642 196.268 46.0448C196.343 44.2164 196.268 42.3507 196.268 40.597C197.276 40.1492 197.761 40.8582 198.321 41.194C200.597 42.5 203.022 43.2089 205.634 43.2089C206.791 43.2089 207.873 42.9851 208.918 42.5373C210.783 41.6418 211.156 39.7761 209.85 38.2463C209.179 37.4254 208.283 36.903 207.35 36.4552C206.082 35.8582 204.738 35.2612 203.432 34.7015C201.753 33.9552 200.149 33.0224 198.806 31.7164C194.664 27.6492 195.41 20.7089 200.335 17.6492C201.306 17.0895 202.35 16.6045 203.432 16.306C207.574 15.1866 211.716 15.3358 215.895 16.3433C216.977 16.6045 217.238 16.9776 217.238 18.0597C217.276 19.7015 217.276 21.3433 217.238 22.9478C217.238 23.1343 217.052 23.2836 216.865 23.6194Z"/><path d="M107.612 16.2314C108.395 16.1568 109.03 16.0821 109.627 16.0821C114.552 16.0573 119.477 16.0573 124.403 16.0821C124.801 16.0573 125.199 16.0697 125.597 16.1194C126.231 16.1568 126.492 16.4926 126.492 17.0896C126.492 17.3135 126.53 17.5 126.53 17.7239C126.418 23.1344 127.351 22.2388 122.089 22.3135C120.037 22.3508 117.985 22.3508 115.933 22.3881C115.746 22.3881 115.559 22.5374 115.224 22.6493C115.224 24.6269 115.224 26.6418 115.224 28.6941C115.783 29.3284 116.53 29.1045 117.201 29.1045C119.664 29.1418 122.127 29.1418 124.589 29.1418C125.336 29.1418 125.746 29.515 125.746 30.2239C125.746 31.5672 125.746 32.8981 125.746 34.2165C125.746 35 125.298 35.3359 124.589 35.3359C122.313 35.3359 120.074 35.3359 117.798 35.3359C117.201 35.3359 116.567 35.3359 115.97 35.4105C115.522 35.4478 115.261 35.7836 115.186 36.2314C115.112 36.5299 115.112 36.8284 115.112 37.1269C115.224 43.2836 114.216 42.3508 120.186 42.4627C122.127 42.4627 124.067 42.4254 126.045 42.4627C127.015 42.5 127.239 42.7239 127.239 43.806C127.127 49.6642 128.209 48.6568 122.5 48.7314C118.395 48.7687 114.291 48.7314 110.186 48.7314C109.589 48.7314 108.98 48.7065 108.358 48.6568C107.873 48.6195 107.649 48.3209 107.574 47.8732C107.55 47.3757 107.537 46.8657 107.537 46.3433C107.537 36.816 107.537 27.2886 107.537 17.7612C107.537 17.3508 107.574 16.9403 107.612 16.2314Z"/><path d="M133.47 16.2687C137.313 15.9328 149.962 16.0075 152.35 16.3806C152.35 17.9851 152.35 19.6269 152.35 21.2313C152.35 22.0149 151.865 22.3134 151.156 22.3134C148.893 22.3134 146.641 22.3134 144.403 22.3134C143.395 22.3134 142.35 22.3134 141.231 22.3134C140.821 23.5448 141.007 24.6642 140.97 25.7463C140.933 26.7537 140.97 27.7985 140.97 28.6567C141.567 29.1418 142.052 29.1045 142.574 29.1045C144.104 29.1045 145.671 29.1045 147.201 29.1418C152.425 29.2164 151.53 28.209 151.604 33.7687C151.604 35.1493 151.418 35.3358 149.962 35.3358C147.425 35.3731 144.85 35.3358 142.276 35.3731C141.306 35.3731 141.007 35.709 140.97 36.6418C140.933 38.209 140.97 39.7388 141.007 41.2686C141.007 41.9776 141.455 42.3881 142.164 42.4254C144.739 42.4254 147.313 42.4254 149.85 42.4627C150.858 42.4627 151.903 42.3507 152.91 42.6493C153.209 44.4776 153.134 46.194 153.022 47.9478C152.985 48.3955 152.686 48.6567 152.201 48.694C152.015 48.694 151.791 48.7313 151.604 48.7313C146.044 48.7313 140.522 48.7313 135 48.7313C133.582 48.694 133.395 48.5075 133.395 47.1269C133.358 41.791 133.358 36.4552 133.358 31.1567C133.358 26.9527 133.358 22.7488 133.358 18.5448C133.358 17.8358 133.433 17.1269 133.47 16.2687Z"/><path fill-rule="evenodd" d="M224.925 32.4254C224.925 28.0224 224.925 23.6194 224.925 19.2164C224.925 18.5199 224.95 17.8109 225 17.0895C225 16.4925 225.373 16.194 225.97 16.1567C226.268 16.1318 226.567 16.1194 226.865 16.1194C230.373 16.1194 233.843 16.1194 237.313 16.1567C238.545 16.1567 239.776 16.2686 240.97 16.5298C247.574 17.9104 249.291 22.8731 248.806 27.8731C248.321 32.4254 245.149 35.8582 240.522 37.0522C239.03 37.4253 237.5 37.7239 235.97 37.6492C235.248 37.6244 234.527 37.6368 233.806 37.6865C232.761 37.7239 232.537 37.9477 232.5 38.9552C232.462 41.194 232.5 43.4328 232.5 45.6716C232.5 49.0672 232.686 48.806 229.291 48.7686C224.253 48.694 225 49.5522 224.962 44.403C224.888 40.4104 224.925 36.4179 224.925 32.4254ZM232.5 26.7164C232.5 27.2139 232.5 27.7239 232.5 28.2463C232.537 32.0895 231.977 31.6791 236.194 31.6418C236.418 31.6418 236.629 31.6169 236.828 31.5671C239.328 31.194 240.746 29.5895 240.858 27.0149C240.933 24.4403 239.627 22.7612 237.089 22.2761C236.492 22.1642 235.895 22.0522 235.298 22.0522C232.313 21.9776 232.5 22.0522 232.5 24.5895C232.5 25.2861 232.5 25.995 232.5 26.7164Z" clip-rule="evenodd"/><path d="M89.9251 22.7239C89.9251 24.7015 89.8878 26.7164 89.9251 28.7686C89.9251 29.5522 90.4102 29.8134 91.0818 29.8134C92.8231 29.8383 94.5644 29.8507 96.3057 29.8507C97.5371 29.8507 98.7311 29.8507 99.9997 29.8507C100.597 31.791 100.336 33.6194 100.261 35.4104C100.224 35.8955 99.8132 36.0448 99.3654 36.0821C98.246 36.0821 97.1266 36.0821 96.0072 36.0821C94.4773 36.0821 92.9102 36.0821 91.3803 36.1194C90.2609 36.1567 89.9251 36.4552 89.9251 37.5746C89.8878 40.2612 89.8878 42.9104 89.8878 45.5597C89.8505 46.5671 90.0744 47.6119 89.5147 48.7313C87.4997 48.7313 85.4475 48.7313 83.4326 48.7313C82.649 48.7313 82.3132 48.2836 82.3132 47.5746C82.3132 47.0522 82.3132 46.5423 82.3132 46.0448C82.3132 36.8408 82.3132 27.6368 82.3132 18.4328C82.3132 17.7239 82.1639 17.0149 82.5371 16.3433C85.2609 15.9328 98.8803 15.9701 101.306 16.4179C101.306 18.0224 101.306 19.6268 101.306 21.2686C101.306 22.0522 100.821 22.3134 100.112 22.3134C97.649 22.3134 95.1863 22.3134 92.7609 22.3134C91.8281 22.3507 90.8953 22.1268 89.9251 22.7239Z"/><path d="M166.492 16.2313C167.015 17.2761 166.791 18.3208 166.791 19.3283C166.791 25.7462 166.791 32.2014 166.791 38.6194C166.791 39.4402 166.791 40.2611 166.828 41.082C166.865 42.0149 167.201 42.388 168.134 42.4253C169.365 42.4626 170.559 42.4626 171.791 42.4626C173.544 42.4626 175.298 42.4253 177.015 42.4626C178.694 42.4999 178.843 42.5746 178.806 44.1417C178.731 49.5149 179.627 48.6567 174.365 48.7313C170.186 48.7686 165.97 48.7313 161.791 48.7313C161.268 48.7313 160.758 48.7189 160.261 48.694C159.664 48.6567 159.291 48.3955 159.253 47.7984C159.216 47.2761 159.216 46.7537 159.216 46.2686C159.216 36.9651 159.216 27.6616 159.216 18.3582C159.216 18.0597 159.216 17.7611 159.216 17.4626C159.291 16.3432 159.44 16.1194 160.41 16.1194C162.462 16.1194 164.477 15.9328 166.492 16.2313Z"/><path d="M262.015 32.4626C262.015 36.8656 262.015 41.2686 262.015 45.6716C262.015 46.3805 262.015 47.0895 261.977 47.7984C261.94 48.3955 261.604 48.694 261.007 48.7313C260.895 48.7686 260.783 48.7686 260.709 48.7686C253.134 48.5447 254.589 50.2611 254.477 42.8731C254.403 35.1119 254.477 27.3134 254.477 19.5522C254.477 18.7313 254.49 17.9104 254.515 17.0895C254.515 16.6417 254.739 16.2313 255.186 16.2313C257.226 16.1815 259.278 16.1815 261.343 16.2313C261.791 16.2313 261.977 16.679 261.977 17.0895C262.002 17.8109 262.015 18.5323 262.015 19.2537C262.015 23.6567 262.015 28.0596 262.015 32.4626Z"/></g></svg>
