<?xml version="1.0" encoding="utf-8"?>
<!-- Generator: Adobe Illustrator 18.1.1, SVG Export Plug-In . SVG Version: 6.00 Build 0)  -->
<svg version="1.1" id="Ebene_1" xmlns="http://www.w3.org/2000/svg" xmlns:xlink="http://www.w3.org/1999/xlink" x="0px" y="0px"
	 viewBox="59 12.3 137.5 17.7" enable-background="new 59 12.3 137.5 17.7" xml:space="preserve">
<title>gameart_black</title>
<g id="Layer_2">
	<g id="Layer_1-2">
		<g id="Layer_2-2">
			<g id="Layer_1-2-2">
				<polygon fill="white" points="85.3,22.8 91.2,22.8 88.2,18.4 				"/>
				<polygon fill="white" points="196,12.8 176.6,12.8 176.1,12.8 176.1,13.3 176.1,16.2 176.1,16.7 176.6,16.7 184.1,16.7 
					184.1,29.5 184.1,30 184.6,30 187.9,30 188.4,30 188.4,29.5 188.4,16.7 196,16.7 196.5,16.7 196.5,16.2 196.5,13.3 196.5,12.8 
									"/>
				<path fill="white" d="M140,12.5l-0.1-0.2H59V30h72.6l2-3h11.5l1.9,2.8l0.1,0.2h4.9l-0.5-0.8L140,12.5z M77.8,20.5v5l-0.1,0.1
					c-1.6,1.4-4,2.1-7,2.1c-5.3,0-8.5-2.4-8.5-6.5c-0.1-2,0.9-3.8,2.5-4.9c1.8-1.1,3.9-1.7,6-1.6c3,0,5.1,0.6,6.6,1.8l0.3,0.2
					L77.3,17l-1,1.3l-0.2,0.3l-0.3-0.3c-1-0.9-2.3-1.5-5.1-1.5c-3.8,0-5.7,1.4-5.7,4.2s1.9,4.3,5.7,4.3c1.6,0.1,3.2-0.2,4.7-1v-1.9
					h-5.9v-2.4h8.5L77.8,20.5z M96.7,27.5h-2.3l-0.1-0.2l-1.5-2.1h-9.1l-1.4,2.1l-0.1,0.2h-2.9l0.4-0.6l8.2-12.3l0.1-0.2h0.6
					l0.1,0.2L97,26.9l0.4,0.6L96.7,27.5z M116.7,15v12.4H114v-7.5l-5.3,5l-0.1,0.1h-0.5l-0.1-0.1l-5.6-5v7.5h-2.7V14.6h0.7l0.1,0.1
					l7.8,7.1l7.5-7.1l0.1-0.1h0.7L116.7,15z M135.4,15.4l-1.1,1.7l-0.1,0.2h-10.4v2.5h8.8l-0.4,0.6l-1.1,1.6l-0.1,0.2h-7.2V25h5.4
					l-0.4,0.6l-1.1,1.7l-0.1,0.2H121V14.8h14.8L135.4,15.4z M136.1,23.2l3.1-4.6l3.2,4.6H136.1z"/>
				<path fill="white" d="M169.4,23.4c3.8-1,4.5-3.6,4.5-5.1c0.1-1.7-0.7-3.3-2.2-4.2c-1.9-1-4-1.5-6.1-1.3h-11.7V30h4.3v-6.1h6.2
					l5.4,6l0.2,0.2h5.4l-0.8-0.8L169.4,23.4z M165.3,20.1h-7.1v-3.5h7.1c4.2,0,4.2,0.9,4.2,1.7S169.5,20.1,165.3,20.1"/>
			</g>
		</g>
	</g>
</g>
</svg>
