<svg version="1.1" xmlns="http://www.w3.org/2000/svg" viewBox="0 0 205 62.1" xml:space="preserve"><path fill="white" d="M0 60.6V1.5L29.6 31 58.7 1.4v59.2c0 2-3 2-3 0V8.7L29.6 35.2 3 8.6v52C3 62.6 0 62.6 0 60.6M66.4 49.1c5.1 6.1 12.9 10 21.5 10 15 0 27.3-11.8 28-26.6h-28c-2 0-2-3 0-3h31V31c0 17.1-13.9 31-31 31-8.3 0-15.9-3.3-21.4-8.6L66.4 49.1zM66.4 8.6C72 3.3 79.6 0 87.9 0c11.5 0 21.6 6.3 26.9 15.6 1 1.7-1.6 3.2-2.6 1.5C107.4 8.6 98.3 3 87.9 3c-8.6 0-16.3 3.9-21.5 10V8.6zM143.7 1.5l.1.2 29.1 58.2c.9 1.8-1.8 3.1-2.7 1.3l-26.5-53-26.5 53c-.9 1.8-3.5.4-2.7-1.3l29.1-58.2L143.7 1.5 143.7 1.5zM173.4 1.5c-1.9 0-3.3 1.1-3.3 2.8s1.4 2.8 3.3 2.8h28.3c1.9 0 3.3-1.1 3.3-2.8s-1.4-2.8-3.3-2.8C201.7 1.5 173.4 1.5 173.4 1.5zM173.4 12.7c-1.9 0-3.3 1.1-3.3 2.8s1.4 2.8 3.3 2.8h28.3c1.9 0 3.3-1.1 3.3-2.8s-1.4-2.8-3.3-2.8C201.7 12.7 173.4 12.7 173.4 12.7zM173.4 23.9c-1.9 0-3.3 1.1-3.3 2.8s1.4 2.8 3.3 2.8h28.3c1.9 0 3.3-1.1 3.3-2.8s-1.4-2.8-3.3-2.8H173.4z"/></svg>
