<?xml version="1.0" encoding="utf-8"?>
<!-- Generator: Adobe Illustrator 19.0.0, SVG Export Plug-In . SVG Version: 6.00 Build 0)  -->
<svg version="1.1" id="Слой_1" xmlns="http://www.w3.org/2000/svg" xmlns:xlink="http://www.w3.org/1999/xlink" x="0px" y="0px"
	 viewBox="0 0 441 109" style="enable-background:new 0 0 441 109;" xml:space="preserve">
<style type="text/css">
	.st0{fill:url(#XMLID_15_);}
	.st1{fill:url(#XMLID_16_);}
	.st2{fill:url(#XMLID_17_);}
	.st3{fill:url(#XMLID_18_);}
	.st4{fill:url(#XMLID_19_);}
	.st5{fill:url(#XMLID_20_);}
	.st6{fill:url(#XMLID_21_);}
	.st7{fill:url(#XMLID_22_);}
	.st8{fill:url(#XMLID_23_);}
	.st9{fill:url(#XMLID_24_);}
	.st10{fill:url(#XMLID_25_);}
	.st11{fill:url(#XMLID_26_);}
</style>
<linearGradient id="XMLID_15_" gradientUnits="userSpaceOnUse" x1="27.2564" y1="101.7345" x2="81.7804" y2="7.296">
	<stop  offset="0" style="stop-color:white"/>
	<stop  offset="0.9" style="stop-color:white"/>
</linearGradient>
<path id="XMLID_180_" class="st0" d="M54.5,0C24.4,0,0,24.4,0,54.5c0,5.4,0.8,10.7,2.3,15.6C16.7,50.9,33,21,34.9,16.4
	c1.8-4.2,3.3-6.2,8.1-5.2c1.4,0.3,3.4,2.5,2.8,7.1c-3.2,25.8-0.6,65.8,5.6,60.8C57,74.6,69.7,50,73.6,40.4c2.1-5,3.1-7.9,7.6-7.5
	c3.5,0.3,4.1,4.3,4.2,5.6C86.2,56.2,94,68.7,95,70.3c1.8,3.1-1.2,3.3-5.7-1.4c-2.7-3-6.8-9.4-9.5-16.9C79,49.8,64.2,95.1,47,89.7
	C34,85.7,33.9,55.9,34.6,41.4c0.1-1.4-13.7,27-25.5,43.2C18.8,99.3,35.5,109,54.5,109c30.1,0,54.5-24.4,54.5-54.5
	C109,24.4,84.6,0,54.5,0z"/>
<g id="XMLID_144_">
	<linearGradient id="XMLID_16_" gradientUnits="userSpaceOnUse" x1="449.6476" y1="55.8013" x2="117.0924" y2="54.1999">
		<stop  offset="0" style="stop-color:white"/>
		<stop  offset="0.7308" style="stop-color:white"/>
	</linearGradient>
	<path id="XMLID_165_" class="st1" d="M155.5,37.9l-12,36.5h-2.3L129,37.9h-0.6l0,36.5h-4.5V34.2h8.1l10.4,31.3h0.1l10.2-31.3h8.2
		v40.2h-4.4l-0.2-36.5H155.5z"/>
	<linearGradient id="XMLID_17_" gradientUnits="userSpaceOnUse" x1="449.6288" y1="59.7053" x2="117.0736" y2="58.1039">
		<stop  offset="0" style="stop-color:white"/>
		<stop  offset="0.7308" style="stop-color:white"/>
	</linearGradient>
	<path id="XMLID_207_" class="st2" d="M226.3,46.6c-2,0-4.4-0.5-7.7,1c-1.3,0.6-2.7,1.3-3.9,2.4l0,24.1h-5V43.6h3.7l0.6,3.2
		c1.4-1.1,2.7-2,4.3-2.5c4.6-1.5,7.6-1.5,8.5-1L226.3,46.6z"/>
	<linearGradient id="XMLID_18_" gradientUnits="userSpaceOnUse" x1="449.6285" y1="59.777" x2="117.0733" y2="58.1756">
		<stop  offset="0" style="stop-color:white"/>
		<stop  offset="0.7308" style="stop-color:white"/>
	</linearGradient>
	<path id="XMLID_209_" class="st3" d="M255.2,60.2c0,2.8-0.3,5.1-0.8,7c-0.5,1.9-1.3,3.3-2.4,4.5c-1.1,1.1-2.5,1.9-4.1,2.4
		c-1.7,0.5-3.7,0.7-6,0.7c-2.3,0-4.3-0.2-6-0.7c-1.7-0.5-3.1-1.2-4.1-2.4c-1.1-1.1-1.9-2.6-2.4-4.5c-0.5-1.9-0.8-4.2-0.8-7v-3.3
		c0-2.8,0.3-4.7,0.8-6.6c0.5-1.9,1.3-3.3,2.4-4.5c1.1-1.1,2.5-1.9,4.1-2.4c1.7-0.5,3.7-0.7,5.9-0.7c2.3,0,4.3,0.2,6,0.7
		c1.7,0.5,3,1.2,4.1,2.4c1.1,1.1,1.9,2.6,2.4,4.5c0.5,1.9,0.8,3.8,0.8,6.6V60.2z M250.2,56.4c0-2.1-0.1-3.8-0.4-5.1
		c-0.3-1.3-0.7-2.4-1.4-3.2c-0.7-0.8-1.5-1.3-2.6-1.6c-1.1-0.3-2.4-0.5-4-0.5c-1.6,0-2.9,0.2-4,0.5c-1.1,0.3-1.9,0.8-2.6,1.6
		c-0.6,0.8-1.1,1.8-1.4,3.2c-0.3,1.3-0.4,3.5-0.4,5.6v3.3c0,2.1,0.1,4.5,0.4,5.9c0.3,1.3,0.7,2.4,1.4,3.2c0.6,0.8,1.5,1.3,2.6,1.6
		c1.1,0.3,2.4,0.5,4,0.5c1.6,0,2.9-0.2,4-0.5c1.1-0.3,1.9-0.8,2.6-1.6c0.7-0.8,1.1-1.8,1.4-3.2c0.3-1.3,0.4-3.8,0.4-5.9V56.4z"/>
	<linearGradient id="XMLID_19_" gradientUnits="userSpaceOnUse" x1="449.6267" y1="60.1394" x2="117.0715" y2="58.538">
		<stop  offset="0" style="stop-color:white"/>
		<stop  offset="0.7308" style="stop-color:white"/>
	</linearGradient>
	<path id="XMLID_203_" class="st4" d="M204.1,64.1c0,2.8,0.1,0.4-0.1,3c-0.1,1.9-0.9,3.5-2,4.6c-1.1,1.1-2.5,1.9-4.1,2.4
		c-1.7,0.5-3.7,0.7-6,0.7c-2.3,0-4.3-0.2-6-0.7c-1.7-0.5-2.8-1.1-3.8-2.2c-1.1-1.1-1.9-2.6-2.4-4.5c-0.5-1.9-0.8-4.2-0.8-7V57
		c0-2.8,0.3-4.7,0.8-6.6c0.5-1.9,1.3-3.3,2.4-4.5c1.1-1.1,2.2-1.8,3.9-2.2c1.7-0.5,3.7-0.7,5.9-0.7c2.3,0,4.3,0.2,6,0.7
		c1.7,0.5,3,1.2,4.1,2.4c1.1,1.1,1.6,2.5,1.8,4.4c0.3,2.7,0.2,0.2,0.2,3l-4.2,0.1c-0.1-1.9-0.7-4.6-1.3-5.4
		c-0.7-0.8-1.5-1.3-2.6-1.6c-1.1-0.3-2.4-0.5-4-0.5c-1.6,0-2.9,0.2-4,0.5c-1.1,0.3-1.9,0.8-2.6,1.6c-0.6,0.8-1.1,1.8-1.4,3.2
		c-0.3,1.3-0.4,3.5-0.4,5.6v3.3c0,2.1,0.1,4.5,0.4,5.9c0.3,1.3,0.7,2.4,1.4,3.2c0.6,0.8,1.5,1.3,2.6,1.6c1.1,0.3,2.4,0.5,4,0.5
		c1.6,0,2.9-0.2,4-0.5c1.1-0.3,1.9-0.8,2.6-1.6c0.7-0.8,1.2-2.8,1.2-5.1"/>
	<linearGradient id="XMLID_20_" gradientUnits="userSpaceOnUse" x1="449.632" y1="59.0468" x2="117.0768" y2="57.4454">
		<stop  offset="0" style="stop-color:white"/>
		<stop  offset="0.7308" style="stop-color:white"/>
	</linearGradient>
	<path id="XMLID_219_" class="st5" d="M327.9,46.2c1.7-1.2,3.7-2.1,5.3-2.7c1.2-0.4,2.9-0.7,4.7-0.7c2.1,0,3.8,0.3,5.1,1
		c1.3,0.7,2.1,1.3,2.9,2.4c1.7-1.2,3-1.6,4.7-2.3c1.7-0.7,3.8-1.1,5.7-1.1c1.8,0,3.9,0.5,5.1,0.9c1.2,0.4,2.1,0.9,2.7,1.7
		c0.7,0.8,1.4,2.5,1.7,3.8c0.2,1.3,0.2,1.7,0.2,3.4v21.5l-4.6,0.1V52.8c0-2.3-0.8-3.9-1.6-4.8c-0.8-0.8-2.2-1.9-4.3-1.9
		c-1.2,0-3.3,0.1-4.7,0.6c-1.4,0.6-2.2,1-3.5,2l0.1,25.5h-4.4V52.7c0-1.1,0-2.1-0.3-2.8c-0.6-1.6-1.2-2-1.6-2.4
		c-0.4-0.5-1.3-0.9-2-1.1c-0.7-0.2-1.4-0.4-2.5-0.4c-1.2,0-2.8,0.1-4.2,0.7c-1.4,0.5-2.7,1.2-4,2.2l-0.2,25.3h-4.5V43.7l3.7-0.1
		L327.9,46.2z"/>
	<linearGradient id="XMLID_21_" gradientUnits="userSpaceOnUse" x1="449.6532" y1="54.6431" x2="117.098" y2="53.0417">
		<stop  offset="0" style="stop-color:white"/>
		<stop  offset="0.7308" style="stop-color:white"/>
	</linearGradient>
	<path id="XMLID_221_" class="st6" d="M372.9,34.4h4.9v4.9h-4.9V34.4z M373,43.6h4.7v30.6H373V43.6z"/>
	<linearGradient id="XMLID_22_" gradientUnits="userSpaceOnUse" x1="449.6473" y1="55.86" x2="117.0922" y2="54.2586">
		<stop  offset="0" style="stop-color:white"/>
		<stop  offset="0.7308" style="stop-color:white"/>
	</linearGradient>
	<path id="XMLID_189_" class="st7" d="M168.3,34.6h4.9v4.9h-4.9V34.6z M168.4,43.8h4.7v30.6h-4.7V43.8z"/>
	<linearGradient id="XMLID_23_" gradientUnits="userSpaceOnUse" x1="449.6328" y1="58.8878" x2="117.0776" y2="57.2865">
		<stop  offset="0" style="stop-color:white"/>
		<stop  offset="0.7308" style="stop-color:white"/>
	</linearGradient>
	<path id="XMLID_224_" class="st8" d="M387.9,43.6l0.6,3c1.7-1.2,3.3-2.1,5-2.7c1.7-0.6,3.6-0.9,5.8-0.9c1.9,0,3.5,0.2,4.9,0.5
		c1.4,0.4,2.5,1,3.3,1.8c0.9,0.8,1.5,2,1.9,3.4c0.4,1.4,0.6,3.1,0.6,5.1v20.3h-5.1V53.9c0-1.3-0.2-3.5-0.4-4.4
		c-0.3-0.9-0.7-1.6-1.2-2.1c-0.5-0.5-1.3-0.9-2.1-1.1c-0.9-0.2-1.9-0.3-3.1-0.3c-1.6,0-3.1,0.3-4.7,0.8c-1.6,0.5-3,1.1-4.3,2v25.3
		h-4.8V43.6H387.9z"/>
	<linearGradient id="XMLID_24_" gradientUnits="userSpaceOnUse" x1="449.6075" y1="64.1435" x2="117.0523" y2="62.5421">
		<stop  offset="0" style="stop-color:white"/>
		<stop  offset="0.7308" style="stop-color:white"/>
	</linearGradient>
	<path id="XMLID_226_" class="st9" d="M435.9,71.1c-1.4,1-2.5,1.7-4.1,2.3c-1.6,0.6-3.2,1-4.8,1c-1.8,0-3.4-0.2-4.9-0.6
		c-1.4-0.4-2.7-1.1-3.7-2.1c-1-1-1.8-2.4-2.3-4.2c-0.5-1.8-0.8-4.2-0.8-7v-3.7c0-2.9,0.3-5.2,0.8-7c0.5-1.8,1.3-3.2,2.3-4.2
		c1-1,2.2-1.7,3.7-2.1c1.4-0.4,3.1-0.6,4.9-0.6c1.7,0,3.4,0.3,5.1,1c1.7,0.7,3.3,1.6,4.7,2.6l0.1-3l4,0v31c0,3.5-1.3,6.7-3.2,8.4
		c-1.8,1.7-4.4,2.3-8.8,2.3c-1.6,0-3.2,0.3-4.9,0.1c-1.7-0.2-3.2-0.2-4.6-0.6l0.6-3c1.6,0.5,10.5,0.3,11.4,0.1
		c0.9-0.2,2.1-1.1,2.7-1.6c0.6-0.5,1-1.3,1.3-2.2c0.3-0.9,0.4-2,0.4-3.4V71.1z M427.9,46.1c-1.3,0-2.4,0.2-3.4,0.5
		c-0.9,0.3-1.7,0.8-2.3,1.6c-0.6,0.8-1.3,2.6-1.6,3.9c-0.3,1.3-0.4,2.9-0.4,4.8v3.5c0,2,0.1,3.6,0.4,4.9c0.3,1.3,0.7,3,1.4,3.8
		c0.6,0.8,1.4,1.3,2.3,1.6c0.9,0.3,2.1,0.4,3.4,0.4c1.4,0,3.2-0.1,4.8-0.7c1.6-0.6,2.7-1.1,3.9-2.1V49.4c-1.2-1.2-2.6-2.1-4.2-2.7
		C430.5,46.1,429.2,46.1,427.9,46.1z"/>
	<linearGradient id="XMLID_25_" gradientUnits="userSpaceOnUse" x1="449.6039" y1="64.8917" x2="117.0487" y2="63.2903">
		<stop  offset="0" style="stop-color:white"/>
		<stop  offset="0.7308" style="stop-color:white"/>
	</linearGradient>
	<path id="XMLID_204_" class="st10" d="M280.6,71.1c-1.4,1-2.5,1.7-4.1,2.3c-1.6,0.6-3.2,1-4.8,1c-1.8,0-3.4-0.2-4.9-0.6
		c-1.4-0.4-2.7-1.1-3.7-2.1c-1-1-1.8-2.4-2.3-4.2c-0.5-1.8-0.8-4.2-0.8-7v-3.7c0-2.9,0.3-5.2,0.8-7c0.5-1.8,1.3-3.2,2.3-4.2
		c1-1,2.2-1.7,3.7-2.1c1.4-0.4,3.1-0.6,4.9-0.6c1.7,0,3.4,0.3,5.1,1c1.7,0.7,3.3,1.6,4.7,2.6l0.1-3l4,0v31c0,3.5-1.3,6.7-3.2,8.4
		c-1.8,1.7-4.4,2.3-8.8,2.3c-1.6,0-3.2,0.3-4.9,0.1c-1.7-0.2-3.2-0.2-4.6-0.6l0.6-3c1.6,0.5,10.5,0.3,11.4,0.1
		c0.9-0.2,2.1-1.1,2.7-1.6c0.6-0.5,1-1.3,1.3-2.2c0.3-0.9,0.4-2,0.4-3.4V71.1z M272.5,46.1c-1.3,0-2.4,0.2-3.4,0.5
		c-0.9,0.3-1.7,0.8-2.3,1.6c-0.6,0.8-1.3,2.6-1.6,3.9c-0.3,1.3-0.4,2.9-0.4,4.8v3.5c0,2,0.1,3.6,0.4,4.9c0.3,1.3,0.7,3,1.4,3.8
		c0.6,0.8,1.4,1.3,2.3,1.6c0.9,0.3,2.1,0.4,3.4,0.4c1.4,0,3.2-0.1,4.8-0.7c1.6-0.6,2.7-1.1,3.9-2.1V49.4c-1.2-1.2-2.6-2.1-4.2-2.7
		C275.1,46.1,273.9,46.1,272.5,46.1z"/>
	<linearGradient id="XMLID_26_" gradientUnits="userSpaceOnUse" x1="449.6298" y1="59.4995" x2="117.0746" y2="57.8982">
		<stop  offset="0" style="stop-color:white"/>
		<stop  offset="0.7308" style="stop-color:white"/>
	</linearGradient>
	<path id="XMLID_230_" class="st11" d="M313.5,43.6l-0.7,2.5c0,0-3.6-2.3-5.3-2.8c-2.8-0.9-5.6-0.7-7.1-0.4
		c-1.3,0.2-3.8,1.3-4.9,2.1c-0.9,0.7-2.2,2.6-2.6,3.6c-0.5,1.2-0.9,3.8-1,5c-0.2,2.9-0.6,8.9,0,11.8c0.3,1.7,1.3,5,2.4,6.3
		c0.9,1.1,3.5,2.5,4.9,2.9c1.8,0.5,5.6,0.4,7.4,0c1.7-0.4,6.1-3,6.1-3l0.6,2.7h3.7V43.6H313.5z M312.5,68.6c0,0-4,2.3-5.5,2.7
		c-1.2,0.3-3.9,0.4-5.1,0c-1-0.3-2.6-0.8-3.8-2.3c-0.9-1.1-0.9-2.7-1.1-3.7c-0.6-3.2-0.6-9.7,0-12.9c0.2-0.9,0-1.7,0.9-3.3
		c0.8-1.4,1.9-2.1,2.8-2.5c1.3-0.6,4.4-0.7,5.9-0.4c1.6,0.3,6,2.4,6,2.4V68.6z"/>
</g>
</svg>
