<?xml version="1.0" encoding="utf-8"?>
<!-- Generator: Adobe Illustrator 23.0.0, SVG Export Plug-In . SVG Version: 6.00 Build 0)  -->
<svg version="1.1" id="Ebene_1" xmlns="http://www.w3.org/2000/svg" xmlns:xlink="http://www.w3.org/1999/xlink" x="0px" y="0px"
	 viewBox="0 0 670 115" style="enable-background:new 0 0 670 115;" xml:space="preserve">
<style type="text/css">
	.st0{fill:white;}
</style>
<g>
	<g>
		<path id="a" class="st0" d="M39.4,89C9.7,43.9,12.2,25.1,14.8,19C-6.5,42.5-4.6,78.8,19,100.1c8.8,8,20,13,31.8,14.4
			C50.8,107.6,45.2,98,39.4,89"/>
	</g>
	<g>
		<path id="b" class="st0" d="M57,91.2c33.2-43.9,40-69.5,41-74C87.2,6.2,72.4,0,57,0C41.6,0,26.8,6.2,16,17.2
			C17,21.8,23.8,47.3,57,91.2"/>
	</g>
	<g>
		<path id="c" class="st0" d="M100,19c2.6,6.1,5,24.5-23.7,68.5l-0.1,0.2C70.1,97.1,64,107.2,64,114.4c31.5-3.7,54-32.2,50.3-63.7
			C113,38.9,107.9,27.8,100,19"/>
	</g>
	<g>
		<path id="d" class="st0" d="M181.6,72.1c-2.5,3.1-6.5,4.7-11.8,4.7s-9.3-1.6-11.8-4.7c-2.6-3.1-3.8-7.9-3.8-14.3
			c0-7,1.2-12.1,3.7-15s6.4-4.5,11.9-4.5s9.4,1.5,11.9,4.5s3.7,8,3.7,15C185.4,64.2,184.2,69,181.6,72.1L181.6,72.1z M142,57.8
			c0,19.5,9.3,29.2,27.8,29.2c18.5,0,27.8-9.8,27.8-29.2c0-10.3-2.3-17.8-6.9-22.6c-4.6-4.8-11.6-7.1-20.9-7.1
			c-9.4,0-16.3,2.4-20.9,7.1S142,47.4,142,57.8z"/>
	</g>
	<g>
		<path id="e" class="st0" d="M218,57.3V39h13.1c3.1,0,5.5,0.7,7,2.2s2.3,3.8,2.3,7c0,3.2-0.9,5.5-2.6,7c-1.7,1.5-4.2,2.2-7.5,2.2
			H218z M206,86.2h12V67.3h9.4c1.6,0,2.8,0.3,3.5,0.8c0.7,0.5,1.4,1.4,2,2.8l6.8,15.4h12.4l-6.9-16c-0.5-1.2-1.1-2.5-1.8-3.6
			c-0.6-0.9-1.3-1.7-2.2-2.4c3.4-1.1,6.3-3.2,8.4-6c2-2.9,3.1-6.4,3-9.9c0-6-1.6-10.8-4.8-14.1c-3.2-3.4-7.9-5.1-14.4-5.1H206V86.2z
			"/>
	</g>
	<g>
		<path id="f" class="st0" d="M274.5,65.1L254,29h12.5l14,25.8l14-25.8H307l-20.5,36.1v21.1h-12V65.1z"/>
	</g>
	<g>
		<g>
			<path id="g" class="st0" d="M323.7,57.5L303.5,29h14.1l13.2,19.1L344.1,29h14.1l-20.2,28.5l20.7,28.7h-14.3l-13.6-19.1
				l-13.6,19.1H303L323.7,57.5z"/>
		</g>
	</g>
	<g>
		<g>
			<path id="h" class="st0" d="M373.6,79.5c-4.4-5-6.6-11.8-6.6-20.4c0-9.8,2.1-17.5,6.3-22.9c4.2-5.4,10.8-8.2,19.9-8.2
				c6.1,0,11.5,0.8,16.3,2.4v4.3c-5.1-1.7-10.4-2.5-15.8-2.5c-7.9,0-13.6,2.3-16.9,6.9c-3.3,4.6-5,11.2-5,19.9
				c0,15.8,7.3,23.7,22,23.7c2.7,0,5.5-0.2,8.2-0.7c2.4-0.4,4.8-1,7-1.9V59.8h-16.3v-3.9h20.7v26.7c-1.9,1.3-4.5,2.3-7.8,3.1
				c-3.3,0.8-7.4,1.3-12.3,1.3C384.5,87,377.9,84.5,373.6,79.5"/>
		</g>
	</g>
	<g>
		<g>
			<path id="i" class="st0" d="M436.4,65.5l12.3-32.6L461,65.5H436.4z M424,86.2h5.1l6.3-16.7h26.8l6.3,16.7h5L451.9,29h-6.2
				L424,86.2z"/>
		</g>
	</g>
	<g>
		<g>
			<path id="j" class="st0" d="M482,29h5.7l20.7,42.4L529.1,29h5.7v57.2H530V36.1l-19.6,40.1h-3.8l-19.7-40.1v50.1H482V29z"/>
		</g>
	</g>
	<g>
		<g>
			<path id="k" class="st0" d="M548,86.2h4.9V29H548V86.2z"/>
		</g>
	</g>
	<g>
		<g>
			<path id="l" class="st0" d="M567,29h4.6l35.4,49.9V29h4.9v57.2h-4.7l-35.3-49.8v49.8H567V29z"/>
		</g>
	</g>
	<g>
		<g>
			<path id="m" class="st0" d="M629.6,79.5c-4.4-5-6.6-11.8-6.6-20.4c0-9.8,2.1-17.5,6.3-22.9c4.2-5.4,10.8-8.2,19.9-8.2
				c6.1,0,11.5,0.8,16.3,2.4v4.3c-5.1-1.7-10.4-2.5-15.8-2.5c-7.9,0-13.6,2.3-16.9,6.9c-3.3,4.6-5,11.2-5,19.9
				c0,15.8,7.3,23.7,22,23.7c2.7,0,5.5-0.2,8.2-0.7c2.4-0.4,4.8-1,7-1.9V59.8h-16.3v-3.9h20.7v26.7c-1.9,1.3-4.5,2.3-7.8,3.1
				c-3.3,0.8-7.4,1.3-12.3,1.3C640.5,87,634,84.5,629.6,79.5"/>
		</g>
	</g>
</g>
</svg>
