<?xml version="1.0" encoding="utf-8"?>
<!-- Generator: Adobe Illustrator 18.1.1, SVG Export Plug-In . SVG Version: 6.00 Build 0)  -->
<svg version="1.1" id="Ebene_1" xmlns="http://www.w3.org/2000/svg" xmlns:xlink="http://www.w3.org/1999/xlink" x="0px" y="0px"
	 viewBox="17 13 54 16" enable-background="new 17 13 54 16" xml:space="preserve">
<title>playngo_color</title>
<desc>Created with Sketch.</desc>
<g id="Page-1">
	<g id="playngo_color" transform="translate(0.396612, 0.500000)">
		<g id="Group-3" transform="translate(26.488499, 0.008969)">
			<g id="Clip-2">
			</g>
			<defs>
				<filter id="Adobe_OpacityMaskFilter" filterUnits="userSpaceOnUse" x="17" y="13.1" width="23.6" height="14.7">
					<feColorMatrix  type="matrix" values="1 0 0 0 0  0 1 0 0 0  0 0 1 0 0  0 0 0 1 0"/>
				</filter>
			</defs>
			<mask maskUnits="userSpaceOnUse" x="17" y="13.1" width="23.6" height="14.7" id="mask-2">
				<g filter="url(#Adobe_OpacityMaskFilter)">
					<polygon id="path-1" fill="#FFFFFF" points="17,13.1 40.6,13.1 40.6,27.8 17,27.8 					"/>
				</g>
			</mask>
			<path id="Fill-1" mask="url(#mask-2)" fill="#FFFFFF" d="M30.1,14.5c-0.1-0.1-0.2-0.1-0.3-0.1c-1.8,0-3.7,0-5.5,0
				c-0.6,0-1.2,0.2-1.8,0.5c-1.1,0.7-1.8,1.6-2.2,2.8c-0.6,1.9-1.2,3.8-1.8,5.6c-0.6,1.8,0.5,3.2,2.3,3.1c0.9-0.1,1.9,0,2.8,0
				c0.3,0,0.6,0,0.9-0.1c1.5-0.4,2.4-1.5,2.9-2.9c0.4-1.1,0.7-2.1,1-3.2c0.1-0.4,0.3-0.8,0.4-1.2c-0.2-0.1-0.4-0.1-0.5-0.1
				c-0.9,0-1.8,0-2.8,0c-0.3,0-0.7-0.1-1,0.1c-0.3,0.2-0.2,0.6-0.3,0.9c-0.2,0.7-0.4,1.3-0.6,2c0.5,0.1,1,0,1.5,0.1
				c-0.1,0.5-0.3,0.9-0.4,1.3c0,0.1-0.1,0.3-0.3,0.2c-0.9,0-1.8,0-2.8,0c0.2-0.6,0.4-1.2,0.6-1.8c0.4-1.3,0.8-2.6,1.2-4
				c0.1-0.4,0.1-0.4,0.6-0.4c0.4,0,0.8,0,1.2,0c1.2,0,2.5,0,3.7,0c0.1,0,0.3,0.1,0.4-0.2C29.5,16.3,29.8,15.4,30.1,14.5 M31.8,26.5
				c0.7,0,1.4,0.1,2,0c1.7-0.4,2.9-1.4,3.5-3.1c0.6-1.8,1.1-3.6,1.7-5.4c0.1-0.5,0.3-0.9,0.3-1.4c0.1-1.4-1.1-2.2-2.2-2.2
				c-1,0-2,0-3,0c-0.2,0-0.4,0-0.6,0.1c-1.7,0.5-2.9,1.5-3.5,3.2c-0.2,0.7-0.5,1.4-0.7,2.2c-0.4,1.3-0.8,2.6-1.2,3.9
				c-0.5,1.7,0.7,2.9,2.1,2.9C30.7,26.4,31.3,26.5,31.8,26.5 M19.4,16.4c0.8-1.6,2-2.6,3.7-3.2c0.2-0.1,0.4,0,0.5-0.2h14.1
				c0,0.1,0.1,0.1,0.2,0.1c1.4,0.3,2.2,1.1,2.6,2.5c0.1,0.3,0,0.5,0.2,0.8c-0.1,0.7-0.2,1.3-0.4,2c-0.3,0.8-0.5,1.6-0.8,2.5
				c-0.4,1.2-0.7,2.5-1.2,3.7c-0.8,1.4-1.9,2.4-3.4,3c-0.5,0.2-1.1,0.3-1.6,0.3c-4.2,0-8.4,0-12.7,0c-1.5,0-3.2-1-3.4-2.9
				c0-0.1-0.1-0.2-0.1-0.4c0-0.8,0.3-1.6,0.5-2.4C18.2,20.3,18.7,18.3,19.4,16.4"/>
		</g>
		<path id="Fill-4" fill="#FFFFFF" d="M64.7,24.6c0.5-1.2,0.8-2.5,1.2-3.7c0.3-0.8,0.5-1.7,0.8-2.5c0.2-0.6,0.3-1.3,0.4-2
			c0.5,0,0.9,0,1.4,0c0.6,0,1.1,0.3,1.5,0.8c0.2,0.2,0.2,0.5,0.4,0.7v1.3c-0.3,0.5-0.3,1-0.5,1.5c-0.2,0.5-0.3,1.1-0.5,1.6
			c-0.4,1.5-1.8,2.3-3,2.2C65.8,24.6,65.3,24.6,64.7,24.6"/>
		<path id="Fill-6" fill="#FFFFFF" d="M37.9,19.4h1.4c0.1,0,0.2,0,0.3-0.2c0.1-0.4,0.3-0.8,0.4-1.2c-0.5-0.1-1,0-1.4,0
			c-0.2,0-0.2,0.1-0.3,0.2C38.2,18.5,38.1,18.9,37.9,19.4 M41.1,22.7c0.3,0,0.6,0,1,0c0.2,0,0.3-0.1,0.4-0.3
			c0.2-0.7,0.4-1.3,0.5-1.9c0.2-0.7-0.1-1.2-0.9-1.2c-0.4,0-0.8,0-1.2,0c-0.8,0-1.3,0.5-1.6,1.1c-0.3,0.7-0.4,1.5-0.7,2.2
			c0.3,0.1,0.6,0,0.9,0.1c0.3,0,0.4-0.1,0.5-0.4c0.1-0.5,0.3-1,0.4-1.5c0-0.1,0.1-0.3,0.3-0.3c0.3,0,0.6,0,1,0
			C41.5,21.3,41.3,22,41.1,22.7 M26.9,17.8c-0.4,0-0.6,0-0.9,0c-0.3,0-0.4,0.1-0.5,0.4c-0.3,1.1-0.7,2.2-1,3.3
			c-0.1,0.4-0.3,0.8-0.3,1.2c1.2,0,2.3,0,3.4,0c0.2,0,0.3-0.1,0.3-0.3c0.1-0.4,0.3-0.9,0.4-1.3c0.3-1,0.5-0.9-0.7-0.9
			c-0.2,0-0.3,0.1-0.4,0.3c-0.1,0.2-0.2,0.5-0.2,0.7c0,0.1-0.1,0.2-0.2,0.2c-0.3,0-0.6,0-1-0.1C26.1,20.2,26.5,19.1,26.9,17.8
			 M34.6,20.2c0.2-0.8,0.5-1.6,0.7-2.4c-0.4,0-0.7,0-1,0c-0.2,0-0.3,0.1-0.3,0.3c-0.2,0.8-0.5,1.5-0.7,2.3c-0.1,0.4,0,0.6,0.2,0.9
			c0.1,0.2,0.4,0.2,0.6,0.3c0,0.4-0.3,0.7-0.3,1.2c0.1,0,0.2,0,0.2,0c0.3,0,0.7,0.1,1-0.1c0.2-0.1,0.2-0.5,0.3-0.8
			c0.1-0.2,0.2-0.3,0.4-0.4c0.7-0.2,1.1-0.6,1.3-1.2c0.2-0.5,0.3-1,0.5-1.5c0.3-1,0.5-0.9-0.7-0.9c-0.2,0-0.3,0.1-0.4,0.3
			c-0.1,0.4-0.3,0.9-0.4,1.3C35.7,20.3,35.7,20.3,34.6,20.2C34.6,20.3,34.6,20.3,34.6,20.2 M20,22.7c0.3,0,0.6,0,0.9,0
			c0.2,0,0.3-0.1,0.3-0.2c0.1-0.3,0.1-0.7,0.3-0.9c0.3-0.2,0.6-0.1,1-0.1c1-0.1,1.6-0.5,1.9-1.4c0.1-0.3,0.2-0.7,0.3-1
			c0.2-0.8-0.2-1.3-1-1.3c-0.6,0-1.3,0-1.9,0c-0.3,0-0.4,0.1-0.5,0.4c-0.4,1.4-0.8,2.7-1.3,4C20,22.4,19.9,22.5,20,22.7 M28.3,22.7
			c0.3,0.1,0.7,0,1,0c0.2,0,0.3-0.1,0.4-0.3c0.1-0.2,0.2-0.5,0.2-0.7c0-0.1,0.1-0.2,0.2-0.2c0.3,0,0.6-0.1,0.9,0
			c0,0.4-0.3,0.7-0.2,1.1c0.3,0,0.6,0,0.9,0c0.2,0,0.3-0.1,0.4-0.3c0.3-1.1,0.7-2.2,1-3.4c0.2-0.7-0.2-1.2-0.9-1.2
			c-0.4,0-0.8,0-1.1,0c-0.8,0-1.3,0.4-1.6,1.1C29,20.2,28.7,21.4,28.3,22.7 M45.9,16.4c-0.7,1.9-1.2,3.9-1.9,5.8
			c-0.3,0.8-0.5,1.5-0.5,2.4c-4.4,0-8.9,0-13.3,0c-3.6,0-7.2,0-10.8,0c-0.2,0-0.5,0-0.7,0c-1.3-0.3-1.8-1.4-1.6-2.5
			c0.3-1.2,0.6-2.3,0.9-3.5c0.4-1.4,1.8-2.2,2.9-2.2C29.2,16.4,37.5,16.4,45.9,16.4"/>
		<path id="Fill-8" fill="none" d="M62.5,17.4c-0.8,0-1.6,0-2.3,0c-0.5,0-0.5,0-0.6,0.4c-0.3,1-0.6,2-0.9,3
			c-0.3,0.9-0.5,1.8-0.8,2.7c0.6,0,1.2,0,1.8,0c0.3,0,0.7,0.1,1-0.1c0.3-0.2,0.2-0.6,0.3-0.9C61.4,20.9,61.9,19.2,62.5,17.4
			 M58.3,26.5c-0.5,0-1,0-1.6,0c-1.4,0-2.5-1.2-2.1-2.9c0.4-1.3,0.8-2.6,1.2-3.9c0.2-0.7,0.4-1.5,0.7-2.2c0.6-1.7,1.7-2.7,3.5-3.2
			c0.2-0.1,0.4-0.1,0.6-0.1c1,0,2,0,3,0c1.1,0,2.2,0.8,2.2,2.2c0,0.5-0.1,1-0.3,1.4c-0.6,1.8-1.1,3.6-1.7,5.4
			C63.2,25,62,26,60.3,26.4C59.6,26.6,58.9,26.5,58.3,26.5"/>
		<path id="Fill-10" fill="none" d="M56.6,14.5c-0.3,0.9-0.6,1.8-0.8,2.7c-0.1,0.2-0.2,0.2-0.4,0.2c-1.2,0-2.5,0-3.7,0
			c-0.4,0-0.8,0-1.2,0c-0.4,0-0.4,0-0.6,0.4c-0.4,1.3-0.8,2.6-1.2,4c-0.2,0.6-0.4,1.1-0.6,1.8c1,0,1.9,0,2.8,0
			c0.2,0,0.2-0.1,0.3-0.2c0.1-0.4,0.3-0.8,0.4-1.3c-0.5-0.1-1,0-1.5-0.1c0.2-0.7,0.4-1.3,0.6-2c0.1-0.3,0.1-0.7,0.3-0.9
			c0.3-0.2,0.6-0.1,1-0.1c0.9,0,1.8,0,2.8,0c0.2,0,0.3-0.1,0.5,0.1c-0.1,0.4-0.2,0.8-0.4,1.2c-0.3,1.1-0.6,2.2-1,3.2
			c-0.5,1.4-1.4,2.5-2.9,2.9c-0.3,0.1-0.6,0.1-0.9,0.1c-0.9,0-1.9-0.1-2.8,0c-1.7,0.1-2.8-1.3-2.3-3.1c0.6-1.9,1.2-3.7,1.8-5.6
			c0.4-1.2,1.1-2.1,2.2-2.8c0.5-0.3,1.1-0.5,1.8-0.5c1.8,0,3.7,0,5.5,0C56.4,14.4,56.5,14.4,56.6,14.5"/>
		<path id="Fill-12" fill="#FFFFFF" d="M62.5,17.4c-0.6,1.8-1.1,3.5-1.6,5.2c-0.1,0.3-0.1,0.7-0.3,0.9c-0.3,0.2-0.6,0.1-1,0.1
			c-0.6,0-1.1,0-1.8,0c0.3-0.9,0.6-1.8,0.8-2.7c0.3-1,0.6-2,0.9-3c0.1-0.4,0.1-0.4,0.6-0.4C60.9,17.4,61.7,17.4,62.5,17.4"/>
		<path id="Fill-14" fill="#FFFFFF" d="M30.3,20.3c0-0.1,0-0.2,0-0.2c0.2-1,0.3-1.1,1.5-0.9c0,0.1,0,0.1-0.1,0.2
			C31.4,20.3,31.4,20.3,30.3,20.3"/>
		<path id="Fill-16" fill="#FFFFFF" d="M22,20.3c-0.1-0.2,0-0.3,0-0.3c0.3-1,0.3-1,1.4-0.9c-0.1,0.3-0.2,0.6-0.3,0.9
			c0,0.2-0.1,0.3-0.3,0.3C22.5,20.3,22.3,20.3,22,20.3"/>
	</g>
</g>
</svg>
