<svg xmlns="http://www.w3.org/2000/svg" width="406" height="249" fill="none" viewBox="0 0 406 249"><g fill="white"><path d="M389.899 13.1165C382.793 9.37471 374.781 9.67708 372.059 13.759L347.946 49.816C352.217 48.153 358.34 48.7577 364.085 51.7435C369.829 54.7672 373.382 59.2271 373.76 63.309L397.874 27.252C400.595 23.1701 397.042 16.8204 389.937 13.1165"/><path d="M396.929 2.64707C389.824 -1.13248 381.811 -0.83012 379.052 3.2518L374.63 9.90382C378.901 8.24082 385.023 8.80775 390.768 11.7936C396.513 14.8172 400.066 19.2771 400.444 23.3968L404.866 16.7448C407.625 12.6629 404.072 6.35104 396.929 2.60928M353.275 50.4207C349.76 50.4207 346.85 51.5545 345.338 53.7089L338.044 64.6318C337.439 65.5389 337.136 66.5972 337.136 67.6554H370.85L371.19 67.2019C373.912 63.0822 370.359 56.7703 363.253 53.0286C360.18 51.3822 356.761 50.4884 353.275 50.4207ZM266.61 192.759V192.797L211.202 176.015L217.514 193.023L323.757 248.545L317.445 231.537L266.61 192.759ZM278.742 169.326L264.758 190.226L266.988 190.945L274.169 196.425L292.311 169.326H278.742ZM319.524 232.142L325.836 248.999L335.285 234.901C330.598 226.435 319.524 232.142 319.524 232.142ZM228.928 178.019C224.355 169.703 213.583 174.995 213.205 175.222L227.87 179.568L228.928 177.981"/><path d="M0.340077 192.797C-0.226856 195.971 0.944807 197.408 4.08184 197.408C7.21887 197.408 8.88188 195.971 9.44881 192.759L10.9606 184.066H7.25667L6.87871 186.258H8.23935L7.10548 192.759C6.80312 194.271 5.82043 195.14 4.45979 195.14C3.13695 195.14 2.45663 194.233 2.7212 192.759L5.36689 177.489C5.70705 175.751 6.91651 175.146 8.01258 175.146C9.33542 175.146 10.0157 176.053 9.75117 177.489L9.29763 180.173H11.6787L12.1323 177.527C12.6992 174.352 11.5276 172.954 8.35274 172.954C5.21571 172.954 3.5905 174.352 3.02356 177.489L0.340077 192.759M31.1057 189.471L35.9435 173.71L35.2632 189.471H31.1057ZM34.923 196.992H37.3419L37.7199 188.904L37.9845 173.37H34.0915L28.8757 188.979L26.3812 196.992H28.7623L30.4254 191.701H35.1498L34.8852 196.992M69.0902 196.992L73.2477 173.37H70.7154L62.7406 192.381L61.3799 173.37H58.8476L54.6901 196.992H56.9578L59.9815 179.984L61.2287 196.992H62.7028L69.8839 179.833L66.8603 196.992H69.128M93.1282 173.37L88.9707 196.992H91.3518L95.5093 173.37H93.1282ZM122.08 196.992L126.237 173.37L124.121 173.407L121.097 190.604L119.661 173.37H117.128L112.971 196.992H115.201L118.149 180.173L119.547 196.992H122.08ZM143.359 192.797C142.792 195.971 143.963 197.408 147.138 197.408C150.275 197.408 151.938 195.971 152.467 192.797L154.017 184.104H150.275L149.897 186.296H151.258L150.124 192.797C149.859 194.308 148.839 195.178 147.478 195.178C146.155 195.178 145.475 194.271 145.74 192.797L148.423 177.527C148.725 175.789 149.935 175.184 150.993 175.184C152.392 175.184 153.072 176.091 152.807 177.527L152.316 180.211H154.697L155.189 177.565C155.718 174.39 154.584 172.992 151.409 172.992C148.272 172.992 146.609 174.39 146.042 177.527L143.396 192.797"/><path d="M35.9813 114.9C37.4931 114.9 38.8537 114.635 40.1388 114.031C41.386 113.426 42.4821 112.632 43.3892 111.649C45.7034 108.901 47.0219 105.452 47.131 101.86C47.131 99.177 46.375 97.2116 44.8632 95.9265C43.0844 94.5857 40.8891 93.9163 38.6647 94.0368H37.7576L34.5072 114.824L35.9813 114.9ZM39.9876 160.179L32.882 125.105L32.5419 125.331L31.8615 131.53C31.6348 133.571 31.3702 135.65 30.9922 137.728L27.515 160.179H4.68652L17.7638 75.9327H39.7608C44.1451 75.9327 48.227 76.3106 51.931 76.9532C55.6728 77.6335 58.8854 78.7673 61.5689 80.3548C64.2146 81.9422 66.3311 84.1343 67.8051 86.8934C69.317 89.6525 70.0729 93.1297 70.0729 97.4006C70.0729 98.421 69.9973 99.4793 69.8839 100.575L69.5059 103.977C68.801 108.557 67.0555 112.914 64.4035 116.714C61.7578 120.494 57.9783 123.291 53.1782 125.105L64.6681 160.179H39.9876ZM123.289 139.845C125.935 139.845 128.127 139.089 129.941 137.653C131.788 136.177 133.329 134.353 134.477 132.286C135.648 130.169 136.593 127.902 137.273 125.483C138.649 120.624 139.361 115.602 139.39 110.553C139.39 108.777 139.277 107.076 139.012 105.451C138.747 103.788 138.256 102.352 137.538 101.067C136.858 99.8195 135.875 98.799 134.628 98.0431C133.418 97.2872 131.869 96.9092 130.017 96.9092L123.289 139.845ZM110.439 75.9705H128.769C134.439 75.9705 139.39 76.6886 143.623 78.2004C147.571 79.452 151.175 81.6016 154.152 84.4805C157.129 87.3594 159.399 90.8891 160.782 94.7927C162.218 98.7612 162.974 103.221 162.974 108.21C162.942 111.4 162.677 114.583 162.181 117.735C161.412 123.442 159.927 129.03 157.759 134.365C156.049 138.534 153.759 142.44 150.955 145.968C146.506 151.553 140.492 155.685 133.683 157.836C130.735 158.781 127.824 159.423 124.99 159.725C122.155 160.028 119.585 160.179 117.28 160.179H97.3991L110.476 75.9327"/><path d="M192.191 114.9C193.702 114.9 195.063 114.635 196.348 114.031C197.595 113.426 198.691 112.632 199.636 111.65C201.964 108.909 203.284 105.455 203.378 101.86C203.378 99.177 202.622 97.2116 201.11 95.9265C199.321 94.5771 197.111 93.9073 194.874 94.0368H194.005L190.754 114.824L192.191 114.9ZM196.235 160.179L189.053 125.105L188.751 125.332L188.071 131.53C187.844 133.571 187.542 135.65 187.164 137.728L183.724 160.179H160.934L174.011 75.9327H196.008C200.392 75.9327 204.436 76.3107 208.178 76.9532C211.882 77.6335 215.095 78.7674 217.778 80.3548C220.462 81.9422 222.54 84.1343 224.052 86.8934C225.526 89.6525 226.282 93.1297 226.282 97.4006C226.282 98.4211 226.207 99.4793 226.093 100.575L225.715 103.977C225.009 108.557 223.264 112.914 220.613 116.714C217.967 120.494 214.263 123.291 209.388 125.105L220.915 160.179H196.235ZM344.582 75.9705L320.129 116.563L333.659 160.141H309.168L301.004 121.476H300.891L294.843 160.141H272.128L285.205 75.8949H307.996L302.365 111.801H302.478L320.62 75.9327H344.582M349.496 75.9705H391.827L388.803 95.8132H369.263L367.373 107.53H384.91L381.773 127.448H364.236L362.233 140.299H381.735L378.712 160.179H336.381L349.458 75.9327"/><path d="M103.9 95.8131L106.924 75.9327H64.5925L64.2901 77.7469C67.1248 79.6366 69.4303 82.0934 71.0933 85.117C72.8697 88.4052 73.739 92.5249 73.739 97.4006C73.739 98.5344 73.7012 99.7439 73.5878 100.953L73.2099 104.431C72.421 109.607 70.4556 114.533 67.4649 118.831C64.9793 122.376 61.6381 125.237 57.7515 127.146L68.5988 160.179H93.8462L96.8699 140.299H77.3296L79.3327 127.448H96.8699L100.007 107.568H82.4698L84.3595 95.8509H103.9"/><path d="M237.734 131.454L243.895 111.914C244.726 109.306 245.52 106.66 246.238 103.977L248.506 96.0399H248.695L248.279 103.977L247.901 111.914L247.372 131.454H237.734ZM270.805 160.179L266.005 75.9327H238.225L229.986 96.7958V97.4006C229.986 98.5344 229.948 99.7439 229.797 100.953L229.419 104.431C228.629 109.606 226.664 114.532 223.674 118.831C222.465 120.607 221.028 122.194 219.365 123.593L215.812 132.664L224.846 160.179H228.398L231.951 149.332H247.258V160.179H270.805Z"/></g></svg>
