<?xml version="1.0" encoding="utf-8"?>
<!-- Generator: Adobe Illustrator 23.0.0, SVG Export Plug-In . SVG Version: 6.00 Build 0)  -->
<svg version="1.1" id="Ebene_1" xmlns="http://www.w3.org/2000/svg" xmlns:xlink="http://www.w3.org/1999/xlink" x="0px" y="0px"
	 viewBox="0 0 552 175" style="enable-background:new 0 0 552 175;" xml:space="preserve">
<style type="text/css">
	.st0{fill:#FFFFFF;}
</style>
<g>
	<path class="st0" d="M55.5,1c3.6,0.6,7.2,1.1,10.7,2c11.7,2.7,18.1,9.2,19.4,21.1c0.7,6,0.2,12.3-1.2,18.2
		C82.7,50.2,79.2,52.9,67,59c7.6,13,15.2,26,23.4,40.1c-7.9,0-14.5,0.2-21-0.2c-1.3-0.1-2.8-2.1-3.7-3.6c-6-10.4-11.6-21-17.7-31.3
		c-0.9-1.6-3.4-3-5.3-3.1c-6.6-0.4-13.3-0.1-20.6-0.1c0,9.7,0,19,0,28.2c0,10.2,0,10.2-9.9,10.2c-10.6,0-10.7,0-10.6-10.4
		c0-27.2,0-54.3,0.1-81.5c0-2.1,0.6-4.2,0.8-6.3C20.2,1,37.8,1,55.5,1z M22.5,43.1c1.1,0.1,1.9,0.3,2.7,0.3
		c9.3-0.1,18.6-0.2,27.9-0.4c2,0,4-0.5,5.8-1.2c4.8-1.7,6.8-5.3,6.6-11.5c-0.1-5-1.9-9.6-7.1-10.1c-11.9-1.1-24-1.3-36-1.9
		C22.5,27.4,22.5,35.2,22.5,43.1z"/>
	<path class="st0" d="M196.5,1c0.3,5.1,0.7,10.2,0.6,15.3c0,0.7-2.7,1.9-4.2,2c-8.5,0.2-17,0.1-25.5,0.1c-2.3,0-4.7,0.1-7,0.3
		c-13,1.3-19.4,8.4-19.7,22.4c1.8,0,3.6,0,5.3,0c15.5,0,31,0.1,46.5,0c3.7,0,4.9,1,4.9,4.8c0,12.3,0.1,12.3-12.3,12.3
		c-13,0-26,0-39,0c-1.8,0-3.6,0-5.3,0c-1.7,14.4,5.7,23.5,19.3,23.9c10.8,0.3,21.6,0.2,32.5,0c3.3,0,4.7,0.9,4.8,4.5
		c0.3,12.6,0.4,12.6-12.1,12.6c-10,0-20,0.2-30-0.3c-19.4-0.9-33.2-12.8-36.8-31.8c-2.2-11.7-2-23.5,0.8-35.2
		c4.3-18,16.3-28.2,34.8-30c1.8-0.2,3.6-0.6,5.3-0.9C171.8,1,184.2,1,196.5,1z"/>
	<path class="st0" d="M384.5,1c5.7,12.9,11.4,25.9,16.9,38.8c7.6,17.7,15.1,35.5,22.6,53.3c0.7,1.6,1.2,3.3,2,5.9
		c-7.4,0-14,0.2-20.5-0.2c-1.1-0.1-2.4-2.1-3-3.5c-2.2-5.2-4.2-10.5-6-15.9c-0.9-2.5-2-3.7-5-3.6c-11.8,0.2-23.7,0-35.5,0.2
		c-1.6,0-3.9,1.6-4.5,3.1c-2.3,5-4.2,10.2-5.8,15.4c-1.1,3.7-3.2,4.9-6.9,4.7c-5.1-0.3-10.2-0.1-16.3-0.1c0.9-2.5,1.3-4.1,2-5.7
		C337,64.2,349.5,35,362,5.8c0.7-1.7,1.7-3.2,2.5-4.8C371.2,1,377.8,1,384.5,1z M373.5,20.9c-5,13.3-9.5,25.1-14.1,37.2
		c9.9,0,19,0,28.8,0C383.3,45.8,378.7,34.1,373.5,20.9z"/>
	<path class="st0" d="M250.5,1c0.3,2.1,1,4.2,1,6.3c0,19.2-0.4,38.3-0.2,57.5c0.1,12.2,5.9,17.7,18.3,18.1c9,0.3,18,0.1,27.4,0.1
		c0,5.4,0,10.4,0,15.8c-1,0.2-2.1,0.5-3.2,0.5c-10.7-0.1-21.3,0.2-32-0.4c-18.3-1-30.4-12.5-31-30.8c-0.7-21-0.1-42,0.1-63
		c0-1.3,1-2.7,1.5-4C238.5,1,244.5,1,250.5,1z"/>
	<path class="st0" d="M465.5,1c6.9,2.9,11.8,7.3,11.5,15.5c-0.3,6.9-5.7,12.6-12.5,13.4c-6.9,0.8-13.4-3.3-15.5-9.8
		c-2.2-6.7,0.8-13.9,7.2-17.3c1.1-0.6,2.2-1.2,3.4-1.8C461.5,1,463.5,1,465.5,1z"/>
	<path class="st0" d="M540.5,1c1.1,0.6,2.3,1.2,3.4,1.8c6.1,3.1,9.1,9.6,7.6,16.2c-1.5,6.4-7.4,11.1-14.1,11
		c-6.5-0.1-12.4-4.7-13.8-10.8c-1.5-6.7,1.4-13.2,7.5-16.3c1.1-0.6,2.3-1.2,3.4-1.8C536.5,1,538.5,1,540.5,1z"/>
	<path class="st0" d="M498.9,64.7c-8.1-0.4-14-7.2-13.6-15.5c0.4-7.8,7.1-13.7,15.2-13.3c7.8,0.4,13.8,7.2,13.4,15.1
		C513.4,58.9,506.6,65.1,498.9,64.7z"/>
	<path class="st0" d="M462.5,71.1c7.8-0.1,14.4,6.2,14.6,14.1c0.2,8-6.4,14.7-14.5,14.7c-7.9,0-14.2-6.3-14.2-14.3
		C448.3,77.6,454.6,71.2,462.5,71.1z"/>
	<path class="st0" d="M523.3,85.7c-0.1-8,6.1-14.4,14-14.6c8-0.2,14.7,6.4,14.6,14.5c0,7.9-6.4,14.3-14.3,14.3
		C529.7,100,523.4,93.7,523.3,85.7z"/>
	<path class="st0" d="M242,147.3c-2.1,6.7-4.1,13.5-6.2,20.2c-0.4,1.4-0.7,2.9-1.3,4.3c-0.5,1.1-1.5,2-2.3,3c-0.9-1-2.3-1.8-2.7-3
		c-2.1-6.6-4-13.4-6-20.1c-0.4-1.5-1-2.9-2.5-4.3c-1.2,7.8-2.2,15.6-3.6,23.4c-0.3,1.5-1.9,2.8-2.9,4.2c-0.4-1.6-1.4-3.2-1.2-4.7
		c1.3-8.9,2.7-17.8,4.5-26.6c0.3-1.8,2.2-3.2,3.4-4.8c1.3,1.5,3.2,2.8,3.8,4.5c2.4,7.2,4.4,14.6,7.4,22c1.9-6.4,3.8-12.8,5.6-19.2
		c0.4-1.4,0.6-3,1.4-4.3c0.8-1.2,2.2-2.9,3.3-2.9c1.2,0,3,1.7,3.2,3c1.9,9.6,3.5,19.3,4.9,29c0.2,1.1-1.1,2.3-1.8,3.5
		c-0.8-1-2.3-1.9-2.4-3c-1.3-8-2.4-16.1-3.5-24.2C242.8,147.5,242.4,147.4,242,147.3z"/>
	<path class="st0" d="M417.5,147.5c0,8.2,0.1,15.1-0.1,22c-0.1,1.8-1.4,3.5-2.1,5.2c-0.7-1.7-1.9-3.3-1.9-5c-0.2-9-0.1-18,0-27
		c0-1.2,0.8-2.4,1.2-3.5c1.2,0.7,2.8,1.1,3.5,2.1c5.7,7.9,11.3,16,18,23.9c0-3.5,0-7.1,0-10.6c0-3.3-0.2-6.7,0.1-10
		c0.2-1.8,1.4-3.6,2.1-5.4c0.7,1.8,2,3.5,2.1,5.3c0.2,8.3,0.2,16.6,0,25c0,1.8-1,3.5-1.6,5.2c-1.5-1.2-3.2-2.2-4.3-3.6
		c-4.6-6.3-9-12.8-13.5-19.2C420.2,150.7,419.2,149.7,417.5,147.5z"/>
	<path class="st0" d="M544.2,158.6c-2-0.1-3.7,0-5.2-0.3c-0.9-0.2-1.6-1.2-2.3-1.9c0.8-0.7,1.5-1.8,2.4-1.9c2.3-0.3,4.7-0.4,7,0.1
		c1.1,0.2,2.5,1.7,2.7,2.9c1.4,6.4-2.5,14.1-8,16.3c-7.1,2.9-15,0.6-19-5.5c-4.5-6.9-4.1-17.3,0.8-23.5c4-5.1,11.1-6.9,18.2-4.5
		c0.9,0.3,2.1,0.5,2.7,1.2c1.1,1.4,1.8,3,2.7,4.6c-1.6-0.3-3.4-0.1-4.8-0.9c-8.2-4.6-16.2-1.3-17.6,8c-0.5,3.5-0.2,7.4,0.9,10.8
		c1.8,5.8,6.7,8.3,12.1,7C542.2,169.3,544.7,165.5,544.2,158.6z"/>
	<path class="st0" d="M27.7,158.6c-2-0.1-3.8,0-5.5-0.4c-0.8-0.2-1.5-1.1-2.2-1.6c0.7-0.8,1.5-2.1,2.2-2.2c8.9-0.4,11.7-1.2,9.6,9
		c-1.3,6.6-4.9,10.1-11.1,11.2c-6.5,1.1-12.1-1.2-15.5-6.5c-4.4-6.8-4-17.3,0.8-23.5c4.1-5.1,11-6.9,18.1-4.5
		c1.4,0.5,2.9,1.1,3.9,2.1c0.9,0.9,1.1,2.4,1.5,3.6c-1.3,0-2.9,0.4-3.9-0.2c-7.7-4.1-13.1-3.4-16.5,2.1c-4.2,6.7-2.8,17.4,2.8,21.5
		c3.7,2.7,7.6,2.4,11.3,0.2C27.3,167.1,28.5,163.4,27.7,158.6z"/>
	<path class="st0" d="M108.6,174.8c0-1.4-0.4-3,0.1-4.3c3.4-9.4,6.9-18.7,10.4-28c0.2-0.5,0.3-0.9,0.6-1.4c1.8-2.9,4.3-3,5.6,0.1
		c4,10,7.7,20.1,11.5,30.3c0.3,0.8-0.4,2-0.6,3c-1.1-0.5-2.5-0.7-3.1-1.6c-1.4-1.8-2.2-5.5-3.7-5.7c-4.5-0.8-9.3-0.5-13.9,0
		c-1,0.1-1.8,2.8-2.7,4.3c-0.7,1.2-1.5,2.3-2.2,3.5C109.8,175,109.2,174.9,108.6,174.8z M129.2,162.9c-2.2-6-4.2-11.7-6.7-18.8
		c-2.5,7.1-4.5,12.7-6.7,18.8C120.5,162.9,124.5,162.9,129.2,162.9z"/>
	<path class="st0" d="M329.4,156.8c0-4.8-0.1-9.6,0.1-14.4c0.1-1.1,1.4-2.1,2.1-3.2c0.6,1,1.8,2,1.9,3c0.1,9.8,0.2,19.6,0,29.3
		c0,1.1-1.4,2.1-2.2,3.2c-0.6-1.2-1.8-2.3-1.8-3.5C329.3,166.4,329.4,161.6,329.4,156.8z"/>
</g>
</svg>
