<?xml version="1.0" encoding="utf-8"?>
<!-- Generator: Adobe Illustrator 23.0.0, SVG Export Plug-In . SVG Version: 6.00 Build 0)  -->
<svg version="1.1" id="Ebene_1" xmlns="http://www.w3.org/2000/svg" xmlns:xlink="http://www.w3.org/1999/xlink" x="0px" y="0px"
	 viewBox="0 0 782.2 224.5" style="enable-background:new 0 0 782.2 224.5;" xml:space="preserve">
<style type="text/css">
	.st0{fill:#FFFFFF;}
</style>
<title>thunderkick_color</title>
<g id="Layer_2">
	<g id="Layer_1-2">
		<g>
			<path class="st0" d="M276.2,87.4l-45.9,1.4c-1.6,0.1-2.9,1.4-2.9,3.1c0,0,0,0.1,0,0.1l0.8,12.5c0.1,1.6,1.4,2.8,3,2.8l12.5-0.2
				l2.8,58.8c0,0.8,0.4,1.5,1,2.1c0.6,0.5,1.4,0.8,2.2,0.7l14.2-0.9l0,0c1.5-0.2,2.7-1.5,2.6-3.1l-1.6-57.9l12.4-0.2
				c1.6,0,2.9-1.4,2.9-3c0-0.1,0-0.1,0-0.2l-0.9-13.3C279,88.6,277.7,87.4,276.2,87.4z M329.7,91.2l-13.8-0.8c-1.6,0-2.9,1.2-3,2.8
				l-0.2,30.7l-6,1.3l-1.5-34.8c-0.1-1.6-1.4-2.8-2.9-2.8l-13.7,0.3c-0.8,0-1.6,0.3-2.1,0.9c-0.6,0.6-0.9,1.3-0.9,2.1l2.6,77.3
				c0,1.6,1.3,2.9,2.9,2.9l13.7-0.3c1.6,0,2.9-1.3,3-2.9c0,0,0-0.1,0-0.1l-1.5-25.9l5.4,0.4l0.9,23.2c-0.1,0.8,0.2,1.6,0.8,2.2
				c0.6,0.6,1.3,0.9,2.1,0.9l14.3,1h0.2c1.5-0.1,2.8-1.3,2.8-2.8V94.3c0-0.8-0.3-1.6-0.8-2.1C331.3,91.6,330.5,91.2,329.7,91.2
				L329.7,91.2z M381.2,84.7l-12.6,1c-1.5,0.2-2.6,1.4-2.6,2.9c0,0,0,48.3,0,54.6c0,3.7,0.4,10-3.7,10.2c-2.8,0-3.8-4-3.9-9.9
				c0-6.6,0.5-51.5,0.5-52c0-1.5-1.1-2.8-2.6-3L341.7,87c-1.6-0.2-3.1,1-3.2,2.6c0,0.1,0,0.2,0,0.4c0,0,0.5,56.7,0.6,58.7
				c0.3,11.4,9.7,20.4,21,20.1c0.2,0,0.5,0,0.7,0c17.9-0.5,21.1-11.1,22.2-23.4c0.5-5.2,1.3-52.4,1.4-57.6c0-1.6-1.3-3-3-3
				C381.3,84.7,381.2,84.7,381.2,84.7z M436.7,87.8l-13,0.6l0,0c-1.6,0.1-2.9,1.5-2.8,3.1c0,0,0,0,0,0.1l2.2,36.4l-13.6-37.5
				c-0.5-1.3-1.7-2-3.1-1.9l-13.1,1.5c-1.5,0.2-2.6,1.5-2.6,3l2.2,71.6c0,1.5,1.1,2.7,2.6,2.9l13.2,1c1.6,0.1,3-1.1,3.1-2.7
				c0-0.1,0-0.3,0-0.4l-2.1-31.2l11.4,32.5c0.4,1.1,1.4,1.9,2.6,1.9h14.2c1.6,0,2.9-1.4,2.9-3c0-0.1,0-0.2,0-0.2l-0.8-74.7
				c0-0.8-0.4-1.6-0.9-2.1C438.4,88,437.5,87.7,436.7,87.8L436.7,87.8z M454.3,86.3h-2.8c-1.6,0-2.8,1.3-2.9,2.8l-2.4,74.3
				c-0.1,1.5,1.1,2.8,2.6,3c0,0,1.7,0.1,4.3,0.1l0,0c9.2,0,31.2-1.7,36.4-17.2c4.2-13,3.6-30.5,2.6-38.9
				C490,94.2,477.6,86.3,454.3,86.3L454.3,86.3z M473.9,135.3c-1.6,12.6-5.5,13.3-9.8,14.8l2-46.7c2.4,0.3,4.5,1.6,5.8,3.6
				C475.5,111.7,475.5,123,473.9,135.3L473.9,135.3z M535.2,153.5l-17.2,1.4l-0.8-16.1l11.2-0.6c1.4-0.1,2.6-1.2,2.7-2.6l1-9.9
				c0.1-0.9-0.2-1.7-0.8-2.3c-0.6-0.6-1.4-1-2.3-0.9l-12.1,0.6v-17.5h17.9c1.6,0,2.9-1.3,3-2.9c0,0,0-0.1,0-0.1c0-0.2,0-0.4,0-0.7
				l-1-10.4c-0.2-1.5-1.5-2.6-3-2.6L501,89.8c-1.6,0-2.9,1.4-2.9,3l1,73.5c0,1.6,1.3,2.9,2.9,2.9h33.1c1.6,0,2.9-1.3,2.9-2.9
				l0.3-9.6c0-0.8-0.3-1.6-0.9-2.2C536.9,153.8,536.1,153.4,535.2,153.5L535.2,153.5z M588.7,110.4c-0.7-10.4-4.3-24-26.8-24
				c-5.6,0.1-11.3,0.7-16.8,1.9c-1.4,0.3-2.4,1.5-2.4,2.9l1,71.9c0,1.5,1.1,2.7,2.6,2.9l10.4,0.8c0.8,0.1,1.6-0.2,2.2-0.8
				c0.6-0.6,0.9-1.3,0.9-2.2v-23.2l5.2-0.3l5.8,24.8c0.3,1.4,1.5,2.4,2.9,2.4h0.2l10.4-0.8c0.8-0.1,1.6-0.5,2.1-1.1
				c0.5-0.7,0.7-1.5,0.6-2.3l-7.3-27.6C585,131.7,589.7,124.6,588.7,110.4L588.7,110.4z M570.1,120.5c-2.8,2.4-6.4,3.8-10.1,3.9
				v-21.2c0.9-0.2,1.9-0.3,2.8-0.3c3.9,0,8.8,1.8,9.4,10.2C572.6,115.8,571.8,118.5,570.1,120.5L570.1,120.5z M628.1,131.4
				c9.8-11.5,14.8-26.3,13.9-41.4c-0.1-1.6-1.5-2.9-3.1-2.8c0,0,0,0,0,0L626.6,88c-1.6,0.1-2.8,1.5-2.7,3.1
				c0.4,6.5-3.9,20.2-10,28.9l0.9-28c0-1.6-1.2-3-2.9-3c0,0-0.1,0-0.1,0L596,89.2c-1.6,0-2.9,1.3-2.9,2.9c0,0,0,0,0,0.1l1.6,74.4
				c0,1.6,1.4,2.9,3,2.9c0.1,0,0.2,0,0.3,0l12.3-1.6c1.5-0.2,2.6-1.4,2.6-2.9l0.2-21.8c2.6,1.5,9.8,12.1,11.1,22.6
				c0.2,1.5,1.4,2.6,2.9,2.6h13h0.2c1.6-0.1,2.8-1.4,2.7-3C642.9,162.7,638.5,139.8,628.1,131.4z M664.8,85.6l-14,1.8
				c-1.5,0.2-2.6,1.4-2.6,2.9v72.9c0,1.6,1.3,2.9,2.9,2.9c0,0,0.1,0,0.1,0l0,0l15.3-1.1c1.5-0.2,2.6-1.5,2.6-3l-1.1-73.6
				c0-0.8-0.4-1.6-1-2.2C666.4,85.7,665.6,85.5,664.8,85.6L664.8,85.6z M694.7,87.7c-4.3,0.3-18.2,2.8-19.4,23.4
				c-0.2,2.6-0.3,5.1-0.4,7.5c-0.9,14-1.5,24.1,0.3,32.8c1.1,5.2,5.5,17.4,22.8,17.4c1.1,0,2.2,0,3.3-0.2c7.2-0.6,12.6-2.9,15.9-6.9
				c4.8-5.6,4.1-13,3.8-16.8v-0.8c-0.2-1.5-1.5-2.7-3.1-2.6l-10.9,0.5c-1.6,0.1-2.9,1.5-2.8,3.1c0,0.1,0,0.2,0,0.3
				c0.5,2.9,0,5.9-1.4,8.4c-0.9,1-2.1,1.5-3.4,1.4h-0.2c-1.4,0.1-2.7-0.5-3.7-1.5c-1.6-1.7-3.4-5.8-2.9-15.8c0-2.3,0.2-5,0.3-7.8
				c0.3-7.5,0.6-16,1.3-21.4v-0.2c0.5-4.1,1.3-5.8,4.7-5.9c1.8-0.3,3.7,0.2,5,1.5c0.8,1.3,1.1,2.9,0.9,4.5c-0.3,1.6,0.7,3.1,2.3,3.5
				c0.2,0,0.4,0.1,0.6,0.1l13.2,0.2c1.6,0,2.9-1.2,3-2.8c0-5.4-2.1-10.7-5.8-14.7C712.9,89.5,705,87,694.7,87.7L694.7,87.7z
				 M782.2,162.3c-0.2-0.9-5.9-23.2-17.4-33.8c5.7-5.2,17.2-15.9,13.3-39.8c-0.3-1.5-1.7-2.6-3.2-2.5l-15.2,1.7
				c-0.8,0.1-1.5,0.5-2,1.1c-0.5,0.6-0.7,1.4-0.5,2.2c0,0.2,3.1,17.6-8.6,28l0.3-29.5c0-1.6-1.3-2.9-2.9-3c-0.1,0-0.2,0-0.4,0
				l-15.2,1.7c-1.5,0.2-2.6,1.5-2.6,3l1.8,74c0,0.8,0.4,1.6,1,2.2c0.6,0.5,1.3,0.8,2,0.7h0.2l12.9-1.4c1.4-0.2,2.5-1.3,2.6-2.8
				l1.1-23.1c4.1,4.2,10.9,15,12,24c0.2,1.6,1.6,2.8,3.2,2.6c0,0,0,0,0,0l15.2-1.7c0.8-0.1,1.6-0.5,2.1-1.2
				C782.2,164,782.4,163.1,782.2,162.3L782.2,162.3z"/>
			<path class="st0" d="M197.4,153.6l6.8-48.1l-28.8-60.3L156,51.9l-25.5-27.4L85.3,0l-9.9,36.5l-7-19.1L33.9,51.1L14.5,85
				l-0.9,35.1L0,113.6l9.3,56.2L30.4,206L80.2,223l40.8,1.5l70.3-25.7l20.2-50L197.4,153.6z M167,127l-39.9,1l-1.4,44.9l-2.2,26.6
				L88.8,199v-25.5L86,129.1l-41.7,1.8l-1.4-43.1l61.4-0.4l63.5-1.8l1.1,5.7L167,127z"/>
		</g>
	</g>
</g>
</svg>
