<?xml version="1.0" encoding="utf-8"?>
<!-- Generator: Adobe Illustrator 23.0.0, SVG Export Plug-In . SVG Version: 6.00 Build 0)  -->
<svg version="1.1" id="Ebene_1" xmlns="http://www.w3.org/2000/svg" xmlns:xlink="http://www.w3.org/1999/xlink" x="0px" y="0px"
	 viewBox="0 0 237 26" style="enable-background:new 0 0 237 26;" xml:space="preserve">
<style type="text/css">
	.st0{fill:#FFFFFF;}
</style>
<g>
	<g>
		<path class="st0" d="M24,25.6L0.4,2.4C-0.5,1.5,0.2,0,1.4,0H25c0.8,0,1.4,0.6,1.4,1.4v23.2C26.4,25.8,24.9,26.5,24,25.6z"/>
		<path class="st0" d="M29.2,24.6V1.4c0-0.8,0.6-1.4,1.4-1.4h23.6c1.3,0,1.9,1.5,1,2.4L31.7,25.6C30.8,26.5,29.2,25.8,29.2,24.6"/>
		<path class="st0" d="M58.1,24.6V1.4c0-0.8,0.6-1.4,1.4-1.4h23.6c1.3,0,1.9,1.5,1,2.4L60.5,25.6C59.6,26.5,58.1,25.8,58.1,24.6"/>
		<path class="st0" d="M116.8,0v16l-5.7-11.3h-3.3l-5.7,11.5V0H97v26h5.1l7.3-14.2l7.4,14.2h5V0H116.8z"/>
		<path class="st0" d="M136.1,7.5l3,9.2h-6L136.1,7.5z M133.5,0l-9.2,26h5.7l1.6-4.9h8.8l1.6,4.9h5.7l-9.2-26H133.5z"/>
		<path class="st0" d="M148.9,0v4.5h10.7l-10.7,18V26h17.8v-4.4h-11l10.6-18.1V0H148.9z"/>
		<path class="st0" d="M184.4,14.7v-3.4c0-4.5-1.2-6.8-4.8-6.8h-4v17.1h4C183.1,21.6,184.4,19.2,184.4,14.7z M170.2,26V0h9.4
			c6,0,10.1,3,10.1,11.3v3.4c0,8.3-4.2,11.3-10.1,11.3H170.2z"/>
		<path class="st0" d="M202.3,7.5l3,9.2h-6L202.3,7.5z M199.8,0l-9.2,26h5.7l1.6-4.9h8.8l1.6,4.9h5.7l-9.2-26H199.8z"/>
		<path class="st0" d="M231.4,0v16.3L221,0h-4.4v26h5.1V9.9L232,26h4.5V0H231.4z"/>
	</g>
</g>
</svg>
