<svg width="250" height="32" viewBox="0 0 250 32" fill="none" xmlns="http://www.w3.org/2000/svg">
<path d="M16 32C24.8366 32 32 24.8366 32 16C32 7.16344 24.8366 0 16 0C7.16344 0 0 7.16344 0 16C0 24.8366 7.16344 32 16 32Z" fill="#EDEDED"/>
<path d="M13.1097 8.63968C13.1097 8.63968 9.97222 8.63968 10.0535 8.63968C10.1349 8.63968 5.27075 13.4225 5.27075 13.4225L9.97535 18.6088H13.1503L8.40506 13.5038L13.1097 8.63968Z" fill="black"/>
<path d="M8.40509 13.5038L13.1879 8.63968C13.1879 8.63968 9.97225 8.63968 10.0504 8.63968" fill="black"/>
<path d="M17.051 8.63968C17.051 8.63968 13.9136 8.63968 13.9949 8.63968C14.0762 8.63968 9.20898 13.4225 9.20898 13.4225L13.9136 18.6088H17.0886L12.3464 13.5038L17.051 8.63968Z" fill="black"/>
<path d="M12.3464 13.5038L17.1292 8.63968C17.1292 8.63968 13.9136 8.63968 13.9918 8.63968" fill="black"/>
<path d="M18.8903 23.3603C18.8903 23.3603 22.0278 23.3603 21.9464 23.3603C21.8651 23.3603 26.7292 18.5775 26.7292 18.5775L22.0246 13.3912H18.8497L23.5949 18.4962L18.8903 23.3603Z" fill="black"/>
<path d="M23.5949 18.4962L18.8121 23.3603C18.8121 23.3603 22.0278 23.3603 21.9496 23.3603" fill="black"/>
<path d="M14.9521 23.3603C14.9521 23.3603 18.0895 23.3603 18.0082 23.3603C17.9269 23.3603 22.791 18.5775 22.791 18.5775L18.0864 13.3912H14.9114L19.6567 18.4962L14.9521 23.3603Z" fill="black"/>
<path d="M19.6536 18.4962L14.8708 23.3603C14.8708 23.3603 18.0864 23.3603 18.0082 23.3603" fill="black"/>
<path d="M36.1477 9.86364H38.7273L42.1818 18.2955H42.3182L45.7727 9.86364H48.3523V21.5H46.3295V13.5057H46.2216L43.0057 21.4659H41.4943L38.2784 13.4886H38.1705V21.5H36.1477V9.86364ZM52.142 21.5H49.892L53.9886 9.86364H56.5909L60.6932 21.5H58.4432L55.3352 12.25H55.2443L52.142 21.5ZM52.2159 16.9375H58.3523V18.6307H52.2159V16.9375ZM63.9872 9.86364L66.5497 14.125H66.6406L69.2145 9.86364H71.6179L68.0327 15.6818L71.6747 21.5H69.2315L66.6406 17.267H66.5497L63.9588 21.5H61.527L65.2031 15.6818L61.5724 9.86364H63.9872ZM80.6463 13.5795C80.5516 13.2727 80.4209 12.9981 80.2543 12.7557C80.0914 12.5095 79.8944 12.2992 79.6634 12.125C79.4361 11.9508 79.1747 11.8201 78.8793 11.733C78.5838 11.642 78.2618 11.5966 77.9134 11.5966C77.2884 11.5966 76.7315 11.7538 76.2429 12.0682C75.7543 12.3826 75.3698 12.8447 75.0895 13.4545C74.813 14.0606 74.6747 14.7992 74.6747 15.6705C74.6747 16.5492 74.813 17.2936 75.0895 17.9034C75.366 18.5133 75.7505 18.9773 76.2429 19.2955C76.7353 19.6098 77.3073 19.767 77.9588 19.767C78.5497 19.767 79.0611 19.6534 79.4929 19.4261C79.9285 19.1989 80.2637 18.8769 80.4986 18.4602C80.7334 18.0398 80.8509 17.5473 80.8509 16.983L81.3281 17.0568H78.169V15.4091H82.8906V16.8068C82.8906 17.803 82.6785 18.6648 82.2543 19.392C81.83 20.1193 81.2467 20.6799 80.5043 21.0739C79.7618 21.464 78.9096 21.6591 77.9474 21.6591C76.8755 21.6591 75.9342 21.4186 75.1236 20.9375C74.3168 20.4527 73.6861 19.7652 73.2315 18.875C72.7808 17.9811 72.5554 16.9205 72.5554 15.6932C72.5554 14.7538 72.688 13.9148 72.9531 13.1761C73.2221 12.4375 73.5971 11.8106 74.0781 11.2955C74.5592 10.7765 75.1236 10.3826 75.7713 10.1136C76.419 9.84091 77.1236 9.70455 77.8849 9.70455C78.5289 9.70455 79.1293 9.79924 79.6861 9.98864C80.2429 10.1742 80.7372 10.4394 81.169 10.7841C81.6046 11.1288 81.9626 11.5379 82.2429 12.0114C82.5232 12.4848 82.7069 13.0076 82.794 13.5795H80.6463ZM86.0639 21.5H83.8139L87.9105 9.86364H90.5128L94.6151 21.5H92.3651L89.2571 12.25H89.1662L86.0639 21.5ZM86.1378 16.9375H92.2741V18.6307H86.1378V16.9375ZM98.2557 9.86364V21.5H96.1477V9.86364H98.2557ZM110.101 9.86364V21.5H108.226L102.743 13.5739H102.646V21.5H100.538V9.86364H102.425L107.902 17.7955H108.004V9.86364H110.101ZM116.159 21.5H112.932V9.86364H116.409C117.5 9.86364 118.434 10.0947 119.21 10.5568C119.987 11.0189 120.581 11.6818 120.994 12.5455C121.411 13.4053 121.617 14.4375 121.614 15.642C121.61 16.8731 121.394 17.9261 120.966 18.8011C120.538 19.6723 119.919 20.3409 119.108 20.8068C118.297 21.2689 117.314 21.5 116.159 21.5ZM113.642 20.8409H116.131C117.169 20.8409 118.044 20.6345 118.756 20.2216C119.468 19.8049 120.006 19.2083 120.369 18.4318C120.737 17.6553 120.919 16.7254 120.915 15.642C120.915 14.5739 120.739 13.6591 120.386 12.8977C120.034 12.1326 119.521 11.5455 118.847 11.1364C118.176 10.7273 117.354 10.5227 116.381 10.5227H113.642V20.8409ZM124.385 21.5V9.86364H130.862V10.5227H125.095V15.3466H130.516V16.0057H125.095V20.8409H130.999V21.5H124.385ZM133.358 9.86364L137.176 20.5852H137.256L141.074 9.86364H141.824L137.625 21.5H136.807L132.608 9.86364H133.358ZM143.994 21.5V9.86364H150.472V10.5227H144.705V15.3466H150.125V16.0057H144.705V20.8409H150.608V21.5H143.994ZM153.416 21.5V9.86364H154.126V20.8409H159.808V21.5H153.416ZM171.219 15.6818C171.219 16.8826 171.01 17.9318 170.594 18.8295C170.177 19.7235 169.598 20.4186 168.855 20.9148C168.116 21.411 167.264 21.6591 166.298 21.6591C165.329 21.6591 164.473 21.411 163.73 20.9148C162.991 20.4148 162.414 19.7178 161.997 18.8239C161.58 17.9261 161.372 16.8788 161.372 15.6818C161.372 14.4811 161.58 13.4337 161.997 12.5398C162.418 11.6458 162.997 10.9508 163.736 10.4545C164.474 9.95455 165.329 9.70455 166.298 9.70455C167.264 9.70455 168.116 9.95265 168.855 10.4489C169.598 10.9451 170.177 11.642 170.594 12.5398C171.01 13.4337 171.219 14.4811 171.219 15.6818ZM170.526 15.6818C170.526 14.6023 170.344 13.6667 169.98 12.875C169.62 12.0833 169.122 11.4716 168.486 11.0398C167.849 10.6042 167.12 10.3864 166.298 10.3864C165.476 10.3864 164.747 10.6023 164.111 11.0341C163.474 11.4621 162.974 12.0739 162.611 12.8693C162.251 13.661 162.071 14.5985 162.071 15.6818C162.071 16.7538 162.249 17.6875 162.605 18.483C162.965 19.2746 163.463 19.8883 164.099 20.3239C164.736 20.7595 165.469 20.9773 166.298 20.9773C167.12 20.9773 167.849 20.7614 168.486 20.3295C169.122 19.8939 169.62 19.2803 169.98 18.4886C170.344 17.697 170.526 16.7614 170.526 15.6818ZM173.994 21.5V9.86364H177.58C178.318 9.86364 178.951 10.0152 179.477 10.3182C180.008 10.6212 180.415 11.036 180.699 11.5625C180.983 12.089 181.125 12.6894 181.125 13.3636C181.125 14.0303 180.983 14.6269 180.699 15.1534C180.415 15.6799 180.008 16.0966 179.477 16.4034C178.951 16.7064 178.32 16.858 177.585 16.858H174.494V16.1989H177.568C178.167 16.1989 178.678 16.0777 179.102 15.8352C179.527 15.589 179.852 15.2538 180.08 14.8295C180.307 14.4015 180.42 13.9129 180.42 13.3636C180.42 12.8106 180.307 12.3201 180.08 11.892C179.852 11.464 179.525 11.1288 179.097 10.8864C178.672 10.6439 178.161 10.5227 177.562 10.5227H174.705V21.5H173.994ZM183.854 9.86364H184.626L189.109 20.4773H189.189L193.672 9.86364H194.445V21.5H193.763V11.5511H193.695L189.484 21.5H188.814L184.604 11.5511H184.536V21.5H183.854V9.86364ZM197.807 21.5V9.86364H204.284V10.5227H198.517V15.3466H203.938V16.0057H198.517V20.8409H204.42V21.5H197.807ZM216.121 9.86364V21.5H215.428L208.007 11.1534H207.939V21.5H207.229V9.86364H207.928L215.348 20.2216H215.416V9.86364H216.121ZM218.706 10.5227V9.86364H226.859V10.5227H223.138V21.5H222.428V10.5227H218.706Z" fill="#EDEDED"/>
</svg>
