  <svg
    viewBox="0 0 100 100"
    fill="none"
    xmlns="http://www.w3.org/2000/svg"
  >
    <path
      d="M50 100C77.6142 100 100 77.6142 100 50C100 22.3858 77.6142 0 50 0C22.3858 0 0 22.3858 0 50C0 77.6142 22.3858 100 50 100Z"
      fill="white"></path>
    <path
      d="M40.9677 26.999C40.9677 26.999 31.1632 26.999 31.4173 26.999C31.6715 26.999 16.4711 41.9453 16.4711 41.9453L31.1729 58.1525H41.0947L26.2658 42.1994L40.9677 26.999Z"
      fill="black"></path>
    <path
      d="M26.2659 42.1995L41.2122 26.9991C41.2122 26.9991 31.1633 26.9991 31.4077 26.9991"
      fill="black"></path>
    <path
      d="M53.2844 26.9991C53.2844 26.9991 43.4799 26.9991 43.7341 26.9991C43.9882 26.9991 28.7781 41.9453 28.7781 41.9453L43.4799 58.1526H53.4017L38.5826 42.1995L53.2844 26.9991Z"
      fill="black"></path>
    <path
      d="M38.5826 42.1995L53.5289 26.9991C53.5289 26.9991 43.48 26.9991 43.7244 26.9991"
      fill="black"></path>
    <path
      d="M59.0323 73.001C59.0323 73.001 68.8368 73.001 68.5826 73.001C68.3285 73.001 83.5289 58.0548 83.5289 58.0548L68.827 41.8476H58.9052L73.7342 57.8006L59.0323 73.001Z"
      fill="black"></path>
    <path
      d="M73.7341 57.8007L58.7879 73.0011C58.7879 73.0011 68.8368 73.0011 68.5924 73.0011"
      fill="black"></path>
    <path
      d="M46.7253 73.001C46.7253 73.001 56.5298 73.001 56.2757 73.001C56.0215 73.001 71.2219 58.0548 71.2219 58.0548L56.5201 41.8476H46.5983L61.4272 57.8006L46.7253 73.001Z"
      fill="black"></path>
    <path
      d="M61.4174 57.8007L46.4712 73.0011C46.4712 73.0011 56.5201 73.0011 56.2757 73.0011"
      fill="black"></path>
  </svg>