<?xml version="1.0" encoding="utf-8"?>
<!-- Generator: Adobe Illustrator 23.0.0, SVG Export Plug-In . SVG Version: 6.00 Build 0)  -->
<svg version="1.1" id="Ebene_1" xmlns="http://www.w3.org/2000/svg" xmlns:xlink="http://www.w3.org/1999/xlink" x="0px" y="0px"
	 viewBox="0 0 567.3 189.8" style="enable-background:new 0 0 567.3 189.8;" xml:space="preserve">
<style type="text/css">
	.st0{fill:#FFFFFF;}
</style>
<path class="st0" d="M284.8,134.7c-2.5-1.9-4.2-2.6-6.8-2.6c-4.9,0-6.9,3.9-6.9,8.4v20.7H256v-43.3h15.1v6.8c2-3.5,6-6.8,11-6.8
	c3.7,0,7.1,1,10.1,4L284.8,134.7z M316.5,161.2c-12,0-23-6.4-23-22c0-13.7,9.1-21.3,20.7-21.3c13,0,21.9,9.2,21.9,24.2h-28.8
	c0.5,4.8,3.4,8.6,9.2,8.6c6.4,0,10.2-1.4,13.7-4.4l6.3,8C330.3,159.5,323.9,161.2,316.5,161.2z M313.9,127.4c-4.2,0-5.8,3-6.5,6.9
	h13.5C320.5,130.1,317.9,127.4,313.9,127.4z M397.5,161.2v-21.7c0-5.7-0.9-8.9-5.5-8.9c-4.8,0-6.4,3.5-6.4,8.4v22.2h-15.1v-21.7
	c0-5.7-0.9-8.9-5.5-8.9c-4.8,0-6.4,3.5-6.4,8.4v22.2h-15.1v-43.3h15.1v5.6c2.8-4.1,6.7-5.6,11.6-5.6c6.7,0,10.5,2.7,12.9,6.9
	c3-3.8,7.1-6.9,14.2-6.9c11.3,0,15.5,7.9,15.5,18v25.3H397.5z M441.3,161.2c-12.1,0-22.2-9.2-22.2-21.7c0-12.2,10.3-21.6,22.1-21.6
	c12,0,22.2,9.1,22.2,21.5C463.3,151.6,453.1,161.2,441.3,161.2z M441.2,129.6c-5,0-7.7,5.3-7.7,9.9c0,4.8,2.7,10,7.8,10
	c5.2,0,7.7-5.3,7.7-10.1C449,134.9,446.5,129.6,441.2,129.6z M524.8,161.1c-12,0-23-6.4-23-22c0-13.7,9.1-21.3,20.7-21.3
	c13,0,21.9,9.2,21.9,24.2h-28.8c0.5,4.8,3.4,8.6,9.2,8.6c6.4,0,10.2-1.4,13.7-4.4l6.3,8C538.6,159.3,532.2,161.1,524.8,161.1z
	 M522.2,127.2c-4.2,0-5.8,3-6.5,6.9h13.5C528.8,129.9,526.1,127.2,522.2,127.2z M492.5,148.6c-3,0-4.7-2.3-4.7-5.4v-12.6v-2.2h6.8
	v-10.5h-6.8v-15.8h-15v15.8h-5.7v10.5h5.7v2.2v15.4c0,8.8,5.5,15.3,14,15.3h9.4v-12.6H492.5z M284,87.7v-5.6
	c-2.7,3.7-7.1,5.6-12.1,5.6c-11.3,0-15.9-7.9-15.9-18V44.4h15.1v21.7c0,5.7,1.4,8.9,6,8.9c4.4,0,6.9-3.2,6.9-8.4V44.4h15.1v43.3H284
	z M336,87.7V65.9c0-5.7-1.4-8.9-6-8.9c-4.4,0-6.9,3.2-6.9,8.4v22.2H308V44.4h15.1v5.6c2.7-3.7,7.1-5.6,12.1-5.6
	c11.3,0,15.9,7.9,15.9,18v25.3H336z M360,39.6V28.6h14.9v11.1H360z M360,87.7V44.4h14.9v43.3H360z M438.2,87.7c-12,0-23-6.4-23-22
	c0-13.7,9.1-21.3,20.7-21.3c13,0,21.9,9.2,21.9,24.2H429c0.5,4.8,3.4,8.6,9.2,8.6c6.4,0,10.2-1.4,13.7-4.4l6.3,8
	C452.1,86,445.7,87.7,438.2,87.7z M435.7,53.9c-4.2,0-5.8,3-6.5,6.9h13.5C442.2,56.5,439.6,53.9,435.7,53.9z M495.2,87.7v-5.4
	c-2.3,3.3-7.5,5.4-12.4,5.4c-11.5,0-19.3-10.1-19.3-21.7c0-11.3,7.7-21.8,19.3-21.8c5,0,10.1,2.1,12.4,5.4V28.6H510v59.1L495.2,87.7
	L495.2,87.7z M486.7,56.3c-4.9,0-8.4,3.8-8.4,9.4s3.5,9.8,8.4,9.8c5.2,0,8.5-4.1,8.5-9.8C495.2,60.2,491.7,56.3,486.7,56.3z
	 M404.9,75.1c-3,0-4.7-2.3-4.7-5.4V57.1v-2.2h6.8V44.4h-6.8V28.6h-15v15.8h-5.7v10.5h5.7v2.2v15.3c0,8.8,5.5,15.3,14,15.3h9.4V75.1
	L404.9,75.1L404.9,75.1z"/>
<g>
	<path class="st0" d="M14.2,94.5v54.4c52.5,0,95.2-42.7,95.2-95.2H55C55,76.2,36.6,94.5,14.2,94.5z M172,62.9v-9.2h-54.4v95.2H172
		c0-22.5,18.3-40.8,40.8-40.8V53.7C198.3,53.7,184.4,57,172,62.9z"/>
</g>
</svg>
