<?xml version="1.0" encoding="utf-8"?>
<!-- Generator: Adobe Illustrator 23.0.0, SVG Export Plug-In . SVG Version: 6.00 Build 0)  -->
<svg version="1.1" id="Layer_1" xmlns="http://www.w3.org/2000/svg" xmlns:xlink="http://www.w3.org/1999/xlink" x="0px" y="0px"
	 viewBox="0 0 469.3 120.6" style="enable-background:new 0 0 469.3 120.6;" xml:space="preserve">
<style type="text/css">
	.st0{fill:#FFFFFF;}
</style>
<g>
	<g>
		<g>
			<path class="st0" d="M185.2,34.4v33h-10.9v-33h-11.4v-9h33.6v9C196.6,34.4,185.2,34.4,185.2,34.4z"/>
			<path class="st0" d="M264.1,25.5c10.2,0,17.2,4.8,17.2,14.3c0,6.1-3.1,10.1-7.8,12.1l8.6,15.6h-11.3L264,53.6h-4.7v13.8h-10.6
				v-42H264.1z M259.2,34.4v10.7h5.4c3.3,0,5.7-1.5,5.7-5.4c0-3.7-2.5-5.3-5.8-5.3L259.2,34.4L259.2,34.4z"/>
			<path class="st0" d="M325,68l-21.8-18.9l-3.4-2.8v21.2h-10.6V24.9h0.5l21.7,18.9c1.2,0.9,2.3,2,3.5,2.9V25.5h10.6V68H325z"/>
			<path class="st0" d="M351.1,24.9h0.5l21.2,42.6h-11.3l-3-6.4h-14.3l-3,6.4h-11.3L351.1,24.9z M355.4,53.8c-1.5-3.3-3.2-7.5-4-10
				c-0.6,1.4-2.9,7.3-4.1,10H355.4z"/>
			<path class="st0" d="M377.3,67.4v-42h14.3c14.9,0,24.1,8.9,24.1,21c0,12.2-9.2,21-24.1,21L377.3,67.4L377.3,67.4z M388.1,34.4v24
				h3.4c8.6,0,13.3-5.5,13.3-12s-4.6-12-13.3-12L388.1,34.4L388.1,34.4z"/>
			<path class="st0" d="M443.5,24.8c13,0,22.4,9.6,22.4,21.6c0,12.1-9.3,21.6-22.4,21.6c-13,0-22.4-9.5-22.4-21.6
				C421.1,34.5,430.4,24.8,443.5,24.8z M443.5,58.4c6.9,0,11.5-5.5,11.5-12c0-6.4-4.6-12-11.5-12s-11.5,5.5-11.5,12
				C431.9,52.9,436.6,58.4,443.5,58.4z"/>
			<path class="st0" d="M220.3,24.8c13,0,22.4,9.6,22.4,21.6c0,12.1-9.3,21.6-22.4,21.6c-13,0-22.4-9.5-22.4-21.6
				C197.9,34.5,207.3,24.8,220.3,24.8z M220.3,58.4c6.9,0,11.5-5.5,11.5-12c0-6.4-4.6-12-11.5-12c-6.9,0-11.6,5.5-11.6,12
				C208.7,52.9,213.4,58.4,220.3,58.4z"/>
		</g>
		<g>
			<path class="st0" d="M209.5,119.3c-5.4,0-9.2-3.8-9.2-8.9c0-5,3.9-8.9,9.3-8.9c2.6,0,4.5,0.8,5.3,1.2v2.8
				c-1.1-0.6-2.9-1.2-5.2-1.2c-3.9,0-6.3,2.7-6.3,6.1c0,3.5,2.5,6.1,6.2,6.1c1,0,2.2-0.2,2.9-0.5v-4.9h2.9v6.7
				C213.8,118.7,211.6,119.3,209.5,119.3z"/>
			<path class="st0" d="M261.8,101.6h0.1l8.2,17.4h-3.2l-1.5-3.4h-7.1l-1.5,3.4h-3.2L261.8,101.6z M264.4,113.3
				c-1-2.2-1.8-4.1-2.5-6.1c-0.8,1.8-1.6,4-2.6,6.1H264.4z"/>
			<path class="st0" d="M312.8,109.1l-0.7-0.7v10.5h-2.9v-17.4h0l8.1,8.8l8.1-8.8h0v17.4h-2.9v-10.5l-0.7,0.7
				c-1.5,1.7-3,3.4-4.5,5.1L312.8,109.1z"/>
			<path class="st0" d="M366.8,118.9v-17.1h10.9v2.5h-7.9v4.7h6.7v2.4h-6.7v4.9h8.3v2.5L366.8,118.9L366.8,118.9z"/>
			<path class="st0" d="M417.2,118.3v-2.9c1.2,0.6,2.9,1.2,4.6,1.2c0.6,0,1.2-0.1,1.7-0.2c1.2-0.3,2-0.9,2-1.8c0-1.4-1-2.1-3.6-3
				c-3.2-1.1-4.9-2.4-4.9-5.2c0-3,2.5-4.8,6-4.8c1.7,0,3.4,0.4,4.4,0.8v2.8c-1-0.6-2.6-1-4.2-1c-2,0-3.3,0.8-3.3,2.1
				c0,1.2,0.9,2,3.6,3c3.2,1.2,4.9,2.5,4.9,5.2c0,3-2.3,4.8-6.2,4.8C420.3,119.3,418.4,118.8,417.2,118.3z"/>
		</g>
	</g>
	<g>
		<polygon class="st0" points="37,73.2 70.4,65.2 78,46.1 28,55 		"/>
		<polygon class="st0" points="46.4,81.4 52.5,93.3 69,89 76.8,72.7 		"/>
		<polygon class="st0" points="48.1,105.1 54.6,119.3 62,99.2 		"/>
		<polygon class="st0" points="104.9,-1.4 -3.5,35 4.9,48.3 104.6,32 		"/>
	</g>
</g>
</svg>
