<?xml version="1.0" encoding="utf-8"?>
<!-- Generator: Adobe Illustrator 18.1.1, SVG Export Plug-In . SVG Version: 6.00 Build 0)  -->
<svg version="1.1" id="Ebene_1" xmlns="http://www.w3.org/2000/svg" xmlns:xlink="http://www.w3.org/1999/xlink" x="0px" y="0px"
	 viewBox="290 -70 600 181" enable-background="new 290 -70 600 181" xml:space="preserve">
<g id="Layer_x0020_1">
	<g id="_359559956816">
		<path fill="#FFFFFF" d="M365.5,12.9h-40.4L319,32.1c-2,4-3,8.1-3,10.1c0,2,1,4,2,5.1c2,1,5.1,2,10.1,3v3h-32.4v-3c4-1,7.1-2,8.1-4
			c3-3,6.1-8.1,9.1-17.2L348.3-70h3l35.4,100.1c2,8.1,5.1,13.1,7.1,16.2c3,2,6.1,3,10.1,4v3h-40.4v-3c4-1,7.1-1,8.1-3c2-1,2-3,2-5.1
			c0-2-1-6.1-3-12.1L365.5,12.9z M362.5,6.8l-17.2-48.5L328.1,6.8H362.5z"/>
		<path fill="#FFFFFF" d="M452.5-37.6l24.3,66.7L500-37.6h25.3v3c-3,0-5.1,1-6.1,1c-2,1-3,2-4,4c-1,1-1,3-1,5.1s0,5.1,0,7.1v50.6
			c0,2,0,4,0,6.1s0,4,1,5.1c1,2,2,3,3,4c2,1,4,1,7.1,1v4h-35.4v-4c3,0,5.1,0,6.1-1c1-1,2-3,3-4c1-2,1-4,1-6.1s0-5.1,0-7.1v-55.6l0,0
			l-26.3,77.9h-3l-25.3-73.8h-1v54.6c0,4,0,6.1,1,8.1c0,2,1,4,2,5.1s2,1,4,2c2,0,4,0,6.1,0v4h-29.3v-4c3,0,5.1,0,7.1-1c1-1,2-2,3-3
			c1-2,1-3,1-5.1s0-3,0-5.1v-48.5c0-3,0-6.1,0-9.1s0-5.1-1-7.1c-1-1-2-3-3-4c-2,0-4-1-7.1-1v-3H452.5z M552.6,53.4v-4c1,0,2,0,3,0
			s2-1,3-2s2-3,3-5.1c1-2,3-5.1,4-9.1L591-40.7h2l28.3,78.9c1,3,2,5.1,3,6.1c1,2,2,3,3,4c1,0,2,1,3,1s2,0,3,0v4h-31.3v-4
			c0,0,1,0,2,0c0,0,1,0,2,0c1-1,1-1,2-2c0,0,1-1,1-2s0-3-1-4c0-1-1-3-1-4l-5.1-12.1h-27.3l-4,12.1c0,1-1,2-1,3s0,2,0,3c0,1,0,2,1,3
			c0,1,1,2,2,2c0,0,1,1,2,1s1,0,2,0v4H552.6z M576.9,19h23.3L588-14.4L576.9,19z M713.4-37.6l1,21.2h-3c0-3-1-6.1-1-8.1
			c-1-2-2-3-3-5.1c-2-1-3-1-4-2c-2,0-4,0-5.1,0h-12.1v65.7c0,2,0,4,1,6.1c0,2,0,4,1,5.1s2,2,4,3c1,1,3,1,6.1,1v4h-37.4v-4
			c3,0,5.1,0,7.1-1c1-1,2-2,3-3s1-3,1-5.1c1-2,1-4,1-6.1v-65.7h-11.1c-3,0-5.1,0-7.1,1c-2,0-3,1-4,3c-1,1-2,3-2,5.1c-1,2-1,4-1,6.1
			h-3l1-21.2H713.4z M781.1,53.4h-36.4v-4c3,0,5.1,0,6.1-1c2,0,3-1,3-3c1-1,2-2,2-4c0-2,0-4,0-7.1v-53.6c0-2,0-3,0-5.1s0-4-1-5.1
			c-1-2-2-3-3-4c-2,0-4-1-7.1-1v-3h36.4v3c-3,0-5.1,1-7.1,1c-1,1-2,2-3,4c-1,1-1,3-1,5.1s0,3,0,5.1v53.6c0,3,0,5.1,0,7.1
			c0,2,1,3,1,4c1,2,2,3,4,3c1,1,3,1,6.1,1V53.4z M887.3-8.3h-3c0-1-1-2-1-4c0-1-1-2-2-4c0-1-1-2-2-4c0-1-1-2-2-4c-2-1-3-3-5.1-4
			c-2-1-3-3-5.1-3c-2-1-4-2-6.1-3c-2,0-4,0-6.1,0c-3,0-7.1,1-10.1,3s-6.1,4-8.1,8.1c-3,4-5.1,8.1-6.1,13.1s-2,11.1-2,17.2
			s1,11.1,2,16.2c0,4,2,8.1,3,11.1c2,3,3,5.1,5.1,7.1c2,2,4,4,6.1,5.1s4,2,6.1,2c2,1,4,1,6.1,1c3,0,6.1,0,9.1-2c3-1,7.1-3,10.1-6.1
			c1-1,2-3,3-4s1-2,2-3c1-2,2-3,2-4c1-2,1-3,2-5.1l3,2c-1,1-1,3-2,4c-1,2-2,4-3,6.1c-1,2-2,4-4,6.1c-2,3-4,4-6.1,6.1
			c-3,2-6.1,3-9.1,4c-3,2-6.1,2-10.1,2c-6.1,0-10.1-1-15.2-3c-5.1-3-9.1-6.1-13.1-10.1c-3-4-6.1-9.1-9.1-14.2c-2-6.1-3-12.1-3-19.2
			s1-13.1,3-19.2c2-6.1,5.1-11.1,9.1-16.2c3-4,8.1-7.1,12.1-10.1c5.1-2,10.1-4,16.2-4c4,0,7.1,1,10.1,2c2,1,4,2,6.1,3c1,0,2,1,3,1
			c1,1,2,1,2,1c1,0,1,0,1,0l1,1c0,0,0-1,1-1c0,0,1,0,1-1c1,0,1-1,1-2c1-1,1-2,1-4h3L887.3-8.3z"/>
		<path fill="#FFFFFF" d="M291.7,80.7h5.1V110h-5.1V80.7z M351.4,80.7h3l7.1,20.2l0,0c0-1,0-1,0-2c0,0,0-1,0-2c0,0,0-1,0-2
			c0-1,0-2,0-3V80.7h4V110h-4l-7.1-18.2l0,0v1c0,1,0,1,0,2c1,1,1,2,1,3c0,1,0,2,0,4v8.1h-4V80.7z M420.1,80.7h4c1,0,2,0,3,1
			c0,0,1,0,2,0c0,0,1,0,2,1c0,0,1,1,1,2c1,0,1,1,2,2c0,2,0,3,0,5.1v8.1c0,2,0,3,0,4c-1,2-1,3-2,3c0,1-1,2-1,2c-1,0-2,1-2,1
			c-1,0-2,0-2,0c-1,0-2,0-3,0h-4V80.7z M425.2,107c1,0,2,0,2,0c1,0,1-1,2-1c0-1,0-1,0-2c0-1,0-2,0-3v-9.1c0-2,0-3,0-4c0-1,0-1,0-2
			c-1,0-1-1-2-1c0,0-1,0-2,0h-1V107H425.2z M487.9,80.7h4v22.2c0,1,0,1,0,2c0,1,1,1,1,1c0,1,0,1,1,1c0,0,0,0,1,0c0,0,0,0,1,0
			c0,0,0,0,1-1c0,0,0,0,0-1c0-1,0-1,0-2V80.7h5.1v21.2c0,1-1,2-1,3c0,1,0,2-1,3c0,0,0,1-1,1c0,1-1,1-1,1c-1,0-1,1-2,1h-1
			c-1,0-1,0-2,0l-1-1c-1,0-1,0-2-1l-1-1c0-1-1-2-1-3c0-1,0-2,0-3V80.7z M554.6,104.9c0-1,0-2,0-2c0-1,1-1,1-2h3v2c0,0,0,1,0,2l1,1
			c0,1,0,1,1,1c0,0,0,0,1,0s1,0,2,0c0-1,1-1,1-2c0-1,0-1-1-2c0,0,0,0,0-1c0,0,0,0,0-1c-1,0-1-1-1-1l-5.1-6.1c-1-1-1-2-2-3
			c0-1-1-2-1-3c0-1,1-2,1-3c0-1,1-1,1-2c1-1,1-1,2-1c1-1,2-1,3-1s2,0,3,1c1,0,2,1,2,1c1,1,1,1,1,2c1,1,1,2,1,2c0,1,0,2,0,2
			c-1,1-1,1-1,2h-3v-2c0-1,0-2-1-3c0-1-1-1-2-1s-1,0-2,0c0,1,0,1,0,2c0,1,0,1,0,1c0,1,0,1,0,1v1c1,0,1,1,1,1l5.1,6.1c1,1,2,2,2,3
			c1,2,1,3,1,4c0,1,0,2-1,3c0,1,0,1-1,2c-1,0-1,1-2,1c-1,1-2,1-3,1s-2,0-3-1c-1,0-2-1-2-1c-1-1-1-1-1-2
			C554.6,105.9,554.6,104.9,554.6,104.9z M624.4,84.7h-4v-4h13.1v4h-4V110h-5.1V84.7z M686.1,80.7h5.1c1,0,1,0,2,1c1,0,1,0,2,0
			c0,0,1,0,2,1c0,0,1,0,1,1c1,1,1,1,1,2c1,1,1,2,1,4l0,0c0,3,0,4-1,6.1c-1,1-2,2-3,3l5.1,11.1h-5.1l-4-10.1h-1V110h-5.1V80.7z
			 M691.1,95.8c1,0,2,0,2,0c1,0,1,0,2-1v-1c0-1,0-2,0-3v-2c0-1,0-1,0-2v-1c-1-1-1-1-2-1c0,0-1,0-2,0l0,0V95.8L691.1,95.8z
			 M753.8,80.7h4V110h-4V80.7z M812.5,80.7h11.1v4h-6.1v9.1h5.1v3h-5.1V107h6.1v3h-11.1V80.7z M875.2,104.9c0-1,0-2,1-2c0-1,0-1,0-2
			h3v2c0,0,0,1,0,2l1,1c0,1,0,1,1,1h1c1,0,2,0,2,0c0-1,1-1,1-2c0-1,0-1,0-2c0,0-1,0-1-1c0,0,0,0,0-1c-1,0-1-1-1-1l-5.1-6.1
			c-1-1-1-2-2-3c0-1,0-2,0-3c0-1,0-2,0-3c0-1,1-1,1-2c1-1,2-1,2-1c1-1,2-1,3-1s3,0,3,1c1,0,2,1,2,1c1,1,1,1,2,2c0,1,0,2,0,2
			c0,1,0,2,0,2c0,1-1,1-1,2h-3v-2c0-1,0-2-1-3c0-1-1-1-2-1s-1,0-2,0c0,1,0,1,0,2c0,1,0,1,0,1c0,1,0,1,0,1v1c1,0,1,1,1,1l5.1,6.1
			c1,1,2,2,2,3c1,2,1,3,1,4c0,1,0,2,0,3c-1,1-1,1-2,2c0,0-1,1-2,1c-1,1-2,1-3,1s-2,0-3-1c-1,0-2-1-2-1c-1-1-1-1-1-2
			C876.2,105.9,875.2,104.9,875.2,104.9z"/>
		<polygon fill="#FFFFFF" points="290.7,64.5 889.3,64.5 889.3,68.5 290.7,68.5 		"/>
	</g>
</g>
</svg>
