<svg xmlns="http://www.w3.org/2000/svg" xml:space="preserve" viewBox="0 0 800 167.493"><g fill="#fff"><path d="m 2978.16,781.605 c -9.18,-53.902 -23.99,-106.675 -42,-158.207 -23.45,-66.41 -50.93,-133.273 -97.9,-186.875 -18.72,-20.019 -43.48,-39.093 -72.51,-36.371 -26.41,0.121 -43.29,26.711 -44.66,50.762 -5.5,62.199 14.52,122.785 34.95,180.656 25.35,65.157 56.86,128.414 97.26,185.571 16.17,21.562 35.36,43.593 62.25,51.238 18.31,6.988 39.27,-0.18 50.82,-15.637 16.89,-19.605 13.63,-47.269 11.79,-71.137 z M 2064.8,725.336 c -9.71,-60.121 -28.78,-118.231 -50.34,-174.969 -22.21,-55.918 -46.2,-112.429 -85.18,-158.98 -16.58,-19.133 -35.65,-37.91 -60.47,-45.434 -20.68,-7.996 -48.22,-1.836 -59.29,18.535 -7.17,11.145 -4.56,25.41 -3.68,37.856 6.87,38.086 18.01,75.222 28.67,112.359 25.53,85.891 44.6,175.688 91.87,252.981 18.24,30.921 45.85,58.757 82.16,66.461 18.24,4.734 37.13,-7.227 46.43,-22.571 16.47,-25.469 14.22,-57.57 9.83,-86.238 z m 2209.65,105.547 c 39.4,34.711 90.34,59.297 143.69,57.871 22.47,-0.594 47.74,-12.32 53.44,-35.953 11.08,-49.988 -13.57,-100.813 -48.51,-135.524 -72.27,-72.265 -176.16,-104.601 -276.37,-108.16 24.04,82.336 63.42,163.309 127.75,221.766 z M 5643.48,457.605 c -30.51,-31.511 -61.55,-63.964 -100.77,-84.582 -13.96,-9.48 -25.27,5.207 -35.35,12.915 0.06,17.41 0.88,35.007 6.57,51.648 39.21,128.293 79.98,256.059 119.49,384.297 8.22,27.66 16.21,58.105 7.26,86.539 -7.81,23.043 -33.22,32.457 -55.66,31.863 -49.04,-0.531 -94.65,-22.566 -136.41,-46.316 -97.09,-55.324 -180.19,-130.848 -262.46,-205.539 51.53,185.636 107.15,370.14 160.45,555.3 -18.01,-0.53 -36.66,2.37 -54,-3.55 -68.83,-23.63 -141.33,-36.25 -214.08,-38.5 -2.25,-11.67 -4.5,-23.34 -6.92,-34.95 38.07,-1.84 77.64,5.04 114.61,-6.99 19.49,-15.22 13.56,-43.12 8.42,-63.97 -48.77,-168.516 -97.62,-336.973 -146.6,-505.418 -4.98,-19.082 -9.44,-39.043 -22.11,-54.739 -52.54,-71.965 -119.94,-138.547 -205.82,-168.093 -70.37,-24.59 -151.58,20.847 -175.92,89.253 -15.64,43.54 -11.68,91.094 -5.57,136.055 16.12,82.926 55.26,161.473 112.13,224.02 47.39,50.64 116.92,90.683 188.42,76.937 11.84,-3.488 28.36,-14.035 23.32,-28.543 -8.89,-23.695 -26.58,-45.078 -24.8,-71.676 -2.04,-25.168 15.39,-50.289 40.27,-55.851 48.26,-13.981 101.82,29.379 97.73,79.601 2.89,41.879 -24.29,80.739 -60.78,99.102 -57.61,30.207 -126.33,27.363 -188.22,14.098 -191.86,-47.149 -333.71,-242.086 -324.12,-438.614 -67.23,-52.656 -139.38,-102.121 -221.58,-128 -49.07,-14.812 -109.12,-3.257 -139.03,41.164 -30.21,47.5 -19.02,106.622 -6.46,157.969 123.61,11.262 252.15,36.199 353.98,111.778 44.53,33.585 85.18,83.511 83.26,142.269 0.2,20.676 0.43,42.711 -11.3,60.715 -22.21,40.394 -69.71,57.516 -113.19,61.898 -78.73,6.871 -158.81,-15.461 -224.9,-58.109 -92.11,-58.043 -160.35,-149.613 -198.44,-250.902 -16.23,-44.602 -28.06,-91.575 -27.42,-139.309 2.13,-18.008 -14.34,-29.27 -24.34,-41.699 -24.41,-24.824 -47.51,-52.844 -79.6,-67.949 -18.79,-9.18 -45.26,-5.625 -54.73,14.875 -10.55,35.359 3.48,71.304 11.95,105.488 35.9,131.848 69.73,264.348 106.8,395.848 39.22,0.117 78.42,0 117.69,0.058 3.79,15.402 7,30.918 10.9,46.32 -37.85,0.414 -75.7,0.055 -113.55,0.239 16.89,74.215 35.78,148.075 55.62,221.585 -13.86,0.06 -27.65,0.12 -41.4,0.24 -16.47,-30.57 -33.05,-61.19 -53.54,-89.21 -45.14,-65.04 -109.65,-119.115 -187.48,-138.959 -21.21,-11.074 -41.76,4.977 -63.14,6.519 -37.37,3.672 -79.91,-10.898 -98.68,-45.429 -13.8,-28.551 -15.87,-66.992 6.82,-91.754 17.95,-22.094 50.04,-32.871 58.58,-62.012 3.78,-30.094 -9.83,-58.703 -20.26,-86.187 -26.48,-60.825 -56.44,-120.121 -87.62,-178.703 -25.33,103.718 -39.72,209.8 -65.07,313.519 -11.92,48.512 -22.35,98.797 -48.87,141.856 -66.17,-1.301 -130.98,-17.77 -196.78,-23.454 -1.72,2.61 -5.21,7.758 -6.93,10.309 -62.37,-0.062 -124.73,-0.184 -187.11,0.059 -7.4,-24.348 -13.38,-49.11 -20.72,-73.45 -10.84,27.782 -20.98,58.938 -47.75,75.641 -44.84,28.074 -102.23,23.336 -150.15,5.98 -73.98,-27.484 -134.99,-81.859 -183.68,-142.75 -71.55,-89.441 -118.4,-199.546 -127.47,-314.05 -10.72,-25.528 -30.15,-48.028 -51.95,-65.086 -18.42,-9.426 -36.95,10.84 -33.05,29.019 2.96,24.289 12.32,47.09 17.77,70.785 66.05,249.067 132.21,498.077 198.31,747.147 -102.06,-22.57 -206.13,-33.7 -310.08,-43.12 0,-10.37 0,-20.79 0.12,-31.21 21.27,-2.2 48.51,2.6 63.14,-16.95 12.86,-14.27 5.33,-34.65 2.19,-51.23 -29.25,-119.058 -64.03,-236.695 -94.65,-355.453 -1.77,-8.234 -5.45,-15.875 -10.6,-22.508 6.1,65.688 -7.17,145.117 -66.93,183.563 -59.89,37.312 -140.56,32.754 -199.26,-4.801 -48.39,-29.141 -83.75,-73.508 -120.53,-115.266 10.12,43.953 25.41,86.418 36.6,130.012 -44.78,-9.121 -90.27,-14.156 -135.4,-21.262 -56.1,-3.91 -111.48,-15.398 -167.87,-15.636 -0.29,-10.543 -0.47,-21.028 -0.65,-31.508 19.96,-1.778 42.59,-0.715 59.23,-13.805 16.82,-14.687 12.91,-39.094 8.3,-58.398 -51.6,-200.2 -103.25,-400.348 -154.96,-600.559 -9,-32.398 -15.69,-67.23 -36.43,-94.539 -15.63,-19.4805 -42.28,-17.3516 -64.56,-20.3711 -0.17,-11.8398 -0.23,-23.6875 -0.23,-35.5898 125.69,-0.1289 251.44,-0.0703 377.13,-0.0703 0.17,10.8398 0.35,21.6796 0.65,32.5195 -24.58,6.1601 -54.79,1.7226 -73.92,21.2109 -18.07,25.2228 -8.3,58.2228 -2.02,85.8788 14.04,48.762 25.53,98.274 41.94,146.309 21.79,-13.797 45.43,-25.645 71.08,-30.215 67.88,-10.828 138.66,5.637 196.17,42.949 82.69,53.137 139.49,136.531 185.87,221.348 -10.12,-51.653 -26.41,-102.11 -33.64,-154.356 -1.3,-36.672 11.96,-78.008 44.78,-98.093 30.26,-19.719 68.59,-15.93 102.83,-13.149 65.51,12.734 114.07,63.734 154.24,113.613 9.41,-24.168 18.65,-49.226 36.72,-68.589 31.81,-36.614 82.51,-49.407 129.42,-46.68 64.62,-0.473 124.45,34.058 167.15,80.672 24.94,25.351 42.23,56.687 64.45,84.238 -5.99,-35.012 -10.72,-70.793 -5.99,-106.328 6.76,-27.551 31.22,-48.274 58.58,-53.906 47.03,-10.594 98.57,-4.676 140.27,20.437 58.52,35.07 97.97,92.942 133.15,149.856 -10.84,7.644 -21.68,15.222 -32.7,22.453 -16.87,-24.172 -32.69,-49.453 -53.96,-70.129 -11.2,-11.016 -28.01,-22.93 -44.01,-14.871 -13.08,10.429 -14.69,29.09 -9.35,44.011 36.66,140.325 77.65,279.516 118.51,418.649 2.13,-0.352 6.41,-0.942 8.54,-1.242 23.86,-16.883 30.51,-47.797 39.33,-73.981 31.62,-117.515 52.78,-237.578 73.32,-357.398 8.95,-56.985 20.75,-114.028 19.67,-172.016 -0.58,-26.89 -16.29,-50.109 -32.64,-70.191 -13.63,-15.34 -29.31,-34 -51.69,-33.528 -26.25,4.149 -45.75,24.047 -68.89,35.309 -38.46,21.852 -91.52,20.02 -125.06,-10.191 -39.2,-32.289 -36,-103.7699 8.24,-130.309 29.85,-19.7891 67.52,-22.9805 102.31,-20.5508 68.75,6.75 126.38,49.9297 175.13,95.8318 80.8,81.508 144.54,177.762 204.36,275.196 66.46,108.75 129,220.632 174.43,340.046 17.78,49.457 35.06,103.598 17.6,155.665 28.79,-0.063 57.62,0.355 86.47,-0.418 -34.65,-135.286 -72.27,-269.805 -107.97,-404.79 -9.36,-37.5 -22.82,-74.812 -22.64,-113.906 -0.53,-27.594 11.02,-56.265 33.48,-73.023 31.09,-21.684 72.91,-16.887 106.13,-2.668 49.34,22.558 90.33,60.058 126.41,99.922 6.46,5.976 11.07,15.515 20.37,17.297 10.78,-34.18 24.41,-69.719 53.84,-92.286 53.25,-44.367 128.19,-42.226 192.74,-31.457 100.12,19.551 189.14,74.582 267.73,137.598 17.89,-47.031 49.87,-89.082 93.71,-114.609 54.73,-32.52 121.84,-34.004 183.09,-23.633 81.45,13.976 150.98,64.387 206.37,123.613 -9.38,-43.711 -24.94,-85.769 -35.73,-129.062 37.37,4.257 74.87,1.007 112.31,-0.235 29.08,91.68 54.67,184.5 83.22,276.375 21.86,61.891 71.08,108.094 119.45,149.969 49.48,42.234 100.06,84.523 158.46,113.965 20.37,10.125 46.8,18.656 67.81,5.805 19.85,-16.883 7.66,-43.891 2.74,-64.684 -37.27,-120.356 -74.4,-240.719 -111.66,-361.078 -7.76,-25.586 -19.42,-51.707 -14.81,-79.016 3.73,-18.953 19.85,-33.465 38.44,-37.547 35.31,-9.238 72.68,1.602 104.2,18.184 57.09,30.676 102.52,78.184 145.18,126.223 -7.93,6.277 -15.71,12.671 -23.34,19.128" transform="matrix(.13333 0 0 -.13333 0 167.493)"/><path d="m 1375.52,803.047 c -16.46,27.543 -34.23,55.203 -60.65,74.273 -69.06,52.957 -159.09,64.567 -243.44,68.657 -70.73,-0.891 -141.45,-9.539 -210.219,-25.77 -21.262,-7.285 -37.25,13.441 -54.727,21.914 80.137,35.719 165.852,57.692 252.566,69.599 79.25,5.63 164.25,4.21 234.08,-38.615 57.57,-34.539 90.57,-103.66 82.39,-170.058 z M 1253.21,707.625 C 1232.48,613.855 1172.18,535.203 1106.97,467.266 995.195,357.09 856.234,274.461 706.086,228.91 c -71.199,-20.672 -145.828,-34.289 -219.988,-26 -46.852,7.461 -96.606,23.692 -126.043,63.262 -30.387,39.383 -32.875,93.047 -20.438,139.605 18.953,70.012 58.879,133.098 107.684,186.106 0.769,-77 0.117,-154.004 0.297,-231.004 0.058,-22.805 3.32,-47.5 19.488,-64.973 19.785,-19.187 50.937,-28.133 77.059,-17.422 16.406,6.457 31.043,16.473 46.32,25 174.73,101.582 349.469,203.106 524.375,304.336 21.8,12.61 48.28,23.926 57.58,49.516 14.15,30.328 -1.31,68.234 -29.92,83.871 -79.25,43.891 -159.27,86.598 -238.227,131.082 56.981,20.375 118.467,27.07 178.707,24.344 55.14,-2.016 114.91,-20.551 148.37,-67.168 25.89,-34.711 28.61,-80.555 21.86,-121.84 z M 823.305,200.012 C 713.727,146.93 596.035,106.828 474.016,97.1211 c -42.118,-6.4609 -84.641,0.3594 -126.286,7.1679 -50.406,10.66 -101.105,33.813 -132.851,75.82 -41.348,54.602 -44.25,130.954 -20.973,193.571 2.426,-46.504 19.844,-92.766 54.61,-124.75 61.132,-58.102 148.437,-76.469 230,-81.789 141.328,-6.59 282.066,25.82 412.906,77.64 9.183,3.5 18.656,6.399 28.133,9.117 -30.207,-21.078 -63.321,-37.488 -96.25,-53.886 z m -243.797,772.14 c 19.664,2.664 35.476,-10.777 51.472,-19.781 123.915,-73.984 247.465,-148.613 371.38,-222.594 15.46,-8.414 29.14,-23.988 27.84,-42.652 1.89,-21.082 -14.45,-37.902 -32.098,-46.492 C 868.145,566.004 739.02,489.949 609.004,415.379 c -24.348,-17.234 -54.078,-2.969 -70.781,17.703 -3.438,17.238 -4.739,34.824 -4.27,52.426 -2.66,142.156 -1.242,284.308 -2.305,426.469 -3.14,28.308 18.836,58.222 47.86,60.175 z M 1505,918.848 c -43,62.191 -114.01,97.852 -184.98,118.222 -101.99,27.72 -209.26,27.01 -313.75,16.77 -95.477,-11.5 -189.594,-33.65 -280.7,-64.395 -52.062,32.165 -105.254,62.495 -157.496,94.305 -29.32,20.43 -74.156,19.36 -99.328,-7.29 -15.758,-14.57 -21.621,-36.6 -21.207,-57.45 0,-50.822 0.176,-101.651 0.059,-152.471 C 389.078,831.238 331.148,794.695 277.66,752.051 184.137,677.773 97.832,590.352 42.3281,483.492 8.09375,415.379 -12.5742,335.289 8.51172,259.949 26.9922,188.461 84.5664,133.371 149.84,102.512 255.391,52.2188 375.688,46 490.66,52.9414 c 124.391,9 246.82,38.3789 364.035,80.6096 176.755,64.801 344.795,158.383 484.165,285.91 85.29,80.73 164.48,175.742 195.88,291.184 20.02,69.359 12.5,148.433 -29.74,208.203" transform="matrix(.13333 0 0 -.13333 0 167.493)"/><path d="m 3557.87,184.551 c 31.74,14.328 69.3,11.488 100.39,-3.379 5.39,-13.801 7.7,-28.492 8.48,-43.242 -9.67,-0.059 -19.2,-0.18 -28.73,-0.352 -3.91,11.613 -4.69,25.883 -15.59,33.402 -13.32,2.79 -27.01,1.481 -40.39,1.301 -9.53,-10.84 -21.44,-26.59 -8.53,-39.98 23.45,-22.621 58.88,-25.711 84.23,-45.6604 14.11,-15.0508 18.77,-38.9218 8.34,-57.2812 -8.39,-21.03127 -32.98,-25.93752 -52.94,-28.429712 -26.72,-1.898438 -60.06,0 -76,25.000012 -5.27,12.1289 -5.51,25.5195 -6.93,38.4297 11.3,0.3594 22.69,0.6015 34.12,0.7187 -0.53,-15.3476 1.48,-30.6875 12.67,-42.1797 15.76,-1.4765 31.62,-1.1796 47.44,0.1797 11.57,11.3125 20.2,30.6211 8.3,44.7227 -23.39,20.3789 -55.85,25.1211 -80.54,43.4182 -23.83,17.66 -21.39,59.883 5.68,73.332 v 0" transform="matrix(.13333 0 0 -.13333 0 167.493)"/><path d="m 4204.84,170.621 c 27.5,28.149 72.99,28.438 107.29,13.93 17.75,-8.77 17.46,-29.442 17.58,-46.5 -9.53,-0.121 -19.01,-0.301 -28.36,-0.473 -3.56,11.672 -4.16,25.883 -14.92,33.582 -13.4,2.43 -26.96,1.301 -40.41,1.012 -5.02,-7.762 -13.56,-14.524 -13.44,-24.531 -1.19,-37.731 -0.9,-75.5121 0.76,-113.1918 14.04,-12.6211 35.14,-18.6484 52.3,-8.289 11.2,9.4804 11.86,25.1211 15.41,38.3203 9.48,-0.1797 19.01,-0.3516 28.54,-0.5313 -0.35,-18.6601 0.84,-42.3476 -18.01,-53.0703 C 4285,-2.75 4252.19,-3.03906 4224.8,8.39844 c -19.47,8.33986 -26.64,30.86326 -25.15,50.58206 1.23,37.1914 -3.56,75.0395 5.19,111.6405 v 0" transform="matrix(.13333 0 0 -.13333 0 167.493)"/><path d="m 4947.5,186.27 c 28.09,10.3 60.66,10.781 88.26,-1.489 17.78,-7.75 14.92,-31.031 18.42,-46.781 -10.14,-0.129 -20.2,-0.25 -30.22,-0.371 -4.25,11.262 -4.08,26.133 -15.44,33.109 -13.46,3.141 -27.31,1.602 -40.82,1.434 -9.24,-10.672 -18.6,-26 -8.75,-39.391 24.04,-24.64 63.73,-25.062 87.71,-49.7497 19.84,-22.2227 13.26,-63.8008 -16,-74.33989 -29.2,-11.38282 -63.9,-12.14063 -92.28,1.94919 -19.79,10.4805 -19.79,34.3594 -21.56,53.7188 10.95,0.3594 22.03,0.6015 33.1,0.7187 -0.17,-15.3476 1.86,-30.7968 13.34,-42.1797 15.7,-1.4179 31.45,-1.2382 47.27,0.1329 11.13,11.4804 21.01,30.6679 8.22,44.7695 -24.1,21.8008 -59.34,25.1211 -83.87,46.3792 -22.03,19.84 -15.45,61.242 12.62,72.09 v 0" transform="matrix(.13333 0 0 -.13333 0 167.493)"/><path d="m 5272.21,182.531 c 29.74,14.52 67.77,16.11 97.2,-0.051 15.63,-9.66 14.57,-28.558 14.63,-44.609 -9.9,0 -19.66,-0.062 -29.37,-0.121 -3.5,11.609 -7.17,23.172 -11.62,34.422 -18.01,-0.723 -42.64,6.156 -53.89,-12.391 -6.17,-31.031 -1.54,-63.1912 -3.03,-94.7029 1.14,-13.1562 -1.95,-30.7968 10.55,-39.457 14.28,-6.8008 30.25,-3.6016 45.2,-1.0625 5.19,12.9102 9.12,26.3125 12.85,39.7422 9.65,-0.0508 19.41,-0.1094 29.25,-0.1719 0.36,-18.7773 0.24,-41.7578 -18.06,-52.5976 -30.04,-15.63286 -70.08,-16.10943 -98.5,3.1406 -21.33,23.5781 -12.38,57.6289 -14.22,86.4181 1.12,27.371 -6.58,62.73 19.01,81.441 v 0" transform="matrix(.13333 0 0 -.13333 0 167.493)"/><path d="m 5440.61,185.379 c 28.55,11.312 63.26,12.562 90.8,-2.43 15.47,-9.179 15.09,-28.91 16.7,-44.597 -10.71,-0.301 -21.43,-0.543 -32.04,-0.774 -1.95,11.844 -1.95,26.762 -13.86,33.461 -18.36,3.973 -46.74,5.34 -52.66,-17.59 -1.78,-35.539 -1,-71.3709 -0.35,-106.9685 0.64,-32.4024 57.4,-35.3008 63.14,-4.2696 1.43,7.4102 2.66,14.8672 3.62,22.3282 10.6,-0.2891 21.31,-0.5274 32.03,-0.8203 -0.94,-19.2579 -2.01,-43.129 -21.25,-53.5 -26.49,-13.42974 -59.42,-12.9688 -86.49,-1.41021 -17.36,7.33981 -24.16,26.88281 -24.41,44.42191 -0.59,27.6601 -0.41,55.3205 -0.06,82.9175 0.78,18.602 5.33,41.641 24.83,49.231 v 0" transform="matrix(.13333 0 0 -.13333 0 167.493)"/><path d="m 5740.43,187.922 c 29.1,9 63.44,9.129 90.04,-7.051 9.47,-12.012 9.84,-27.891 12.56,-42.351 -10.43,-0.418 -20.78,-0.77 -31.1,-1.18 -3.43,11.789 -4.25,26.121 -15.39,33.64 -13.51,2.848 -27.38,1.418 -40.99,1.192 -8.77,-10.902 -19.61,-26.844 -7.29,-39.563 22.33,-23.648 58.52,-25.597 83.46,-45.8473 21.01,-19.3711 18.77,-57.7031 -4.63,-74.1601 -21.27,-12.031287 -46.78,-13.57035 -70.61,-11.31254 -17.28,2.30078 -36.07,8.51953 -44.94,24.75004 -3.49,12.4297 -5.09,25.3007 -7.28,37.9726 11.05,0.5274 22.2,0.9492 33.4,1.2383 1.13,-14.4492 0.41,-32.2187 14.63,-40.8711 21.5,-6.6875 58.04,-6.2187 60.54,23.2227 2.17,27.0781 -28.73,34.1289 -47.75,43.4101 -20.2,9.3673 -46.08,17.4763 -53.19,41.2263 -7.94,22.34 5.28,49.582 28.54,55.684 v 0" transform="matrix(.13333 0 0 -.13333 0 167.493)"/><path d="m 5890.59,185.73 c 27.79,10.61 59.82,11.192 87.54,0.122 19.37,-7.161 17.59,-30.922 21.73,-47.563 -11.42,-0.238 -22.79,-0.418 -34.1,-0.598 -0.49,7.579 -0.96,15.039 -1.25,22.571 -13.61,15.758 -34.94,12.91 -53.42,11.609 -8.59,-10.312 -18.61,-25 -8.24,-37.793 25.18,-28.726 73.03,-25.59 93.95,-59.5897 4.72,-13.8594 3.43,-29.6172 1.13,-43.9492 -6.93,-19.1289 -28.55,-25.16801 -46.45,-28.60941 -26.11,-3.12891 -56.32,-2.96094 -77.3,15.10941 -13.91,11.9023 -10.53,31.6328 -11.37,47.8593 10.37,0 20.73,0.0625 31.21,0.0625 2.27,-13.2695 0.55,-30.0898 12.44,-39.4023 18.83,-8.7578 39.46,-3.25 57.99,3.4414 5.16,13.4492 6.82,27.7891 0.06,41.0508 -24.71,14.0976 -51.89,23.1601 -76.35,37.6092 -29.14,14.692 -28.08,65.512 2.43,78.07 v 0" transform="matrix(.13333 0 0 -.13333 0 167.493)"/><path d="m 3866.29,189.398 c 10.12,0 20.31,0 30.51,0 0,-41.398 0,-82.859 -0.06,-124.3199 -0.43,-14.1562 2.19,-30.5 13.9,-39.9765 14.57,-5.7032 30.45,-3.211 45.61,-1.961 5.8,9.1797 13.69,18.1289 12.73,29.8008 1.02,45.4883 0,90.9686 0.38,136.4566 11.01,0 22.09,0 33.22,0 -0.35,-45.66 0.64,-91.2769 -0.35,-136.9371 -0.3,-14.9921 -4.52,-31.4023 -18.19,-39.6914 -24.53,-14.62888 -55.45,-15.05075 -82.46,-8.23044 -17.17,4.08985 -35.9,17.17974 -34.59,36.83984 -1.72,49.2813 -0.23,98.6911 -0.7,148.0191 v 0" transform="matrix(.13333 0 0 -.13333 0 167.493)"/><path d="m 4361.17,189.398 c 36.49,0 72.91,0 109.4,0 0,-4.437 -0.12,-13.269 -0.12,-17.707 -25.41,-0.113 -50.76,-0.05 -76.11,-0.05 -0.06,-20.563 -0.06,-41.063 0,-61.61 23.39,0 46.85,0 70.31,-0.062 0,-6.867 0.12,-13.7385 0.23,-20.6096 -23.51,-0.168 -47.03,-0.1094 -70.54,-0.168 -0.06,-21.8711 -0.06,-43.7695 0,-65.7031 25.99,0.0625 52.01,0.0625 78,0 -0.46,-6.9883 -0.95,-13.96877 -1.3,-20.95705 -36.61,0.34766 -73.15,0 -109.69,0.28906 -0.35,62.19919 0,124.39069 -0.18,186.57769 v 0" transform="matrix(.13333 0 0 -.13333 0 167.493)"/><path d="m 4732.07,189.398 c 35.49,0 70.96,0 106.5,0 0,-4.437 0,-13.328 0,-17.757 -24.76,0 -49.51,0 -74.21,0.05 -0.41,-19.781 -7.06,-43.293 2.42,-60.882 22.75,-1.911 45.56,-0.418 68.42,-0.84 0.11,-6.809 0.29,-13.6682 0.52,-20.5471 -24.04,-0.7735 -48.2,1.5898 -72.01,-2.0821 -2.73,-28.0585 -0.55,-56.3789 -1.37,-84.64058 -10.19,0.0625 -20.19,0.0625 -30.21,0.0625 -0.06,62.25778 -0.06,124.44928 -0.06,186.63628 v 0" transform="matrix(.13333 0 0 -.13333 0 167.493)"/><path d="m 5082.32,189.398 c 10.71,0 21.55,0 32.39,-0.058 0.6,-50.82 -2.07,-101.7502 1.83,-152.4611 4.4,-4.5586 8.77,-9.1172 13.23,-13.7383 14.74,-1.539 30.8,-3.9687 44.59,3.1407 9.84,7.2773 10.25,21.0195 11.44,32.1093 0.88,43.6484 -0.06,87.3594 0.29,131.0074 10.73,0 21.55,0 32.46,0 -0.72,-49.636 1.35,-99.2691 -1.01,-148.8472 0.23,-20.8399 -20.49,-32.87111 -38.32,-37.01955 -26.19,-5.39063 -55.57,-4.91016 -78.97,9.23825 -13.84,8.1797 -18.12,24.8789 -17.77,39.9219 -0.59,45.5586 0.08,91.1676 -0.16,136.7066 v 0" transform="matrix(.13333 0 0 -.13333 0 167.493)"/><path d="m 5578.55,189.398 c 35.67,0 71.31,0 107.04,0 0,-4.437 -0.06,-13.328 -0.12,-17.707 -25.47,-0.171 -51,0.239 -76.41,-0.472 -0.7,-20.199 -0.47,-40.391 -0.47,-60.598 24.4,-0.832 48.81,-0.473 73.27,-1 -0.41,-6.812 -0.65,-13.6327 -0.94,-20.4921 -24.04,0.1211 -48.17,0.1602 -72.15,-0.0703 -0.29,-21.7383 -0.29,-43.5273 0.06,-65.3203 26.83,-0.3594 53.73,-0.0664 80.6,-0.418 -0.23,-6.8789 -0.41,-13.67967 -0.58,-20.49999 -36.66,-0.23047 -73.26,0 -109.94,-0.23047 -0.88,62.24996 -0.18,124.57016 -0.36,186.80816 v 0" transform="matrix(.13333 0 0 -.13333 0 167.493)"/><path d="m 3743.14,172.109 c -7.1,-8.769 -15.41,-17.89 -15.41,-29.968 -2.48,-35.313 -2.24,-71.0199 2.91,-106.1527 4.5,-4.1992 9.07,-8.457 13.56,-12.7266 16.54,-1.4804 37.32,-5.332 50.18,7.9375 11.91,21.1406 6.26,46.5508 7.63,69.6528 -1.17,21.976 4.69,47.796 -10.78,66.039 -13.91,9.597 -32.34,4.558 -48.09,5.218 z m 2.13,20.2 c 24.34,3.55 50.59,0.531 72.15,-11.911 15.28,-11.726 15.33,-33.117 16.99,-50.648 0.12,-33.3906 2.8,-67.3984 -4.55,-100.2695 -7.46,-20.37894 -31.46,-26.53909 -50.82,-28.492219 -24.7,-1.296875 -53.08,-0.589843 -72.87,16.113319 -12.67,19.25 -10.12,43.6484 -10.41,65.5703 0.76,24.9881 -1.72,50.2261 1.78,75.0391 4.02,22.277 27.95,31.461 47.73,34.598 v 0" transform="matrix(.13333 0 0 -.13333 0 167.493)"/><path d="m 4068.93,171.34 c -0.2,-21.09 -1.8,-42.36 1.11,-63.32 21.91,-4.68 43.65,2.539 63.79,10.718 0.96,13.153 5.99,27.434 -0.24,39.922 -15.68,19.379 -43.18,11.668 -64.66,12.68 z m -33.6,18.058 c 34.71,-0.886 69.59,1.903 104.2,-1.66 29.14,-5.148 34.71,-41.758 26.06,-65.207 -4.32,-14.461 -20.92,-17.109 -32.52,-23.4607 12.26,-5.2617 29.37,-11.1289 29.55,-27.3594 0.66,-23.1601 0.9,-46.5 7.52,-68.94918 -10.67,-0.0625 -21.25,-0.17188 -31.8,-0.35156 -6.17,24.21874 -4.1,49.62894 -10.08,73.92964 -15.8,16.461 -39.08,12.8516 -59.71,12.9493 -0.05,-28.8907 0.12,-57.8008 -0.17,-86.69926 -11.02,0.10938 -21.97,0.17188 -32.87,0.35157 -0.3,62.13669 0,124.26959 -0.18,186.45659 v 0" transform="matrix(.13333 0 0 -.13333 0 167.493)"/><path d="m 4609.47,171.449 c -4.63,-4.5 -9.2,-8.988 -13.75,-13.429 -3.79,-40.29 -3.32,-80.9184 0.12,-121.1411 4.37,-4.5 8.89,-9 13.32,-13.5586 17.77,-3.6094 35.66,-1.0703 52.42,5.7383 7.42,21.1523 4.81,43.7109 5.22,65.6406 -0.53,23.8598 2.44,48.3788 -5.22,71.4918 -16.7,6.508 -34.53,7.868 -52.11,5.258 z m -41.7,-2.238 c 16.7,23.398 49.52,25.641 75.8,23.809 22.47,-2.731 52.6,-11.25 53.73,-38.731 3.85,-42.84 3.74,-86.6093 -1.89,-129.3085 -21.45,-25.69925 -57.81,-26.94925 -88.44,-22.92191 -15.09,2.60157 -33.28,7.40235 -39.2,23.33201 -10.66,23.6289 -5.56,50.2891 -6.75,75.3394 1.13,22.75 -3.91,47.27 6.75,68.481 v 0" transform="matrix(.13333 0 0 -.13333 0 167.493)"/></g></svg>
