<?xml version="1.0" encoding="utf-8"?>
<!-- Generator: Adobe Illustrator 18.1.1, SVG Export Plug-In . SVG Version: 6.00 Build 0)  -->
<svg version="1.1" id="_3" xmlns="http://www.w3.org/2000/svg" xmlns:xlink="http://www.w3.org/1999/xlink" x="0px" y="0px"
	 viewBox="98 -27 216 94" enable-background="new 98 -27 216 94" xml:space="preserve">
<metadata><?xpacket begin="﻿" id="W5M0MpCehiHzreSzNTczkc9d"?>
<x:xmpmeta xmlns:x="adobe:ns:meta/" x:xmptk="Adobe XMP Core 5.6-c014 79.156821, 2014/08/29-03:07:50        ">
   <rdf:RDF xmlns:rdf="http://www.w3.org/1999/02/22-rdf-syntax-ns#">
      <rdf:Description rdf:about=""
            xmlns:xmp="http://ns.adobe.com/xap/1.0/"
            xmlns:xmpGImg="http://ns.adobe.com/xap/1.0/g/img/"
            xmlns:xmpTPg="http://ns.adobe.com/xap/1.0/t/pg/"
            xmlns:stDim="http://ns.adobe.com/xap/1.0/sType/Dimensions#"
            xmlns:xmpG="http://ns.adobe.com/xap/1.0/g/"
            xmlns:dc="http://purl.org/dc/elements/1.1/">
         <xmp:CreatorTool>Adobe Illustrator CC 2014 (Windows)</xmp:CreatorTool>
         <xmp:CreateDate>2018-11-07T11:00:50+01:00</xmp:CreateDate>
         <xmp:Thumbnails>
            <rdf:Alt>
               <rdf:li rdf:parseType="Resource">
                  <xmpGImg:width>256</xmpGImg:width>
                  <xmpGImg:height>112</xmpGImg:height>
                  <xmpGImg:format>JPEG</xmpGImg:format>
                  <xmpGImg:image>/9j/4AAQSkZJRgABAgEASABIAAD/7QAsUGhvdG9zaG9wIDMuMAA4QklNA+0AAAAAABAASAAAAAEA&#xA;AQBIAAAAAQAB/+4ADkFkb2JlAGTAAAAAAf/bAIQABgQEBAUEBgUFBgkGBQYJCwgGBggLDAoKCwoK&#xA;DBAMDAwMDAwQDA4PEA8ODBMTFBQTExwbGxscHx8fHx8fHx8fHwEHBwcNDA0YEBAYGhURFRofHx8f&#xA;Hx8fHx8fHx8fHx8fHx8fHx8fHx8fHx8fHx8fHx8fHx8fHx8fHx8fHx8fHx8f/8AAEQgAcAEAAwER&#xA;AAIRAQMRAf/EAaIAAAAHAQEBAQEAAAAAAAAAAAQFAwIGAQAHCAkKCwEAAgIDAQEBAQEAAAAAAAAA&#xA;AQACAwQFBgcICQoLEAACAQMDAgQCBgcDBAIGAnMBAgMRBAAFIRIxQVEGE2EicYEUMpGhBxWxQiPB&#xA;UtHhMxZi8CRygvElQzRTkqKyY3PCNUQnk6OzNhdUZHTD0uIIJoMJChgZhJRFRqS0VtNVKBry4/PE&#xA;1OT0ZXWFlaW1xdXl9WZ2hpamtsbW5vY3R1dnd4eXp7fH1+f3OEhYaHiImKi4yNjo+Ck5SVlpeYmZ&#xA;qbnJ2en5KjpKWmp6ipqqusra6voRAAICAQIDBQUEBQYECAMDbQEAAhEDBCESMUEFURNhIgZxgZEy&#xA;obHwFMHR4SNCFVJicvEzJDRDghaSUyWiY7LCB3PSNeJEgxdUkwgJChgZJjZFGidkdFU38qOzwygp&#xA;0+PzhJSktMTU5PRldYWVpbXF1eX1RlZmdoaWprbG1ub2R1dnd4eXp7fH1+f3OEhYaHiImKi4yNjo&#xA;+DlJWWl5iZmpucnZ6fkqOkpaanqKmqq6ytrq+v/aAAwDAQACEQMRAD8A9U4q7FXYq7FXYq7FXYq7&#xA;FXYq7FXYq7FXYq7FXYq7FXYq7FXYq7FXYq7FXkv/ADkn5j1by35S0PWdJnMF7aa5bvGw6MPq1zyR&#xA;x+0rDZh4ZbiFlo1EiACO9nfkPzlpvnHytZa/YfClytJ4CatDMu0kTf6rdPEUPfISjRpthPiFp/kW&#xA;SjZ3tnewfWLSZLiAs6CWMhlLRsUcAjb4WUg++Kgq2KuxV2KuxV2KuxV2KuxV2KuxV2KuxV2KuxV2&#xA;KuxV2KuxV2KuxV2KuxV2KuxV2KuxV2KuxV5B/wA5TWjT/lW8o6Wt/bSnaux5xfR/eZbh+po1I9Ly&#xA;T/nGD8wTofm1vLV5Jx0zXiFg5HZL1R+7I/4yj4Pc8ctzRsW0aedGu96z/wA5H/mNe+XPL9t5f0aQ&#xA;prWvlohKho8VuKK5U9mkLcFP+seoyrFCzbfnyUKHMvUPLmi2+h6Bp2jW4Ah0+2itkp39JAvL6aVy&#xA;smy3RFCkxwJdirsVdirsVdirsVdirsVdirsVdirsVdirsVdirsVdirsVdirsVdirsVdirsVdirju&#xA;KYq8d/MuH81PI4l8z+UtVl1jQoiZdR0LUF+tGBBuZIpT+/MQ/aHOq9dx9m2HCdi4+TijuOSRaz+a&#xA;3l/80vyg8zacsf1DX7Oy+uz6c7cuS2jrO0kD7c1/d77VXvtuZCBjIMTkE4HvfL1vPNbzx3EDmOeF&#xA;lkikU0ZXU1VgfEEZkuG9F87+fj52/MLy5rLniY4dOgmToqTI/KcAdl9V2p7ZXGNAts58UgX23mG7&#xA;F2KuxV2KuxV2KuxV2KuxV2KuxV2KuxV2KuxV2KuxV2KuxV2KuxV2KuxV2KuxV2KuxV2KtMqspVgC&#xA;pFCDuCDir4z/AD08hTfl954W/wBF5W2kauss1hw2EbMOFzbf6lJOnTg3HffMvHLiG7r80OGWzy60&#xA;s7y9uEtrOCS5uJDSOGFGkdj7KoJOWNIDOtH/ACI/N3UAk9t5entwCCHuXitWUg9eEzxvt/q5A5I9&#xA;7YMMz0fbti91JZW73cYhu2iRriIEMEkKguoIqDRtswy7EK+KXYq7FXYq7FXYq7FXYq7FXYq7FXYq&#xA;7FXYq7FXYq7FXYq7FXYq7FXYq7FXYq7FXYq7FXYqw381fJ/k/wAzeW0j813X1DTNPnS7a89RISnE&#xA;FSvqOCAHDUI+VN6ZOEiDs15Igjd43e/85Aflz5KgfS/y28uRyhfhbUJVMEbkdGJNbib/AGZU5b4R&#xA;PMuOc8Y7RCWw/mD/AM5Qea/32j2E9naybqbeyighPf4ZrsMfufDwwCOPJLkrrpH/ADl9CzzCS6Jo&#xA;SwN1psg8dkMjfgMbxprK5vzm/wCcg/J7c/Nehm7s1P72e6szEtP8m4teEIPzBx8OB5L4uSPMPSPI&#xA;X/OSPkXzPJHZ6gW0HVJCFWG6YNA7HslwAq9f5wvtlcsRDbDPE+T1kEEVHTKm92KuxV2KuxV2KuxV&#xA;2KuxV2KuxV2KuxV2KuxV2KuxV2KuxV2KuxV2KuxV2KuxVIvOvnTQvJ2gT63rM3p28XwRRLvJNKQS&#xA;sUa92an0Dc7DJRiSaYzmIiy+WC/5l/nz5qZFJtdDtHrx+L6nZxsdq9PVmK/S3+SvTI2gHC9WU+T6&#xA;F8gfkj5F8mQxyW9muoasoBfVLxVkl5eMSmqxCvTjv4k5RLIS5UMMYs/yDa8Y/Nz/AJyLtPJmtSeX&#xA;9I09dS1WBVN5LM5SCFnUOqUUcpG4kE0IA+daXQxXu4+XPwmgwfSf+cvdV9cJrfl+3mtH2kNpI8bh&#xA;T1+GX1Vb5VGTODuLWNUeoZTqP5W/lP8Am3oLeYPJrppGpkkO0MYjVZqV9O6tQeKn/KTr1qwyAnKJ&#xA;oszjjMWGJeRvzO85/lP5gTyZ5+ikl0QELb3BJkMERPFZbd6Vkg2+x1XtQgqZygJCw1wyGBqXJ9P2&#xA;1zb3VvFc20qzW8yrJDNGwZHRhVWVhsQR0OYzmqmKuxV2KuxV2KuxV2KuxV2KuxV2KuxV2KuxV2Ku&#xA;xV2KuxV2KuxV2KuxVpmVVLMQFAqSdgAMVfH/AJ31zWfzo/Na30LR5CNGt5Hg09tzGkCGs9442+2F&#xA;qOm3FeuZURwRtwJk5JUH1T5R8p6L5U0C10TR4fStLZd2O7yOftySN+07Hr9w2pmNKVm3NjERFBOM&#xA;DJ2KvjT/AJyT8malon5iXervGzaXrhFxa3FKr6gQLLET/MrDlT+UjMvFKw6/UQqV97ybLWh67/zi&#xA;9rWpWX5oW+nW7MbLVbeeO+jFeFIYmmjcjpVXTiD/AJR8cqzD0uRpyeJ9Lfmn+W2leffLUum3IWLU&#xA;IQ0ml31Pihmp3PXg/R1+nqBmPCfCXLyYxIU8p/5xu89appuq3v5ZeYw0V7ZPKdMWU/EjREme29x1&#xA;kSnbl7ZZlj/EGnBMg8JfQ+UOU7FXm4/5yM/JokAeYevjZ3w/XBlnhS7mnx4d7M7PzT5evdAfzBZ3&#xA;0dzo8cTzveQ1dRHEC0hooLVUA1WlfbIUbpsEhVsNT/nIr8m3YKPMIBJoK2l6o+kmAAZPwpdzX48O&#xA;9n2m6np+qWEGoadcR3dlcqHguImDo6nuCMrIptBtR17XtJ0DSLnWNXuBaadaKHuLhlZgoLBR8KBm&#xA;NWYAADCBaykALKA8oee/KfnCznvPLl+L+C2k9GdvTliZXKhgCkyRtQg7GlPuwyiRzRGYlyTyWWKG&#xA;J5pnWOKNS8kjkKqqoqWYnYADIsnmWrf85IflPp129qNTkvWjJDyWkMkkVR4SEKrfNajLBik0nPEM&#xA;j8mfmp5E84u0Og6ok12i8nspFaGcAdSEkC8gO5WoyMoEc2cMkZck38z+adB8r6RJq+u3Qs9OiZEe&#xA;YpJJ8Uh4qAkSu5qfAYACeSZSAFl3lnzRoPmfSItY0K6F5p0zOkcwR4/ijYqwKSKjihHcYkEc1jIE&#xA;WEq8xfmj5D8ua5b6FrOqra6rdLG0Nv6U8lRK5ROTxxui1Zf2mHj0wiBItEskQaLKsizY/wCcPP8A&#xA;5R8nW9tceZNQFhFdu0dufTllLsgq1FhSRtgetKZKMSeTCUxHmmei61pmt6Va6tpc4udPvEEttOoZ&#xA;Qyn/ACWCsPcEVGAimQIIsMFl/wCciPydikeJ/MFHRirD6nfGhBoekGT8KTX48O9OtF/NjyBrWj6p&#xA;rOmar9Y03RUEmpT/AFe5T0kKs1eLxq7bIfsg5EwISMsSLCaeVPOHlzzZpZ1Ty/d/XbBZWgM3pyxf&#xA;vEALLxmWNujDtglEjmyjISFhJvOf5vfl/wCT7j6prWqKt/QMbGBWmmAO45KgISo3HMjJRgTyYzyx&#xA;jzS3y5+f35W69eJZW+rfVbqRgsUd7G9uHJ6ASMPTqewLVOE4pBEc0T1Wf85BeapPLv5YalJA5ju9&#xA;SK6bbONiDcV9ShHf0UenvjiFyRnlUWA/84w6Dpnl7yVq/nzV2WCO45xpcsCfTs7U1lb4QT8UoNQB&#xA;+wMnmNmmvTxABkXpdr+eX5TXUwii8y2qsehlEkK/8HKiL+OV+HLubhmj3sj8xebvLflzSk1bWr5L&#xA;TTpHWOO5IZ1ZpAWUD0w53CnIiJPJlKQAso3S9TsNV0621LT5hPY3cazW0wBAeNxVWAYA7jxGJFJB&#xA;vdS13QNG17TZdM1mzivrCb+8gmWoqOjDurDsw3GINKYgii+ftM/Jj/nH/wA3a5PY+WfMV79bhVpp&#xA;rCCQMqxI4RijTwEmhYCvNsvOSQG4cUYscjsWc/l3pH5LeR/NE3lnRLuvm6WtvN9d9Q3TAL6vAOY4&#xA;4gGUcvgpy267ZCRkRZ5NkBCJoc2eeavO3lbypbQXPmHUI9PhuXMcDOHYuwHIgKgZth1NMrESeTbK&#xA;YjzfPf8AzkDbponm/wAr/mj5e3j1D0pWk4sgeW3CvEzBgG/fQHjQjouZGLcGJcXPsRIPerr8yfJN&#xA;l+jFvtWhtJdXgiudPhlJDSRz/wB2RQHqdso4C5JyRRS+dvKbWsN2uqW5tri9Glwyhvha9LFRAD/P&#xA;UYOEp4w+NPywf8oxZ64v5gJO0zJD+h3tfX9RWAl9bj6ZEfI/u6ert+OZc+Lo6/Hwb8TPP+cd11L/&#xA;AAL+Y7fvP0UdPYR8v7v1xbz8uPblw48qf5Ne2Qy8w24Ppk8/8lS/lQvk/Xk82RTv5iYH9BSW/rcl&#xA;b0zx2Vlhp6lK8x0yyXFezVDho3ze3/8AOIiaqPKmttPzGmNeJ9S5fZMgjpOU/wCErlOfm5Oluiof&#xA;85Yea5fqWkeS7Gr3WoyC7uok3cxoxjgSnf1JeR+ajHDHqjUy5BjX5KSal+W/5y3vknWJAseqItuW&#xA;FRG0wX1raQePJWZB7tksnqjbDDcJ8JZL/wA5T+bNZ9TRvJGlMyfpf99eKhIMwaT0oIaj9kuGLDvt&#xA;kcMerPUyO0Qy7yd/zjl+Xei6PDBqunx6zqhUG7vbgvxL9xHGCFRR22r4nIyyktkMEQN1Oy/5xu8j&#xA;6d53sfMuly3NlbWTCddLjkYp9YQgowlYmUJ15JXfxAqC+KapAwRErCRf85cat9X8k6VpitR76/8A&#xA;VYeMdvE1R/wUqnDgG7HUnakn/wCcTfMU9tL5g8m3wMM9u/16GB9mVlIguVIPShEe3zyWYdWOmlzD&#xA;xj8zvMt15p88635mh5GyF2sFrOv2VjQMltv2LpAX+dctgKFOPklxSJfc+hakmqaJp+ppThfW0Nyt&#xA;OlJow4p/wWYZFF2QNi3y9+cT6r+Z35zp5R0Vw0ekxyWkRJ/drNGhlunbwPNRF81GZEPTGy4eW5zo&#xA;M0/5xQ83PcaFqXlC8JW60iU3FrG2zCCZj6i0/wCK5qk/6+RzR3ts00tqYL/zk1+Xvk/yjJ5fl8vW&#xA;H1J9Sa+a9PrTy+oYjAU/vnk409Vvs065PDIm7atRARqnsnmz8vfJ/k38q/OUXluw+oJe6dM1yPWn&#xA;m5GONgv988lKcj0ymMiZC3IlARiaebflp5xufKP/ADjdrWsWZAvxqE1vZMd+M06wxh99vgBLj5ZZ&#xA;ONzacc+HGSr/AJDfkroXmPRD5084Rvqs+pTStZ28zvwIVyjzTUIaR3kDfaNKb712cmQg0E4cQIss&#xA;385/840/l7rloo0iD9AX6Ecbm25PGy13V4XbiduhWh+fTIRykNk9PE8tmA/85R2UOgeU/Jflq0km&#xA;ls4Dc8HnkaWRvqyRIpdm6n98fYdBQbZPDuSWrUCgAzxNPisP+cX/AEIwAr+XDcGn81zB67f8NIch&#xA;fr+LbVY/g+ddFt/ylf8ALPUZNXupovPSSSHTYYlnKulE9MN8JgoTyrVgafRl54r8nEHDw7/Uya6n&#xA;1eX/AJxetv0gXaCPzAE00vX/AHmETbLX9kTGQZH+P4Mzfh/F9KflH/5LDyv/ANs22/5NjMef1Fy8&#xA;X0hL/wA8POI8q/lxql5G/C+vF+oWG9D61wCpZfdI+Tj5YccbKM0+GL5c8mfpr8uPMnk3zhfIY9M1&#xA;hXl+dqZGgnBHciNllX5rmTKpAhw4XAgvXf8AnJryhc2sml/mVoJMd9p0kKXk0VDQK3K2uNv5X+An&#xA;vVfDKsMuhb9RH+IMRs9R1D89/wA1tKW6ha38v6TbRzXltWqoqhWuAD4zz0jB68KHtkq4ItYPiS8n&#xA;qn/OUOmwz/lPLLxC/o+8tpogBQCpMFBT/JmyvCfU36gelQ/Lqz1rWfJ/5X63axC4i0SO+F1V0BCr&#xA;aT2cKipWtXCr7d8ZUCQjGCRE9zD4fyJ/MSCxiiWQOlrDFrlvbCdBXXy8SyoWrQL6URPLpvt7T8QM&#xA;PBl+O9Iv+cY/IXlDzYfMh8xaamofUfqRtfUaReHq/WOf2GWvL016+GSzSIqmGngJXb6K8xaNpOjf&#xA;l1rmn6VZw2NlFpl56dvAgjQVgck0Xue5zHBsuXIARNPjPSPIc2rfltq/miyVnudEvI0vIxvW0lj3&#xA;cDxjelf8kk9syzKjTrxC4k9z62/JPzhpXmX8u9OubOGGzksV+qX9nAixRRTRAFiqLRVVwQ4+eYuS&#xA;NFzsMgYvm3Ur/wA8fmF+bOpeZ/J9k2oTaXcJLp+0ZSKC3bhbOVmISrFOdP5qnMgARjRcQmUpWFH8&#xA;ybL86ItQsvOnnCwa0ubJ4YbbUES2TjJG7Sw8hATUhgaEj28MYcPILkE+ZZz+fC3vmHy75P8AzW0J&#xA;WaKKGMXfAFvq0gf1Iy1K7JPzjY+NPHIY9iYlszbgSDNpfzR/Lj8z/wAvbvRtQ1238tX1/EiXsN46&#xA;IYXR1c+m0rRpKpKbUatOoB2yHAYls8SM41dPnPzB5L0JvNtl5a8karJ5luLphE1yIfRi9VjTih5P&#xA;yVR8TP8AZpmQJGrLiSgLqO70/wD5yA08XPnPyD5Dif1VtbS2tQwJ63Uy229Oh424OV4jsS3ZxuIp&#xA;f+e8Op+QvzXm17RaW8ev2EvEqKIGmha1nAAp8SnjKP8AKIw4/VGijNcZWOq1fy+Fp/zjBda1JF/p&#xA;t3fwaoairCFJDaRD5cJWf5Njxeul4P3dvWfIXn6DR/8AnHay8yzsC+l2MlvGjU+KaCVraCP/AGTB&#xA;B8jlUo3Om+E6x28H/LHTPzqjnufN3kzT2uZL/wBWCbUHW2fmTIHlAE5HVwKkDLpmPIuNjE+YRflv&#xA;UfOf5d/nBp+uecLM6bJrUrtqVfTWN4Ltys0lISUASSknEeHTEgSjQWJMJ2erN/8AnMf/AKZD/t4/&#xA;9iuQwdW3VdHsv5uf+Sw80f8AbNuf+TZymH1Bvy/SXh35e+ULzzX/AM4061pdgpk1BNRlurOIdXkg&#xA;WF/THu6hlX3Iy6Uqm48I8WMhMv8AnH786vLWk+W4/KHmi5Gl3OnSSizubgMInjkdpDG7/sOjsw+K&#xA;gpQdccuMk2E4MoAos987/wDORH5eeW7YGzvY9evmYBLXT5FkUCvxM845RrQdqknw75XHES2zzxHm&#xA;8z/5ym1G11/y15I8xWHP9H3S3bReqhjek6wOvJW6bRn+G2WYRRIadSbAL0KW7iuv+cYxLEaqvllY&#xA;T/rQ2wib/hkOQ/j+Lbf7v4MH/wCcd/yp/L/zN5JbWdd0hb7UY7+aFZXlnC8ESMqpjSRYzux6rk8s&#xA;yDs14McSLIZF/wA5URWun/lVp1lZwJBarqdvBDDEoRI0S3nZQqqKADhSmRw/Uy1O0U8/KP8AMvyJ&#xA;/g7yvoH6at/0z9UtrX6jU+p63EL6dKda5GcDZLPFkjQFvMf+cltX1XzV5/0ryJoUTXk9inNrWMir&#xA;3dwvOhqQPggVTU9OTZbiFCy06gmUuEJF5+0P8+dY8qW9p5h8vJFovl+P1oXgS3VoYYIihHwSMxUI&#xA;NwB2wxMQdiwmJkbjYPVfy781RebP+cetThvKT3el6beadeK+9fQt2MLmu/8AdcPi/mByuQqbfCXF&#xA;jS3/AJxCtrdfKWuXQjUXEl+sTy0+IpHCrIpPgDI334c/NGl5Fkv/ADk5erb/AJS30LMVN5c2sKgf&#xA;tESiah+iKuRw/Uy1B9CcfkLaG0/KLy3EV4FoJJqb9Jp5JQd/HnXI5PqLLCPQGfZBtYt5H/LPyh5I&#xA;+u/4dtXtv0h6X1rnLJLy9Hnwp6halPVbpkpTJ5sIYxHkyLULG21CwubC6UvbXcTwTqCVJjkUowqN&#xA;xsciCyItjvlT8svJvlbS7/StIsilhqdfr0E0jzLIChjKn1C2xU0IyUpksY4xEUEL5a/KPyV5astU&#xA;stGguLa21iE299H9ZmYMhVlqvJjwYByAy74TMlEcQHJHeSfy68peSYLqHy7aG2W9ZXuWeR5WYxgh&#xA;RycsaDkdvfBKRPNMMYjyTHzN5a0bzNolxouswfWNOuuPrRcmQ1Rg6kMpDAhlHTADRtMogiihvLXk&#xA;ny55c8vny9ptsTo7GTlaXDtcIRN/eIfVLfC1TVem5wmRJtYwAFMC1j/nGD8rNRumuIYLvTeR5NFZ&#xA;z0jrWposyzcQfAfRkxmk1HTxLKfI35S+RvJJaXRLGl668JL+4Yyzle4DHZAe4QCuRlMnmzhijHku&#xA;1P8AKrylqXnW285Xccz61aGJoG9UiJTCKJ+7pTbr88RM1SnGCb6onzv+XHlHztDaReYrRrkWLO1s&#xA;ySSRMvqABxVCux4j7sEZkckzxiXNH3nlPQbzysfK81t/uENslmLZWZaQxqFRQwPIUCjeuDiN2kxF&#xA;V0Y+35N+Q28or5S+qzDQlufrgthcTAmWlN35ciu9eNaVyXiG7Y+FGq6Mm8u+XtJ8u6La6LpEP1fT&#xA;rNSkEVS1AzF2JZiSSWYkk5EmzbOMQBQSjzv+Wvk/zstovmKza5NiXNsySPEy+rx5isZWoPAdcMZk&#xA;cmM8YlzUPNn5U+TPNlppdrrttLdRaPG0VkfXlRgrqityZWBckRLucMZkckSxiXNkWtaPYazpN3pO&#xA;oIZLG+iaC5jDFS0bijAMtCNvDIg0zIsUgPJ3kvy/5P0k6ToMDW9i0rTmN5HlPqOAGPJyx6KMMpE8&#xA;0RgIigxzzn+Rn5debb19Q1Cwa21GU1mvLJ/ReQ+LrRo2J/mK198MchDCeGMkv8u/844/lbol8l6L&#xA;GXUpozyiW/k9aNT4+koRG/2YOE5ZFEcEQo/85KeWH1n8rrqaBOU+iyx6giqN/TQGOXp2WOQsf9XD&#xA;iNSRqI3FjP8Azjjqmm+bfyu1TyRqbMwszLBLErcXNneVcFT12cyD22yWUVK2OAiUeEvXPJPkfQfJ&#xA;mjNpGiJIlm0zXBErmRubhQfiP+oMqlInm3wgIig7zp5G8uec9Li0vX7drizhnW5jRJHiIlVHQHkh&#xA;U/ZkbbGMiOSzgJCixnRf+cf/AMsNG1a01bT9OljvrGVZ7aQ3M7BZENVJVmIO/jkjlkWAwRBtONL/&#xA;ACs8maZ5uuPN1taOdeumleW6lmkk+Kf7ZVGJVdthQbDYbZEzNUyGMA31ZVPDDPDJBMgkhlUpJGwq&#xA;rKwoQR4EZFmwvyr+T3k3yvY6vY6StylprcP1e/ikmLgpxdarUfC3GRhXJymS1xxCN11TLyJ+Xvlz&#xA;yRp1xp+gpKlvczfWJRNIZDz4hNifZRglInmmEBHk8T/5yp1yfVta8u+RdN/fXckguZYV7zTn0LZf&#xA;Y0L/APBDLsIoEuPqTZEQ+gtA0mDRtC07SIN4dPtobWM+KwxhAfp45QTZcqIoUj8CXYq7FXYq7FXY&#xA;q7FXYq7FXYq7FXYq7FXYq7FXYq7FXYq7FXYq7FVO5toLq3ltrhBLBOjRzRturI44sp9iDir48Yav&#xA;+Rv5wc+Lz6O9eNP+PnTZm6Cv+7Iyvt8a+BzL+uLgb45vrzSNW07WNMttU02dbmwvI1lt506MrfiD&#xA;2IO4OxzFIpzgbFhF4EuxV2KuxV2KpD5486aP5N8uXWu6q9IYBSGAEB5piPgij/ymP3Dc7DJRjZpj&#xA;OYiLLwX8g/LWr+d/Puofmd5iXnFDM5sgwPB7phxASv7FtHRV9+P8py7IaHCHFwxMpcRfTGY7mOxV&#xA;2KuxV2KuxV2KuxV2KuxV2KuxV2KuxV2KuxV2KuxV2KuxV2KuxV2KsN/NL8s9J8/+XW066Igv4Kya&#xA;bfgVaGUjuO6PSjL9PUDJwnwlryYxIPnDyd5689/kn5jl8v8AmGykm0eV+c1kT8JB2+s2Uh+E17jo&#xA;3Q8W3F8oiYsOJGcsZovqLyf588q+cNPF7oN+l0oA9aD7M0RPaSI/Evz6HsTmPKJHNzYzEuSf5Fk7&#xA;FXYqw38wfzZ8neRrRm1W6EuolawaVAQ9y5PSq1+Bf8p6Dwr0ycYEtc8ojzfP+n6X58/Pzzcupaly&#xA;07ynYvwHGvpRR1BaKCopJO4+05G3eg4rl5IgPNxQJZTZ5PqXRNF0zQ9JtdI0uBbbT7KMRW8K9Ao7&#xA;k9SxO7E7k7nMYm3NAAFBG4EuxV2KuxV2KuxV2KuxV2KuxV2KuxV2KuxV2KuxV2KuxV2KuxV2KuxV&#xA;2KuxVJPNvkzy15t0w6br9il5b7mJmqskTH9uKRaMh+R377YYyI5MZQEhu+fPMn/OLvm7RL79KeQ9&#xA;YMzREtBFJIbS8T2SdOMbH3PDLxmB5uLLTkbxKFh/MH/nJ7yp+51PSrrUYYtuV1Ym5Si9a3Frx5fM&#xA;vh4YFHHkjzRI/wCckPznkRY4vKdubhjSos75gfkglr+OPhR70+PPuUZNW/5yo86D0IbW70i0lHxF&#xA;Ik0xQp7+rNxnp/qtjUAi8smSeSP+cVbSK6XU/PGo/pS5Lc30+3LiJm6/vZ24ySV7gBfmcjLN3M4a&#xA;brJ71YWFjp9nDZWMEdrZ26hILeFQkaKOgVVoBlBLkgUr4pdirsVf/9k=</xmpGImg:image>
               </rdf:li>
            </rdf:Alt>
         </xmp:Thumbnails>
         <xmpTPg:MaxPageSize rdf:parseType="Resource">
            <stDim:w>216.000000</stDim:w>
            <stDim:h>94.000000</stDim:h>
            <stDim:unit>Pixels</stDim:unit>
         </xmpTPg:MaxPageSize>
         <xmpTPg:NPages>1</xmpTPg:NPages>
         <xmpTPg:HasVisibleTransparency>False</xmpTPg:HasVisibleTransparency>
         <xmpTPg:HasVisibleOverprint>False</xmpTPg:HasVisibleOverprint>
         <xmpTPg:PlateNames>
            <rdf:Seq>
               <rdf:li>Cyan</rdf:li>
               <rdf:li>Magenta</rdf:li>
               <rdf:li>Yellow</rdf:li>
               <rdf:li>Black</rdf:li>
            </rdf:Seq>
         </xmpTPg:PlateNames>
         <xmpTPg:SwatchGroups>
            <rdf:Seq>
               <rdf:li rdf:parseType="Resource">
                  <xmpG:groupName>Standard-Farbfeldgruppe</xmpG:groupName>
                  <xmpG:groupType>0</xmpG:groupType>
               </rdf:li>
            </rdf:Seq>
         </xmpTPg:SwatchGroups>
         <dc:format>image/svg+xml</dc:format>
      </rdf:Description>
   </rdf:RDF>
</x:xmpmeta>
                                                                                                    
                                                                                                    
                                                                                                    
                                                                                                    
                                                                                                    
                                                                                                    
                                                                                                    
                                                                                                    
                                                                                                    
                                                                                                    
                                                                                                    
                                                                                                    
                                                                                                    
                                                                                                    
                                                                                                    
                                                                                                    
                                                                                                    
                                                                                                    
                                                                                                    
                                                                                                    
                           
<?xpacket end="w"?>
	</metadata>
<path id="_2" fill="white" d="M312.9,31.7l-0.6-3.7l-1.3,3.7h-1l-1.3-3.7l-0.7,3.7H307l1-5.9h1.1l1.4,4.1l1.4-4.1h1.1l1,5.9H312.9
	z M305.5,31.7h-1.2v-4.8h-1.1v-1.1h3.3v1.1h-1.1L305.5,31.7L305.5,31.7z M289.7,42.4h-3.2v-7.2l-5-9.4h3.5l3.2,6l3.2-6h3.4l-5,9.5
	L289.7,42.4L289.7,42.4z M280.5,42.4l-1.3-3.4h-6.9l-1.4,3.4h-3.4l6.5-16.7h3.3l6.5,16.7L280.5,42.4L280.5,42.4z M275.7,30.1
	l-2.3,5.7h4.5L275.7,30.1z M257.7,25.7h3.2v13.6h4.7v3h-7.9L257.7,25.7z M252.2,35.1c-1.1,0.2-2.3,0.3-3.4,0.3v7.1h-3.2V25.7h3.4
	c1.4-0.1,2.7,0.1,4,0.5c0.8,0.3,1.5,0.9,2,1.6c0.5,0.8,0.7,1.8,0.7,2.7c0,1.1-0.3,2.1-0.9,2.9C254,34.3,253.2,34.9,252.2,35.1
	L252.2,35.1z M251.7,29.1c-0.6-0.3-1.4-0.4-2.1-0.3h-0.9l0,3.5h1c0.6,0,1.1,0,1.7-0.2c0.3-0.1,0.6-0.3,0.7-0.6
	c0.2-0.3,0.3-0.6,0.3-1C252.5,30,252.2,29.4,251.7,29.1L251.7,29.1z M226.8,28.1c-3.2-0.1-5.8,2.5-5.9,5.6c0,0.1,0,0.1,0,0.2
	c0,1.1,0.2,2.1,0.7,3c0.5,0.9,1.2,1.6,2.1,2.1c0.9,0.5,2,0.8,3.1,0.8c0.9,0,1.8-0.2,2.6-0.5c1-0.5,1.9-1.2,2.6-2l2.2,2.3
	c-1,1.1-2.3,1.9-3.6,2.6c-1.2,0.5-2.6,0.7-3.9,0.7c-2.5,0.1-4.8-0.8-6.6-2.5c-3.5-3.4-3.6-9-0.2-12.5c0.6-0.7,1.4-1.2,2.2-1.6
	c1.4-0.8,3.1-1.2,4.7-1.2c2.9,0,5.6,1.2,7.5,3.4l-2.3,2.1C230.7,29,228.8,28.1,226.8,28.1L226.8,28.1z M234.4,28.4L234.4,28.4
	L234.4,28.4L234.4,28.4z M211.7,25.4h3.3v17h-3.3V25.4L211.7,25.4z M205.9,42.4h-3.3V28.5h-3.1v-3.2h9.6v3.2h-3.2L205.9,42.4
	L205.9,42.4z M196.5,42.4l-1.4-3.5h-7.1l-1.4,3.5h-3.4l6.7-17h3.3l6.7,17H196.5L196.5,42.4z M191.6,29.9l-2.3,5.9h4.6L191.6,29.9z
	 M176.2,31.6l-3.7,10.8h-2.9L166,31.6l-1.9,10.8h-3.3l3-17.1h3.2l4,11.9l4.1-11.9h3.2l2.9,17H178L176.2,31.6z M155.1,41.8
	c-1.4,0.7-2.9,1.1-4.4,1.1c-1.7,0-3.3-0.4-4.8-1.1c-1.4-0.8-2.6-1.9-3.3-3.3c-0.8-1.4-1.2-3-1.2-4.6c0-2.2,0.8-4.3,2.3-5.9
	c1.8-2,4.3-3,7-2.9c1.5,0,2.9,0.3,4.2,0.8c1.2,0.6,2.4,1.4,3.3,2.4l-2.3,2.3c-1.3-1.5-3.2-2.3-5.1-2.3c-1.6,0-3.1,0.6-4.3,1.7
	c-1.1,1-1.8,2.5-1.7,4.1c0,1.6,0.6,3.1,1.8,4.2c1.2,1.1,2.8,1.8,4.4,1.7c1,0,2-0.2,2.9-0.7c0.8-0.5,1.5-1.3,1.9-2.2h-5v-3h8.7v0.7
	C159.3,37.5,157.7,40.3,155.1,41.8L155.1,41.8z M136,38.9h-7l-1.4,3.5h-3.5l6.7-17h3.3l6.7,17h-3.4L136,38.9z M132.5,29.9l-2.3,5.9
	h4.6L132.5,29.9z M118.5,42.4l-3.9-7.2h-0.3v7.2H111v-17h3.5c1.4-0.1,2.8,0.1,4.1,0.5c0.8,0.3,1.5,0.9,2,1.7
	c0.5,0.8,0.8,1.8,0.7,2.8c0,1-0.3,2-0.8,2.8c-0.6,0.8-1.5,1.4-2.5,1.7l4.1,7.6L118.5,42.4L118.5,42.4z M118,30.3
	c0-0.7-0.4-1.3-1.1-1.6c-0.6-0.1-1.2-0.2-1.8-0.2h-0.9l0,3.5h1c0.7,0.1,1.5-0.1,2.2-0.4C117.9,31.3,118.1,30.8,118,30.3L118,30.3z
	 M104.8,34.9c-1.1,0.2-2.3,0.3-3.5,0.3v7.2H98v-17h3.5c1.4-0.1,2.8,0.1,4.1,0.5c0.8,0.3,1.5,0.9,2,1.7c0.5,0.8,0.8,1.8,0.7,2.8
	c0,1.1-0.3,2.1-0.9,2.9C106.7,34.1,105.8,34.7,104.8,34.9L104.8,34.9z M104.3,28.8c-0.7-0.3-1.4-0.4-2-0.3h-0.9V32h1
	c0.6,0,1.2,0,1.7-0.2c0.3-0.1,0.6-0.3,0.8-0.6c0.2-0.3,0.3-0.6,0.3-1C105.1,29.7,104.8,29.1,104.3,28.8L104.3,28.8z"/>
<path id="_1" fill="white" d="M269.5,67c-18.1,0.2-32.9-14.4-33.1-32.5s14.4-32.9,32.5-33.1C287,1.3,301.8,15.8,302,33.9
	c0,0.1,0,0.2,0,0.3C302.1,52.2,287.5,66.9,269.5,67z M269.5,4.9c-16.2,0.1-29.2,13.4-29.1,29.6c0.1,16,13.1,29,29.1,29.1v0h0
	c16.2,0,29.3-13.1,29.3-29.3C298.8,18,285.7,4.9,269.5,4.9L269.5,4.9L269.5,4.9z M279.3,22.8c-11.2,0.7-15.7-12.5-5.6-13.2
	C284.5,8.9,290.2,22.1,279.3,22.8L279.3,22.8z M267.4-2c-5.6,0.2-11.1,1.9-15.9,4.8c-0.7-2.2-3.8-10.6-11.8-15.3
	c5.7,0.3,10.9,3.6,13.6,8.7c0,0-3.1-13.2-2.3-23.2c6.3,7.8,11.1,20.5,11.1,20.5c-0.6-5.7,1.8-11.4,6.4-14.9
	C264.4-12.9,266.7-4.1,267.4-2z"/>
</svg>
