<svg xmlns="http://www.w3.org/2000/svg" viewBox="0 0 920 236" fill="#fff"><path d="M0.972694 23.1015C0.851108 21.9464 0.607934 16.2318 0.36476 10.4565L0 -6.98864e-06H117.453H234.967L234.541 10.4565C234.298 16.2318 234.055 21.9464 233.933 23.1015C233.811 24.2566 233.507 27.2962 233.325 29.7888C232.9 34.2875 232.717 35.7465 232.048 40.4276C231.866 41.7651 231.562 43.832 231.38 44.9871L231.379 44.9886C231.197 46.1442 230.832 48.4531 230.529 50.1546C230.225 51.796 229.799 54.1669 229.617 55.322C228.34 63.1035 223.781 81.0376 220.741 90.3998L219.525 94.169L142.196 94.0474L64.9274 93.9258L61.9485 85.7187C60.3071 81.22 58.4833 75.931 57.8753 73.9856L56.781 70.5203H129.612H202.442L203.476 66.3864C203.639 65.7243 203.783 65.1455 203.911 64.6289C204.879 60.7339 204.97 60.3679 206.15 54.4101C207.731 46.5677 208.643 40.914 209.494 34.3483C210.528 26.5059 210.588 23.7094 209.798 23.6486C208.643 23.5878 28.2689 23.5878 26.0804 23.6486L24.3174 23.7094L24.6821 27.7826C24.7179 28.1225 24.7537 28.4663 24.7893 28.8083C24.9955 30.7907 25.1953 32.7105 25.3508 33.4364C25.4724 34.2875 25.7156 36.0505 25.898 37.4487C26.0196 38.7862 26.3235 40.8532 26.5059 42.0082C26.5609 42.3563 26.6269 42.754 26.6956 43.1681C26.8549 44.1284 27.0289 45.1769 27.1139 45.899L27.1139 45.8991C27.4178 47.7228 27.5394 48.4524 28.7553 54.7141C30.2143 62.0701 34.8954 79.2138 37.8135 87.7857C46.3854 112.833 56.4163 132.651 72.8913 156.847C76.6605 162.379 86.3874 174.72 91.8588 180.86C93.3179 182.502 99.5796 188.885 105.781 194.964C115.143 204.266 117.149 205.968 118.061 205.482C118.669 205.178 123.471 200.679 128.76 195.512C137.15 187.304 140.372 183.9 148.761 174.173C154.172 167.911 168.823 147.485 171.498 142.378L172.228 140.98L146.208 141.041C131.922 141.101 113.501 141.101 105.294 141.041H90.3998L88.9408 138.731C82.9222 129.612 76.7213 119.033 76.7213 118C76.7213 117.757 106.814 117.574 143.594 117.574C180.374 117.574 210.467 117.635 210.467 117.696C210.467 118.912 200.74 138.183 195.755 146.816C192.918 151.742 191.695 153.886 190.391 155.979C189.151 157.966 187.837 159.907 184.994 164.142C173.444 181.347 163.473 193.505 148.761 208.278C143.108 213.932 137.028 219.829 135.326 221.349C129.89 226.064 128.807 226.932 124.456 230.42C124.038 230.754 123.591 231.113 123.107 231.501L117.453 236L114.9 233.994C99.762 222.2 79.3962 202.503 68.0278 188.642C45.1087 160.677 27.8434 129.976 16.2926 96.7223C14.2864 91.0685 10.5781 78.849 10.1525 76.5997L10.1525 76.5996C10.0309 76.1132 9.54454 74.1679 8.99742 72.3441C8.51108 70.5203 7.96394 68.3318 7.78156 67.4807C7.65997 66.6296 6.99124 63.3467 6.26172 60.1855C5.59299 57.0242 4.74189 52.7079 4.37713 50.6409C4.07316 48.5131 3.6476 46.0814 3.46522 45.1695C3.43957 44.9642 3.40578 44.7021 3.36674 44.3991C3.22076 43.2664 3.00118 41.5626 2.85729 40.1236C2.81232 39.7864 2.76735 39.4449 2.72315 39.1094C2.52834 37.6302 2.34846 36.2645 2.24936 35.8681C2.12777 35.3818 1.8238 32.7676 1.64142 30.0927C1.39825 27.4178 1.09428 24.2566 0.972694 23.1015ZM435.207 133.323C428.655 133.323 423.142 131.874 418.669 128.976C414.196 126.015 411.046 122.014 409.219 116.974L420.37 110.454C422.953 117.195 428.025 120.565 435.585 120.565C439.239 120.565 441.916 119.904 443.617 118.581C445.318 117.258 446.169 115.588 446.169 113.572C446.169 111.241 445.129 109.446 443.05 108.186C440.971 106.863 437.254 105.445 431.899 103.933C428.938 103.051 426.418 102.169 424.339 101.287C422.323 100.405 420.276 99.24 418.197 97.791C416.181 96.279 414.637 94.389 413.566 92.121C412.495 89.853 411.96 87.207 411.96 84.183C411.96 78.198 414.07 73.4415 418.291 69.9135C422.575 66.3225 427.71 64.527 433.695 64.527C439.05 64.527 443.743 65.85 447.775 68.496C451.87 71.079 455.052 74.7015 457.32 79.3635L446.358 85.695C443.712 80.025 439.491 77.19 433.695 77.19C430.986 77.19 428.844 77.82 427.269 79.08C425.757 80.277 425.001 81.852 425.001 83.805C425.001 85.884 425.851 87.585 427.552 88.908C429.316 90.168 432.655 91.554 437.569 93.066C439.585 93.696 441.097 94.2 442.105 94.578C443.176 94.893 444.594 95.4285 446.358 96.1845C448.185 96.8775 449.571 97.539 450.516 98.169C451.524 98.799 452.658 99.6495 453.918 100.72C455.178 101.791 456.123 102.894 456.753 104.028C457.446 105.162 458.013 106.548 458.454 108.186C458.958 109.761 459.21 111.493 459.21 113.383C459.21 119.494 456.973 124.345 452.5 127.936C448.09 131.527 442.326 133.323 435.207 133.323ZM335.872 72.276C331.525 67.992 326.17 65.85 319.807 65.85H295.142V132H308.183V110.265H319.807C326.17 110.265 331.525 108.123 335.872 103.839C340.219 99.555 342.392 94.2945 342.392 88.0575C342.392 81.8205 340.219 76.56 335.872 72.276ZM326.705 95.2395C324.878 97.1295 322.579 98.0745 319.807 98.0745H308.183V78.0405H319.807C322.579 78.0405 324.878 78.9855 326.705 80.8755C328.532 82.7655 329.446 85.1595 329.446 88.0575C329.446 90.8925 328.532 93.2865 326.705 95.2395ZM357.403 127.086C362.128 131.244 368.176 133.323 375.547 133.323C382.981 133.323 389.061 131.244 393.786 127.086C398.511 122.928 400.873 117.352 400.873 110.359V65.85H387.832V109.32C387.832 112.785 386.824 115.525 384.808 117.541C382.855 119.557 379.768 120.565 375.547 120.565C371.326 120.565 368.208 119.557 366.192 117.541C364.239 115.525 363.262 112.785 363.262 109.32V65.85H350.316V110.359C350.316 117.352 352.678 122.928 357.403 127.086ZM517.812 65.85H504.865V92.121H480.295V65.85H467.254V132H480.295V104.595H504.865V132H517.812V65.85ZM618.647 101.571C618.647 111.021 615.623 118.675 609.575 124.534C603.527 130.393 595.715 133.323 586.139 133.323C575.933 133.323 567.459 130.015 560.719 123.4C554.04 116.722 550.701 108.595 550.701 99.0195C550.701 89.3805 554.009 81.222 560.624 74.544C567.302 67.866 575.555 64.527 585.383 64.527C591.557 64.527 597.195 65.9445 602.298 68.7795C607.401 71.5515 611.37 75.2685 614.205 79.9305L603.054 86.3565C601.479 83.6475 599.085 81.4425 595.872 79.7415C592.722 78.0405 589.194 77.19 585.288 77.19C578.988 77.19 573.791 79.269 569.696 83.427C565.664 87.522 563.648 92.7195 563.648 99.0195C563.648 105.256 565.695 110.422 569.79 114.517C573.948 118.549 579.429 120.565 586.233 120.565C591.273 120.565 595.431 119.463 598.707 117.258C602.046 114.99 604.314 111.903 605.511 107.997H585.477V96.468H618.647V101.571ZM664.079 120.093L668.048 132H682.223L658.976 65.85H642.817L619.664 132H633.745L637.714 120.093H664.079ZM650.944 80.8755L660.016 107.902H641.872L650.944 80.8755ZM753.379 65.85V132H740.432V89.097L721.816 119.809H720.304L701.687 89.1915V132H688.646V65.85H702.065L721.06 97.1295L739.96 65.85H753.379ZM778.745 65.85H765.704V132H778.745V65.85ZM829.263 65.85H842.304V132H832.382L804.032 91.554V132H790.991V65.85H800.913L829.263 106.201V65.85ZM910.425 124.534C916.473 118.675 919.497 111.021 919.497 101.571V96.468H886.327V107.997H906.361C905.164 111.903 902.896 114.99 899.557 117.258C896.281 119.463 892.123 120.565 887.083 120.565C880.279 120.565 874.798 118.549 870.64 114.517C866.545 110.422 864.498 105.256 864.498 99.0195C864.498 92.7195 866.514 87.522 870.546 83.427C874.641 79.269 879.838 77.19 886.138 77.19C890.044 77.19 893.572 78.0405 896.722 79.7415C899.935 81.4425 902.329 83.6475 903.904 86.3565L915.055 79.9305C912.22 75.2685 908.251 71.5515 903.148 68.7795C898.045 65.9445 892.407 64.527 886.233 64.527C876.405 64.527 868.152 67.866 861.474 74.544C854.859 81.222 851.551 89.3805 851.551 99.0195C851.551 108.595 854.89 116.722 861.568 123.4C868.309 130.015 876.783 133.323 886.989 133.323C896.565 133.323 904.377 130.393 910.425 124.534Z"/></svg>
