<svg viewBox="0 0 143 54" fill="none" xmlns="http://www.w3.org/2000/svg"><g clip-path="url(#a)"><path d="m66.665 23.114-2.328-5.164h-1.672v5.164h-2.328v-12.95h4.671c2.426 0 3.868 1.8 3.868 3.969 0 1.817-1.024 2.946-2.176 3.403l2.66 5.578h-2.695Zm-1.809-10.692h-2.19v3.422h2.19c1.023 0 1.691-.715 1.691-1.711 0-1.004-.668-1.711-1.69-1.711Z" fill="white"/><path d="M71.032 20.422h2.496v2.692h-2.496v-2.692Z" fill="white"/><path d="M82.305 12.422v3.18h4.707v2.258h-4.707v5.254h-2.324v-12.95h7.852v2.258h-5.528Z" fill="white"/><path d="m96.184 23.114-2.328-5.164h-1.672v5.164H89.86v-12.95h4.668c2.43 0 3.867 1.8 3.867 3.969 0 1.817-1.019 2.946-2.176 3.403l2.661 5.578h-2.696Zm-1.808-10.692h-2.192v3.422h2.192c1.02 0 1.691-.715 1.691-1.711 0-1.004-.672-1.711-1.69-1.711Z" fill="white"/><path d="m107.583 23.114-.703-2.29h-4.235l-.719 2.29h-2.429l4.336-12.95h1.828l4.351 12.95h-2.429Zm-2.778-9.13-1.504 4.716h2.961l-1.457-4.715Z" fill="white"/><path d="m118.532 23.114-4.723-7.946v7.946h-2.328v-12.95h2.078l4.723 7.93v-7.93h2.324v12.95h-2.074Z" fill="white"/><path d="M127.372 23.223c-1.278 0-2.344-.47-3.215-1.418a3.853 3.853 0 0 1-.973-1.945c-.133-.731-.199-1.801-.199-3.22 0-1.421.066-2.491.199-3.218a3.794 3.794 0 0 1 .973-1.945c.871-.95 1.937-1.418 3.215-1.418 2.289 0 3.98 1.453 4.383 4.09h-2.356c-.254-1.11-.891-1.84-2.012-1.84-.636 0-1.14.223-1.492.676-.484.566-.582 1.148-.582 3.656s.098 3.094.582 3.652c.352.457.856.676 1.492.676 1.121 0 1.758-.726 2.012-1.84h2.356c-.403 2.64-2.106 4.094-4.383 4.094Z" fill="white"/><path d="M140.442 21.805c-.836.91-1.855 1.418-3.211 1.418-1.359 0-2.394-.508-3.234-1.418-1.207-1.308-1.172-2.926-1.172-5.164 0-2.238-.035-3.855 1.172-5.168.84-.906 1.875-1.414 3.234-1.414 1.356 0 2.375.508 3.211 1.414 1.207 1.313 1.188 2.93 1.188 5.168s.019 3.856-1.188 5.164Zm-1.723-8.801a1.868 1.868 0 0 0-1.488-.695c-.641 0-1.172.277-1.508.695-.453.547-.57 1.145-.57 3.637 0 2.488.117 3.094.57 3.637.336.418.867.69 1.508.69.637 0 1.152-.272 1.488-.69.453-.543.586-1.15.586-3.637 0-2.492-.133-3.09-.586-3.637Z" fill="white"/><path d="M76.024 28.575h1.836v24.41h-1.836v-24.41Z" fill="white"/><path d="M82.622 33.559c0-3.445 2.125-5.168 6.38-5.168 1.463 0 2.881.195 4.25.586v1.797a14.349 14.349 0 0 0-4.435-.695c-2.91 0-4.363 1.16-4.363 3.48v14.66c0 2.199 1.258 3.297 3.777 3.297 1.734 0 3.016-.293 3.848-.88v-9.343h1.832v10.442c-1.614.953-3.379 1.43-5.297 1.43-1.918 0-3.395-.391-4.434-1.172-1.039-.782-1.558-2.04-1.558-3.774v-14.66Z" fill="white"/><path d="M98.856 28.575h1.836v24.41h-1.836v-24.41Z" fill="white"/><path d="M114.946 28.575v1.648h-4.836V52.98h-1.836V30.223h-4.836v-1.648h11.508Z" fill="white"/><path d="M132.868 28.575h1.832v22.757h7.66v1.649h-9.492V28.575Z" fill="white"/><path d="M69.797 30.079c-.98-1-2.433-1.504-4.363-1.504H59.61v1.648h5.824c2.664 0 3.996 1.285 3.996 3.848v13.414c0 2.566-1.332 3.847-3.996 3.847H59.61v1.649h5.824c1.93 0 3.383-.5 4.363-1.5.977-1.004 1.465-2.332 1.465-3.996V34.07c0-1.66-.488-2.992-1.465-3.992Z" fill="white"/><path d="M124.036 28.575h-2.641L115.68 52.98h1.903l1.652-7.145.363-1.648 3.117-13.523 3.114 13.523.367 1.648 1.648 7.145h1.907l-5.715-24.406Z" fill="white"/><path d="M37.36 51.875c-12.188-.386-13.133-13.738-13.133-13.738l-.109.024s-.899 13.328-13.086 13.714l-.684 1.165h27.7l-.688-1.165Z" fill="white"/><path d="M20.426 1.997s-1.76 9.578-9.48 16.53C7.036 22.048-1.433 27.868.208 37.22c1.355 7.746 15.461 17.117 23.957.965 0 0 5.734 11.64 14.617 8.125L20.426 1.997Z" fill="white"/><mask id="b" style="mask-type:alpha" maskUnits="userSpaceOnUse" x="24" y="2" width="26" height="45"><path fill-rule="evenodd" clip-rule="evenodd" d="M48.506 37.43c1.299-3.543.273-6.89-1.727-9.964-1.997-3.071-4.977-5.891-7.621-8.393l-.008-.008c-1.513-1.427-2.935-2.774-4.015-4.011-4.251-4.869-6.019-11.01-6.4-12.49l-.086-.332-3.69 8.247 14.737 35.577.109-.041c7.113-2.706 8.643-8.36 8.701-8.585Z" fill="#000"/></mask><g mask="url(#b)"><path d="M22.384 47.824h.14l.094-.332 2.606-.668.18.102-1.204.898h.227L25.532 47l.395.219-.024.605h.137l.02-.531.941.531h.5l2.11-1.304.456.214-1.593 1.09h.238l1.496-1.023 1.57.742-.023.281h.133l.02-.222.464.222h.316l-.77-.363.165-1.918.383-.047.254 2.328h.289l2.597-1.73 1.051.445-.43 1.285h.633l1.07-.308-.55.308h.277l.844-.472.043-.012.047.02.015.308-.195.156h.61l.234-.133.031.133h.137l-.024-.11.203.11h.29l-.461-.242 4.672-3.18.492 1.45-2.36 1.972h.211l2.196-1.836.625 1.836h.14l-.656-1.93.906-.757.364.183.148 2.504h.133l-.14-2.433 3.468 1.746 1.047.687h.246l-.227-.148.293.148h.266l-.016-.011.54-.848.198.86h.137l-.234-1.016 1.746-2.723.496 1.305-1.387 2.433h.157l1.293-2.27.859 2.27h.145L54.27 45.4l.16-.282.555.754.489 1.953h.136l-.414-1.668 1.23 1.668h.337l-3.121-7.8-.063.023.059-.031-3.043-5.688.011-.039-.043-.016-.003-.007h.05l.032-3.274h-.067l.063-.02-1.145-3.331-.062.023.054-.039-2.367-3.578-.055.035.051-.043-2.937-3.207-.051.047.047-.05-4.18-3.743-.047.05.043-.05-1.238-.984-.16-.211-.055.039.055-.043-3.418-4.324-.055.039.055-.043-4.856-6.07-.05.042.05-.043-3.726-4.347L25.696 0h-.172l.067.085L25.509 0h-.25l.093.094-.37-.094h-.532l1.074.281.809 1.254-.27.711-1.043-1.015L24.302 0h-.157l.512.878L23.76 0h-.195l1.351 1.316.73 1.247-1.382-1.153L23.54 0h-.152l.61 1.188L22.574 0h-.21l1.788 1.496.895 1.742-.094.047L21.731.391v.183l3.094 2.782-.386.203-2.137-.352-.57-1.492v.66l.3.61-.3-.266v.18l.347.308-.348.016v.133l.473-.02.004.008.23.605-.707-.52v.169l.793.586.067.172-.86-.606v.168l.864.606-.703.296-.16-.285v.274l.035.062-.012.008-.024-.027v.195l.317.328.418.738-.735-.746v.192l.973.992-.031.535-.942-1.457v.25l.2.309-.2-.25v.214l.942 1.18 1.746 2.649.406 1.257-3.094-1.898v.16l3.075 1.883-3.075 1.45v.147l3.168-1.492 1.903 7.317-5.07-2.778v.153l5.035 2.762-5.036 2.785v.152l5.125-2.836 1.567 8.367-6.692-3.343v.152l6.633 3.312-6.633 3.223v.152l6.727-3.273.121 1.125-.191 1.45-1.739 4.534-4.918-2.304v.148l4.868 2.285-.012.035-1.656 3.098-.79 1.36-2.41 1.503v.157l2.266-1.415-1.691 2.922-.332.403-.243-.114v.149l.157.07-.157.188v.308l.063-.074-.063.117v.293l.383-.73.028.015.113.309-.477 1.058-.047.032v.504l.153-.434.726-.191.403 1.093-1.282.993v.168l1.243-.958-.09.325-1.153.922v.172l1.086-.872-.308 1.102-.778.2v.136l.735-.184-.082.293ZM53.68 42.06l.859 2.172-.84-.79-.02-1.382Zm.527 3.18-.328-.868.465.63-.137.237Zm.207-.368-.707-.957-.004-.285.922.871-.211.371Zm.09.117.183-.32.215.86-.398-.54Zm.605.825-.215-.864 1.399 2.465-1.184-1.601Zm1.36 1.64-1.696-2.992-.875-3.434 2.57 6.426Zm-2.086-3.98-.711-1.797-.016-1.055.727 2.852Zm-28.86 3.363-.109-.059.29-.074-.18.133Zm.407.23-.278-.156.293-.218-.015.374Zm.023-.566-.71.184-1.724-.97 1.551-1.241 1.028.465-.145 1.562Zm-2.738-.957 1.566-1.2.153.071-1.54 1.23-.18-.101Zm.066.191-.218.176.074-.258.144.082Zm-.75-2.554.508-1.125.527-.586.88-.383-.442 1.387-1 .922-.473-.215Zm.363.316-.359.332-.133-.36.07-.163.422.191Zm.325-1.844.02-.043.027-.011-.047.054Zm2.011-30.77.09-.027.137.184-.008.004-.219-.16Zm.141.7-.293-.184.156-.085.137.27Zm-.254-.805-.355-.664.472.625-.117.04Zm-2.18-4.183h.293l.141.144.133.41-.566-.554Zm.547.722-.226-.027-.219-.406.445.433Zm1.676-1.183.313.293-2.543-1.832-.036-.07.055-.028 2.211 1.637Zm-2.078-1.707.184-.098 1.101 1.047-1.285-.95Zm2.21 2.039-1.507-.004-.742-1.617 2.25 1.62Zm-1.655-.004h-.215l-.504-1.563.719 1.563Zm-.149.207-.02-.074h.227l.25.543-.457-.469Zm.5.711-.277-.035-.125-.387.402.422Zm.137.152.156.38-.418-.41.262.03Zm.094-.125-.371-.808h1.632l.336.242.188.84-1.785-.274Zm4.597-1.847 1.274 2.465-.098.101-2.61-2.52-.718-1.398.93.258 1.222 1.094Zm-.93-1.008.477.133.278.539-.754-.672Zm2.266 2.02-1.226-1.098-.235-.453 1.461 1.55Zm-1.441-1.723.515.25.833 1.176-1.348-1.426Zm10.64 12.918-.238.297-.636-.746.347-.024.527.473Zm-.34-.489.024-.004.055.075-.078-.07Zm8.423 11.516-.004.04-.168.105-.727-1.114.899.969Zm-.672-1.043h.004l.011.023-.015-.023Zm1.316 12.86.64-1.29 1.508 1.043-.937.953-1.21-.707Zm1.113.808-.543.555-.515-1.176 1.058.621ZM39.1 47.18l-.176.175-.172-.074.348-.101Zm-.078-.117.054-.032.004.016-.059.016Zm-.051-.922 2.601-1.793-1.597 2.011-.133.09-.68.383-.191-.691Zm1.097.316.965-.684-1.074.82.11-.136Zm.301-.379 1.574-1.984 1.102-.242.281.136-2.957 2.09Zm-8.25-1.656.043-1.453.2 1.558-.024.016-.219-.121Zm.094.207-.102.066.004-.12.098.054Zm-.04-2.64-.05-2.801.297-.028 2.738 1.114-2.957 1.921-.027-.207Zm-8.425 1.742.375-1.184 1.863-1.715.559.438-.246 1.746-.621.476-1.555.407-.375-.169Zm.168.222-.262.067.051-.16.211.093Zm4.066-7.62.016.015-.398.441-.075.02.457-.477Zm0-.192-.398-.387.07-.39.434.203-.04.507-.066.067Zm.028.394-.012.14-.156.044.168-.184Zm.097.512.47-.293.823.563.008.347-1.441 1.234.14-1.851Zm-.425-22.367.304-.094.84 1.188-.683-.375-.461-.72Zm.214.586-.14-.078-.043-.208.183.286Zm-1.93-3.766.93.254.196.922-.531-.34-.594-.836Zm.055.66-.003-.008.003.004v.004Zm4.301-3.527-.5-.125.176-.188.324.313Zm-.23-.414.066-.07.14.273-.206-.203Zm3.742 4.09-2.66-1.973-.457-1.305 3.117 3.278Zm-3.02-3.371 1.332.535 1.575 2.52-2.906-3.055Zm4.079 4.98.418.785-.555 1.14-1.09-1.21.781-.715h.446Zm-.055-.406.02-.125.378.394h-.097l-.301-.27Zm4.191 4.656-.554.691-1.059-.507-.488-.914 1.383-.106.718.836Zm-1.855-2.371 1.515 1.371-.32.024-1.195-1.395Zm2.105 2.656 1.149 1.34-1.438-.688.29-.652Zm-.074-.285.117-.145-.082.18-.035-.035Zm.133.149.164-.372.207.34.637 1.207-1.008-1.175Zm10.531 18.011.008.086-.027-.039.02-.047Zm-.012-1.965.41-.02-.34.2-.058-.063-.012-.117Zm.016 2.356-.465.93-.023-.06.047-.066-.055-.039.063.024.308-.848.125.059Zm-4.367 4.883-.153-.758 1.551-.156-1.398.914Zm1.074-.543-.996.945-.05-.262 1.046-.683Zm-3.977 2.437-.269-.129.25-.468.512.277-.492.32Zm.012.156.23.106-.597.133.367-.239ZM34.95 33.25l.188-.148 1.515-.828.325 1.269-1.352 1.547-.676-1.84Zm.63 2.125-.052.004.04-.035.011.031Zm-8 6.828-.013.176-1.164.863.024-.156 1.152-.883Zm-1.126.695.215-1.53.879.69-1.094.84Zm1.102-.343-.04.55-.93.172.97-.722Zm.09.664 1.488-.274.37.203.02.895-2.004 1.387-.023-.012.148-2.2Zm1.511-.414-1.117-.61 1.43-1.062.027 1.61-.34.062Zm.344.074.004.113-.16-.086.156-.027Zm-1.59-.758-.133-.07 1.684-1.36.004.274-1.555 1.156Zm-.121.09-.078.063.004-.106.074.043Zm.133.07 1.023.563-1.293.234.043-.629.227-.168Zm1.594-6.043.015.012-.015.004v-.016Zm-.016-.215-.121-1.113.223-.265 1.242-1.297.261 1.8-1.605.875Zm-.117.407.011.718-.695-.472.156-.098.528-.148Zm-.121-.106.117-.074v.043l-.117.031Zm1.617-7.175.48 3.081-.27.372-.214.05-.453-2.832.457-.672Zm-.488.476-.047-.289.37-.188-.323.477Zm-.465-2.805.07-.172.344-.218.078.39-.332.903-.16-.903Zm.11 1.43-.02-.008.011-.031.008.04Zm-.528-8.102-.02.192-.148-.086.008-.465.16.36Zm-.086-.53.133.058-.02.203-.113-.262Zm.18.94.117.067.574 1.313-.844.09.152-1.47Zm.015-.144v-.016l.008.02-.008-.004Zm-.86-6.52.345.215-.29.09-.054-.304Zm.173 1.797-.809-1.144.582-.176.227 1.32Zm-.2-1.976-.242-1.395 1.336 1.575-.555.164-.539-.344Zm-1.687-1.922 1.281.352.25 1.472-1.324-.84-.207-.984Zm.172 1.473-.45-.637.364.23.086.407Zm3.992-2.414.61 1.75-1.216-1.243.106-.898.5.39Zm-.484-.551.015-.117.317.234.07.195-.402-.312Zm14.93 18.59.128.949-1.488-2.067.8-.007.56 1.125Zm-.41-1.125.253-.004.098.707-.352-.703Zm3.937 9.664-2.727.16-.031-.02-.356-.664 1.903-1.086.75.352.46 1.258Zm-.285-1.176.73.348-.297.816-.008.004-.425-1.168Zm-5.54 4.898-.254.48-.105-.253.36-.227Zm-.41.102-.054-.133.343-.05-.289.183Zm-.11-.262-.726-1.746 1.035-.625.86.371-.52 1.91-.648.09Zm-4.593.438-.332-.16.008-.34.406-.278.027.711-.109.067Zm.09.187-.184.028.102-.063.082.035Zm-5.164-7.597-1.535-.711-.074-.664 2.87-.426.34.93-1.601.87Zm1.3-.555-.913.734-.235-.105 1.149-.63Zm-4.034-7.258-.075-.367.457-.102-.105.285-.277.184Zm.199.031-.125.34-.047-.23.172-.11Zm-.239-.546.653-1.489.285.145-.46 1.242-.478.102Zm1.512-3.79-.738 1.684-.676-1.531 1.414-.153Zm-1.472.02-.52-1.184 1.832 1.047-1.312.137Zm-.262-7.992-.016.152-.097-.117.113-.035Zm-.207-.078-.985-1.16 1.141 1.113-.156.047Zm-1.27-1.625 1.633.351-.129 1.114-1.504-1.465Zm.828-2.02.04.09-.087-.086.047-.004Zm-.222-.844.851.664-.543.04-.308-.704Zm.418 1.286.66 1.5-.035.293-1.828-.395-.106-.102-.484-1.629 1.375-.093.418.425Zm.804 1.832-.047-.008.008-.082.04.09Zm-.007-.356.066-.594 1.195 1.223-1.09-.238-.171-.39Zm.074.508.5 1.137h-.762l.133-1.165.129.028Zm.562 1.273.586 1.336-1.324-1.34.738.004Zm-.746-2.023-.422-.961.477.488-.055.473Zm-.148 2.523.515.61-.547-.348.032-.262Zm.02-.183.027-.239 1.586 1.606.082.187-.817-.52-.879-1.034Zm1.718 1.726-.172.098-.375-.442.547.344Zm.418.61-.152-.43.101.074.051.356Zm-.223-2.649h.641l.64.715-1.054.969-.227-1.684Zm.043 2.035.004-.004.035.032-.039-.028Zm.043.637-.363-.43.176-.101.187.531Zm.067.285-1.114-.324.567-.324.547.648Zm.097.172.024.066-.047.614-1.984.238-.461-.695 1.097-.625 1.371.402Zm1.645.48.023-.046.133.035-.156.012Zm.332.11 2.156 1.5-.027 1.172-2.43-2.649.3-.023Zm2.125 2.867-.012.367-.77.153-2.07-2.653.301-.644 2.55 2.777Zm4.89 3.57-.058.325-1.105.074-.036-.082.614-.54.586.224Zm-.472-.324.14-.12.204.25-.344-.13Zm.812.758.942 1.309-.895 1.492-.672-1.027.336-1.754.29-.02Zm-.261-.117.039-.195.129.183-.168.012Zm.23-.16.23.129-.132.007-.098-.136Zm4.438 7.008.605.449.254.41-.953 1.433-1.195.696-.32-.153.98-2.812.629-.024Zm-.578-.114.085-.254.32.239-.406.015Zm.792.106.106-.004.094.148-.2-.144Zm-5.425 6.906-2.77.336 1.906-1.168 1.211.539-.347.293Zm.449-.203.059.14-.262.032.203-.172Zm-4.543-6.82.352.167-.258.196-.094-.364Zm.027.632-.07.008.059-.047.011.04Zm-4.863-9.726 1.262 2.332-.645.422-1.164-.489.547-2.265Zm-.645 2.093-.152-.351.527-1.203-.375 1.555Zm.801-3.464-1.68-2.555 1.891-.23-.21 2.785Zm.102.414-.059.125.04-.16.019.035Zm.082.137.27.44-.516.102.246-.543Zm.285-3.926.3.386-.155.02-.145-.406Zm.008.422-.117.011.02-.281.097.27Zm3.535 4.437-.426.375.313-.41.113.035Zm-.023-.148.074-.102.093.121-.023.024-.144-.043Zm6.003 6.273.184.395-.437-.172-.157-.485.028-.023.383.285Zm-.27-.371.071-.05.078.163-.148-.113Zm2.763 6.726.308.57-.488.731.02-1.293.16-.008Zm-.035-.355.105.05-.063.036-.043-.086Zm-.153 2.262v-.114l.992.688-.789.453-.203-1.027Zm.078 1.097-.097.055.007-.508.09.453Zm-.074-1.37v-.083l.563-.843.828 1.542-.274.157-1.117-.774Zm.336-1.637.504-.028.039.02-.305.453-.238-.445Zm-.074-.133-.004-.016.144-.082.176.082-.316.016Zm-.262-.024-.043-.195.023-.027.094.18-.074.042Zm-.027-.5-.145-.234-.57-2.387 1.652-.062-.937 2.683Zm-4.36-.257 1.141-.75 2.262.863.246.758-1.797.199-1.852-1.07Zm1.625 1.097-1.593.176-.477-.98.316-.211 1.754 1.015Zm-.758-6.191 1.672 2.683-3.875.313 1.364-2.356.84-.64Zm-.597.219.355-.61.11.18-.465.43Zm.515-.606.098.04-.047.042-.05-.082Zm.192.305.2-.149.538.211.754 2.336-1.492-2.398Zm.008-.176.039-.035.004.004-.043.031Zm.316-.07.254-.192.105.332-.359-.14Zm-.148-.059-.02-.008.356-.328.023.067-.36.27Zm.125-.324-.285.262-.293-.118.011-.058.567-.086Zm-.54-.055.083-.437.547.343-.63.094Zm-.144.02-.043.008-.8-1.141.949.598-.106.535Zm-.656 1.273-.082.07-1.961 1.493-1.16-2.121 3.586-.536.203.078-.586 1.016Zm-1.125 1.035-.8.742-.056-.093.856-.649Zm-.906.836-.364.336-.168-.082.477-.36.055.106Zm-.34.496.336.16-.559.047.223-.207Zm.11-.097.296-.278.277.508-.078.008-.496-.238Zm.398-.371 1.632-1.508-1.207 2.09-.101.007-.324-.59Zm.507.71 4.035-.324.024.032.09.289-1.606 1.058-2.582-.988.04-.067Zm4.395-.003.539-.356.473 1.98-1.012-1.624Zm1.11 2.039.042.168-.617-.239-.578-1.785 1.152 1.856Zm-1.18-2.157-.137-.218.535-.043-.398.261Zm-.133.25.574 1.778-2.07-.793 1.496-.985Zm.789 2.004.601.23.032.122-.254.312-.157.016-.222-.68Zm.672.52.027.11-.129.011.102-.121Zm-.184.265-.074.047.035-.039.04-.008Zm.223.024-.02 1.332-.355-1.102.375-.23Zm-.684-3.508-1.062-2.27.87.34 1.493 1.118-1.3.812Zm-1.144-2.45-.141-.292.684.508-.543-.215Zm-.102.106 1.113 2.38-.734.062-.844-2.625.465.183Zm-.71-1.125.081-.136.074.113-.156.023Zm-.102-.09-.434-.988.535.817-.101.171Zm-.16-.027-.524-.328.117-.602.406.93Zm-.442-1.465-.152-.234-.559-1.285 1.02-.067-.309 1.586Zm-.594-.91-.386-.59.125-.008.261.598Zm.325.739.21.488-.144.742-1.18-.742-.648-.922.918-.852.843 1.286Zm-1.84-.547-.465-.657 1.285-.101-.82.758Zm.43.847-.684-.43.23-.214.453.644Zm.203.285.949 1.352-.067.008-2.824-1.102.953-.879.988.621Zm.617 1.399-3.407.508-.312-.575 1.05-.972 2.669 1.039Zm-4.41-1.05.519.956-.219.203-.3-1.16Zm.296 1.667-.41.059.34-.313.07.254Zm.293-.586.274.5-.434.063-.09-.336.25-.227Zm.035-.219-.765-1.402-.055-.203 1.797.7-.977.905Zm-.437.403-.484.449-.676-1.461.554-1.016.149.274.457 1.754Zm-2.281 2.011-.477-.25.254-.355.223.605Zm-.336-1.261.347-.02-.203.38-.144-.36Zm.254.648.61.29-.372.363-.238-.653Zm-.028-.164.282-.512 1.425-.086-.968.95-.739-.352Zm.196-4.457-.282-.527.598-.39.172.28-.488.637Zm.004.316-.051-.023.027-.035.024.058Zm1.011-.343-.363-.602.398-.523.29 1.101-.325.024Zm.36.11.203.78-.008.028-.477-.786.282-.023Zm-.512-.095-.727.055.426-.555.301.5Zm-.29-.738-.144-.242.57-.367.008.043-.433.566Zm-.21-.355-.621-1.024 1.168.668-.547.356Zm-.766-1.262-.496-.824 1.168-.23.645 1.808-1.317-.754Zm-.238-.137-.96-.55.562-.11.398.66Zm.14.238.747 1.235-.594.386-1.203-2.222 1.05.601Zm1.442 2.383.48.793-1.23-.52-.098-.206.848-.067Zm.555.969-.532.973-.687-1.485 1.219.512Zm.09 2.637-1.426.082.793-1.45.633 1.368Zm.078.183.644 1.746-1.636-.78.992-.966Zm-.153-3.836.328-.023-.183.574-.145-.55Zm-.035-.133-.32-1.226.012-.016.918.579-.2.632-.41.031Zm-.406-1.519-.656-1.832 1.781.543-.695.91-.43.379Zm1.21-1.402-1.66-.508 1.321-.262.469.602-.13.168Zm-1.92-.594-.79-2.203.297-.633 1.984 2.543-1.492.293Zm-.524-3.098-.38-.484.645-.078-.265.562Zm-.477-.61-.406-.519.922.239.191.195-.707.086Zm-.059.141.473.61-.266.574-.414-1.156.207-.027Zm.899 3.524-1.426-.438.719-1.546.707 1.984Zm-.129.101-1.043.204-.34-.555.027-.063 1.356.414Zm-1.164 3.52.453.188-1.117.242.664-.43Zm.137-.09.558-.363.29.531-.302.063-.546-.23Zm.793.317-.012.011-.016-.008.028-.003Zm.035.18.218.09.794 1.706-.88 1.61-.48.03-.766-1.894 1.114-1.543Zm-.282 3.956-.82-.34.668-.039.152.38Zm.02.153-.293.406-1.602-.836.75-.047 1.145.477Zm-.254.582.586.304-2.172 2.125-.027-.183 1.613-2.246Zm.66.418.606 1.656-2.703.398 2.097-2.054Zm.145 0 2.57 1.347-1.973.29-.597-1.637Zm.008-.149.402-.394 1.805.863.312.851-2.52-1.32Zm1.613-1.531.555-.082.574 2.187-.426-.203-.703-1.902Zm.691-.102.465-.07 1.195 2.188-.546.414-.516-.25-.598-2.282Zm1.13 2.688.183.086-.313.285-.195.02-.031-.122.355-.27Zm-.216.633.145-.13.96-.077.192.09-.504.578-.793-.461Zm.703.562-.558.64-.168-1.058.727.418Zm.688-.582.55 1.145-1.03-.598.48-.547Zm.148.004 2.407.918-1.117.734-.68-.39-.61-1.262Zm1.164 1.738-.246.16-.203-.421.45.261Zm.145 1.282-2.223.25 1.778-1.172.445.922Zm.063.129.77 1.59-.735.449-2.336-1.04-.117-.73 2.418-.27Zm.187 2.105.64-.395.415.864-1.055-.469Zm-.043-2.121 1.727-.192.937.543-1.926 1.184-.738-1.535Zm1.953-.219 1.64-.18.036.102-.098.117-.734.453-.844-.492Zm1.32.36-.23.273-.113-.066.343-.208Zm.348-.215.067-.04.355 1.11-.879-.512.457-.558Zm.496 1.332.035.175-.02 1.2-2.292.277-.016-.008 2.293-1.644Zm-.218 1.539-.965.586-.848-.367 1.813-.22Zm.19.039-.253.933-.754-.324 1.008-.61Zm.165-.078.16-.012.277 1.395-.73-.317.293-1.066Zm.266-.172.882-.504.63.434-1.508.09-.004-.02Zm1.015-.578.211-.125.23.43-.44-.305Zm-.593-1.914.351-.532 2.324 1.098-1.816 1.04-.86-1.606Zm.335-.75-.117.008-.324-.157.879-.508-.438.657Zm-.023-3.309-1.535.059 1.195-.746.457.34-.117.347Zm-1.473-1.7 1.532.602-.391.246-1.14-.847Zm-.41-.308-1.281-.953-.172-.375 2.008-.016 1.55 2.153-.019.012-2.086-.82Zm-1.348-1.465 1.196-.863.61.848-1.806.015Zm-.195-.027-.129-.195.899-1.5.543.75-1.313.945Zm-1.851-3.371-.348-.793.871.328-.523.465Zm-.11.094-.125.11-1.093-1.364.804.304.414.95Zm-.265.148-1.43.113-1.625-2.304 1.852.695 1.203 1.496Zm-.977.992-.27.25-1.421-.894 1.172-.094.52.738Zm-.371.344-.973.898-1.953-.761-.05-.184.265-.832 1.164-.094 1.547.973Zm-2.664-1.02.176-.546.75.472-.926.075Zm.098-.753-.88-.555.348-.453 1-.88.125.036-.593 1.852Zm.562-2.153-.11-.14.173-.227-.008.32-.055.047Zm-.195-.254-.407-.515.68-.133-.008.305-.265.343Zm-2.305-4.172-.062-.062.085.02-.023.043Zm-.246-.25-.305-.308.524.367-.219-.059Zm-.258-.066-.848-.223-.085-.632.277.191.656.664Zm-.906.676.176-.023.468 1.312-.78 1.691-.087-.023.223-2.957Zm-.48 2.844-.903-.414-1.262-2.11.47-.058 1.694 2.582Zm.109.199-.184.765-.707-1.175.89.41Zm-1.004 3.039.11.246-.177-.09.067-.156Zm-.195 1.785.343-.074-.414.27.07-.196Zm.054-.152.39-1.051.34.844-.12.078-.61.129Zm.512-1.113.98.41-.644.418-.336-.828Zm1.8.757.165.07-1.043 1.45-.496-1.223 1.375-.297Zm-.195 3.57-.898.051-.875-.363 1.055-1.46.718 1.773Zm-1.203.07-.699.044-.129-.07.176-.243.652.27Zm-.726.18 1.785.93-1.527 2.125-.477-3.043.219-.011Zm.191 3.516-.117.024.102-.141.015.117Zm.028.2.054.507-.375-.172.32-.336Zm-.45.273-.015-.004.203-.281.11-.024-.298.309Zm-.078-.149-.012-.074.079-.02-.067.094Zm.11.313.492.227.156 1.44-.434.24-.265-1.852.05-.055Zm.664 1.816.074.641-.426.117-.078-.523.43-.235Zm-.032-1.523 1.371.637-1.226.672-.145-1.31Zm2.918-1.266 1.805-.265-1.309 1.054-.171.094-.325-.883Zm2-.25.051.192-.887.484.836-.676Zm-.254-1.113.403.195.14.528-.203.152-.023-.012-.317-.863Zm.395 1.055.188.097-.157.086-.047-.183h.016Zm.277.199.192 1.219-.094.109-.309-1.21.211-.118Zm.22 1.394.167 1.063-.246-.973.078-.09Zm.116-.132.649-.746 1.226.707.297.617-1.883 1.242-.289-1.82ZM37.517 36l-.528-.234.461-.325.067.56Zm-.672-.3-.532-.235.954-.059-.422.293Zm.015.155.676.301.293 2.352-1.062.101-.711-2.195.804-.559Zm.774 2.805-.703.461-.121-.379.824-.082Zm-.82.535-.426.274-1.172-.574 1.453-.141.145.441Zm.042.133.141.442-.469-.23.328-.212Zm.118-.074.859-.559-.031 1.47-.637-.313-.191-.598Zm.808-2.988 2.172.965-1.84 1.128-.332-2.093Zm.153 3.965.035-1.602.047-.008.28 1.781-.003.004-.36-.175Zm.246.273-.258.219.008-.344.25.125Zm-.192-2.066-.031.015-.125-.996.156.98Zm-.082 2.98.2.094-.204.125.004-.219Zm.246-2.813 2.633-.32-2.367 2.016-.266-1.696Zm2.875-.347.485-.059-2.68 1.926 2.195-1.867Zm.43-.567-.457-.945 2.004-1.226.156.093-1.703 2.078Zm1.824-2.011.961.558-2.36 1.696-.331-.145 1.73-2.11Zm-1.523 2.343-.02.012-.125.016-.043-.11.188.082Zm.031.141.23-.027.973.422-.933.562-.368-.883.098-.074Zm2.34.883.797.344.117.593-1.398.832.484-1.77Zm.941 1.078.121.602-1.359.136 1.238-.738Zm.098-.215-.09-.457.496.215-.406.242Zm-.125-.617-.29-1.465 1.602-.094.598 1.114-1.234.734-.676-.289Zm1.52-1.465.972.676-.465.273-.508-.949Zm.07-.113 2.468-.149-1.44.86-1.028-.711Zm1.476-1.977.371-.215.172.47-.543-.255Zm-.148-.07-2.34-1.105 2.461-.118.352.953-.473.27Zm-.129-2.297.574.926-.23.012-.344-.938Zm.203.945-2.387.11.532-.8 1.316-.77.54 1.46Zm-.637-2.12.356.355-.184.11-.172-.466Zm.04.538-1.087.637.766-1.156.32.52Zm-.36-.832.059.043-.016.02-.043-.063Zm.121.192.012-.02.031.09-.043-.07Zm-.02-.414-.234-.48.278-.008-.043.488Zm-.3-.61-.149-.297.41.286-.261.011Zm-.082.137.246.496-.156-.113-.235-.379.145-.004Zm-.227-.125-.453-.738.383.27.23.46-.16.008Zm-.62-1.023-.02-.13.18-.112.269.542-.43-.3Zm-.04-.278-.07-.508.207.422-.137.086Zm-.008.473.516.832-.195.008-.485-.364.164-.476Zm-.28.39-.384-.285.438-.27.125.048-.18.508ZM44.2 27.638l-.668-.926.766-.55.73 1.468-.828.008Zm-.058-2.102.449.246-.242.176-.207-.422Zm-.106-.21-.203-.415.566.61-.363-.196Zm-.101.097.304.613-.785.567-.574-.801.43-.719.625.34Zm-1.141.262-.86-1.196.262-.015.996.543-.398.668Zm-1.219-1.704-.133-.656.262-.23 1.445 1.18-.922.062-.652-.355Zm-.168-.808-.078-.383.27.219-.192.164Zm-.015.594-.188-.23.121-.106.067.336Zm-.274-.336-1.96-2.41 2.007 1.636.125.621-.172.153Zm-.101.09-.196.172-1.062-.403-1.032-2.363h.18l2.11 2.594Zm-2.348-2.73-.113-.263.086.07.156.192h-.13Zm-.09.132 1.004 2.305-.898-.34-1.301-1.617.398-.348h.797Zm-.305-.617-.543.48-.632-.004.668-.828.507.352Zm-.425-.457.09-.11.19.23.06.118-.34-.238Zm-.27 1.07-.281.246-.2-.246h.481Zm.356-.133.421-.37.164.374-.585-.004Zm.304-.89-.168-.32.442-.548.297.141-.41.922-.16-.195Zm-.238-.45-.477-.89.864.414-.387.476Zm-.207-.101-.883-1.082.406.191.477.89Zm.059.285-.114.144-1.027-.714.023-.805 1.117 1.375Zm-.2.25-.699.867-.273-.3.027-1.223.945.656Zm-.824.926-.16.031.004-.195.156.164Zm-.031.144-.137.176.004-.148.133-.028Zm.16.008.238.297-.547.484.008-.383.301-.398Zm.324.402 1.153 1.434-1.797-.676.008-.195.636-.563Zm.938 3.262-1.274.102-.933-.59.578-1.82 1.629 2.308Zm-1.64-5.652-1.946-1.356h.008l1.96.508-.023.848Zm-.11-1.02-1.414-.367 1.011-.078.403.445Zm-.23-.46.195-.012.093.336-.289-.325Zm-1.587-.012-.347-.09-.114-.082.598-1.223 1.164 1.293-1.3.102Zm-.574-.25-1.2-.829-.405-.414-.032-.226 1.125-1.035 1.125 1.25-.613 1.254Zm-1.062-3.313h1.23l-.672.617-.558-.617Zm-.122-.137-.695-.773 2.254.723-.059.054-1.5-.004Zm-.183 0-.54-.003-.093-.7.633.703Zm-.414 1.926-.055.051-.238-.242-.703-1.606.754.004.242 1.793Zm-1.059-1.93-.484-1.105 1.168.254.113.851h-.797Zm-.64-3.566-.082-.07.093-.004-.011.074Zm-.016.156-.102.871-.648-.664-.164-.375.645-.043.269.211Zm-.227-.347-1.125-.88.028-.03 1.238.898-.14.012ZM29.24 8.93l-.23-.168-.184-.356.739.18-.325.344Zm-.09.097h-.004.004Zm-.05.211.367.836-.11.008-.632-.644.375-.2Zm.078.86-1.29.086-.073-.254.788-.422.575.59Zm-1.407-.301-.484-1.633 1.215 1.242-.73.39Zm-.019.398-.5.035.438-.234.062.2Zm.039.133.422 1.426-.402-.395-.875-.96.027-.012.828-.059Zm-.078 1.125.465.508-1.164-.316-.235-1.102.934.91Zm2.207 2.555.219.258-.036.324-.68-.434.497-.148Zm.293.812.855.54.641.757-.656.375-.988-.293.148-1.379Zm.68 1.762-.93.531.086-.777.844.246Zm-.61 1.395-.418.05.063-.593.355.543Zm-.449-.93-.629-.957.711.207-.082.75Zm0 1.266 1.11 1.855-1.243-.574.133-1.281Zm-.09-.407-.242-.375.3-.168-.058.543Zm1.324 2.47.79 1.316-2.032-1.16-.18-.403.044-.39 1.378.636Zm-1.609 1.784.895-.093.742 1.687-.114.262-1.222-.63-.301-1.226Zm.145 1.145-.262-.137.062-.664.2.8Zm1.324.836-.63 1.433-.495-2.011 1.125.578Zm-.617 2.144-.223.145.172-.414.05.27Zm-.422.274-.004.004-.074-.418.332-.2-.254.614Zm-.059.496.121.683-.265-.332.144-.351Zm.64.015.223 1.102-.547-.227.325-.875Zm.09-.238.262-.719.867-.558.141-.032.54 1.325-1.126 1.554-.402-.168-.281-1.402Zm.606 1.684-.172.234-.054-.027-.063-.328.289.12Zm-.39 4.367-.075-.055.067-.015.007.07Zm.351 2.406.07.496-1.469.41-.136-.066 1.535-.84Zm.09.629.023.172-.625.539-.703-.344 1.305-.367Zm.047.332.11.754-.626-.309.516-.445Zm.101-.262-.015-.105.203-.059-.188.164Zm.403-.172.093 1.426-.34-.168-.136-.93.383-.328Zm.043-.898 1.363-.746.265.121-1.558 1.254-.07-.629Zm1.765-.559 1.906.883-.168.153-3.277.203 1.54-1.239Zm.117-.093 1.149-.926.64 1.754-1.789-.828Zm2.02.933 1.305-1.5.402 1.563-1.371.086-.336-.149Zm.043.164-.035.004-.008-.023.043.02Zm.27.121.69.305-.702.492-.25-.78.261-.017Zm.601 3.137-1.64.16-1.36-.672 2.316-1.613.684 2.125Zm-.367.934-.965.629-2.586-1.051 2.25-.215 1.3.637Zm.14.07.657.324.351 1.094-1.96-.797.952-.62Zm1.145 1.395-.32-.989.574.282-.012.527-.086.074-.156.106Zm.055.691-.891.09.77-.535.12.445Zm.183-.691-.004.187-.136-.066.14-.117v-.004Zm-.008.335-.007.34-.032.004-.113-.418.152.075Zm.016 1.04.496 1.789-.91.57.414-2.36Zm.535 1.925.078.297-.785.145.707-.442Zm.078-.21-.558-2.028.047-.266.476-.066.094 2.324-.059.035Zm.063.117.008.125-.032-.11.024-.015Zm-.004-3.582.566.312-.543.324-.023-.636Zm.05-.125 3.067-2.204.363.875-2.78 1.684-.65-.355Zm3.485-1.204.7 1.696-2.618.363-.781-.426 2.7-1.633Zm.754 1.825.078.187-1.32.828-1.235-.672 2.477-.343Zm.133.312.136.336-.492.926-.883-.485 1.239-.777Zm-.239 1.328.442-.832.402.969-.27.176-.574-.313Zm.899.262.121.293-.309-.172.188-.121Zm-.375-1.246.41-.773 1.64-.165.165.82-1.778 1.16-.437-1.042Zm2.16-1.086-.133-.66.532-.317 1.507.649-.101.144-1.805.184Zm.543-1.063 1.145-.683.527.984-.227.32-1.445-.62Zm1.742.434.223.414-.395-.168.172-.246Zm-.48-1.184.523-.312.574.398-.597.844-.5-.93Zm.652-.386 1.352-.805-.828 1.164-.524-.36Zm1.504-.79.035.09-.656 1.31-.25-.173.871-1.226Zm.098.266.804 2.188-1.41-.977.606-1.21Zm.285-1.515-.844-.399-.23-.617.386-.223.715 1.157-.027.082Zm-1.121-1.145-.325-.887.258-.011.43.691-.363.207Zm-.926-2.543.227-.133 1.593 1.598-.886.04-.934-1.505Zm-.328-.883.062-.691 1.227.86-.711.41-.578-.579Zm.105-2.75-.066-.101.078-.05-.012.151Zm.102.399.95 1.457-1.083.043.133-1.5Zm-.121-.184-.14 1.598-.638-.445-.382-.774 1-.625.16.246Zm-1.219.258-.383-.773-.152-1.09.7-.008.82 1.254-.985.617Zm-.55-2-.13-.933.508.546.25.383-.629.004Zm-.16-1.168-.009-.059.106.169-.098-.11Zm.023 1.172h-.301l-.766-1.55.3-.22.614.66.152 1.11Zm-.415-1.59.211.113.02.133-.23-.246Zm-.218-.273.093-.067.153.2-.246-.133Zm.011-.176-.125.09-1.101-1.188-.02-.113.309-.02.937 1.23Zm-.773-1.242.223-.016.566 1.055-.789-1.04Zm-.492-.102-.067-.406.297.39-.23.016Zm-.031.418.27.547-.45-.246.18-.3Zm-.297.234-.817-.44.86-.06.172.141-.215.36Zm-1.457-1.894.496-.434 1.004 1.657-1.5-1.223Zm.527-.64-.27-.45.313.41-.043.04Zm-.844-1.43.215.004 1.152.968-.379.328-.988-1.3Zm-.101-.133-.16-.266.316.266h-.156Zm-.078.133.921 1.52-.53.464-.415-.336-.336-1.648h.36Zm-.387-.137-.11-.527.403.53-.293-.003Zm.2 1.648-1.864-1.52 1.55.009.313 1.511ZM39.09 20.79l-.356-.285-.238-.297.438-.98 1.691.812.156.758-1.691-.008Zm-.227-1.742-.265-.129.52-.645.062.07-.317.704Zm-1.652-.793-.485-.23-.156-.56.207-.015.434.805Zm-.676-.922-.2-.715.372.7-.172.015Zm-.14.012-.27.02-1.273-1.41.539-1.102.652 1.218.352 1.274ZM34.59 13.78l.011-.008.032.008h-.043Zm.125-.113.027-.023.02.039-.047-.016Zm.011-.316-.187-.301.203.215-.016.086Zm-.07.187-.09.082-2.53-.808-.634-1.809 3.254 2.535Zm-3.336-2.773-.07-.203 2.934 2.175.316.508-3.18-2.48Zm-.344-.575-.253-.187-.04.055.04-.055-1.372-.996.36-.387.785.195.48 1.375ZM29.67 8.473l-.926-.227-1.168-2.265L29.9 8.227l-.23.246Zm-.902.113-.407-.297.293.074.114.223Zm.136.266.04.074-1.04-.746.11.023.89.649Zm.102.285-.379.203-1.266-1.297.196.05 1.449 1.044ZM27.61 7.969l-.535-.39-.035-.079.68.496-.11-.027Zm-.347-.086-.07-.02-.02-.043.09.063Zm-.172.101.558 1.88-.722.39-.117.008-.121-.133-.512-2.285.914.14Zm-.45 2.575.223 1.046-1.012-.277-.117-.285.907-.484Zm-.96.359-.067-.16.965-.32-.898.48Zm.578 1.23-.13-.082-.077-.214.207.296Zm.207.29.82 1.16.149.707-1.079-1.637-.148-.394.258.164Zm.945 1.105-.121-.582 1.316.836.075.441-.641.192-.629-.887Zm.492.926-.277.086-.145-.676.422.59Zm1.078 1.543.055.789-.746-1.164.691.375Zm-.148-1.68.418-.125.836.531-.156 1.422-.825-.242-.273-1.586Zm.305 3.961-.282.113-.187-.394.433-.25.036.531Zm-.41.164-.297.117-.079-.383.196-.113.18.38Zm.058.121.297.63-.578-.516.281-.114Zm.125-.05.238-.094.047.695-.285-.602Zm.277-1.489-.058-.816.656.992-.355.203-.242-.379Zm.126.445-.09.055-.016-.219.106.164Zm.07.118.3.468-.414.168-.039-.55.153-.086Zm.324.605-.137 1.328-.219-.101-.074-1.055.43-.172Zm-.367 2.203.133.074-.13 1.266-.023-.082.02-1.258Zm-.016 2.907.32.163.56 2.274-.419.25-.465-2.66.004-.027Zm.434 3.328-.45.293-.269-.336.645-.383.074.426Zm.027.144v.016l-.2.48-.19-.242.39-.254Zm-.16.758.355.445-.086.184-.433-.227.164-.402Zm.215.754-.692 1.492-.304.156-.043-.398.61-1.477.429.227Zm.12.062.103.055.132.844-.851.433.617-1.332Zm.224-.035-.04-.234.579.238.062.309-.601-.313Zm.636.485.024.117-.52.265-.113-.699.61.317Zm-.078 3.867-.187.043-1.414-1.012 1.172-1.727.43 2.696Zm.027.363-1.269 1.512-.14.148-.169-1.543 1.332-.293.246.176Zm-1.406 2.973-.656-.305.555-.66.101.965Zm-.058.12-.504.317-.305.086-.308-.207.43-.516.687.32Zm-1.098-.038-.031.039v-.004l.031-.035Zm-.016-.18.028-.289.172.082-.2.207Zm.133.668-.187.05.011-.171.176.121Zm.07.121-.277.172.008-.098.27-.074Zm1.016 1.133.027 1.648-1.539.254.051-.652 1.461-1.25Zm.031 1.785.016.895-1.723 1.39.157-2.031 1.55-.254Zm-1.68.14-.742.122.786-.672-.043.55Zm-.007.137-.156 2.028-.91-.715.163-1.164.903-.149Zm-1.188 1.215-.484-.379.617-.57-.133.95Zm-.59-.465-.19-.148.667-.29-.477.438Zm.293 2.551-.015.137-.242.062.257-.199Zm-.87.5-.633.485-.45-.2 1.082-.285Zm.335-.09.29-.074-.973.777-.145-.066.828-.637Zm.496-.066-.117 1.25-.922-.418 1.04-.832Zm0 1.45 1.125.507-.004.043-1.253.867.132-1.418Zm.012-.142.133-1.402 1.133-.21-.145 2.116-1.12-.504Zm1.242.766.051-.035 1 .45-1.094.194.043-.609Zm.18-.129 1.86-1.285.03 1.645-.78.14-1.11-.5Zm1.871-8.086.094.067-.09.078-.004-.145Zm-.004-.164-.015-.847.199-.059.785.387-.766.66-.203-.14Zm1.102-.453.761.375.215 1.488-1.758-1.191.782-.672Zm.91.45.328.16.07 1.081-.195.18-.203-1.422Zm.129 1.882-.34.055.316-.25.024.195Zm.281-.465.012.176-.14-.059.128-.117Zm.02.325.007.09-.175.03-.024-.199.192.078Zm.011.28.028 1.481-.172-1.37.144-.11Zm-.086-3.519 3.258-.203-2.363 2.164-.793-.39-.102-1.57Zm3.473-.218.25-.016.277.855-2.41 1.68-.566-.277 2.45-2.242Zm-1.871 2.675 1.227.606-2.29.218-.074-.03 1.137-.794Zm1.809 2.137 2.027.82-1.004.684-3.953.398 2.93-1.902Zm1.171 1.625 1.079-.11-4.622 2.962-.355-.149 3.898-2.703Zm1.184-.016.04.145-.481 2.742-3.36.375-.777-.328 4.578-2.934Zm-.332 3.008 1.11-.207.054.195.05 1.325-.831.574-.89-.375.507-1.512Zm1.164-3.406-.004-.11.672-.406.688.375-1.278.18-.078-.04Zm1.555-.031 1.324.722-.61.387-1.968-.934 1.254-.175Zm1.46.797.954.52-.254.476-1.3-.617.6-.38Zm.758 1.175.2.094-.383.25.183-.344Zm.989.317.46-.098-.269.188-.191-.09Zm-.2-.094-.312-.148.48-.313.52.285.012.024-.7.152Zm.598-.742 1.754-1.145.059.29-1.473 1.394-.012.004-.133-.074-.195-.47Zm1.844-.7.105.54-1.062 1.008-.43-.235 1.387-1.312Zm.137.696.324 1.625-1.293-.707.969-.918Zm-.024-.805 1.602-1.52-.043-.046.054.039.133-.195.508.218-2.144 2.04-.11-.536Zm2.09-2.199.637-.902.27.187-.626 1.242-.28-.527Zm2.59.527.375 1.633-1.258-.734.883-.899Zm.152.067 2.692 2.539.34.668-2.653-1.547-.379-1.66Zm-.043-.223.446-1.75 2.109 4.156-2.555-2.406Zm.403-2.133-.614-1.207.746.692-.132.515Zm-.051.2-.438 1.726-.847-2.305.492-.984.793 1.563Zm-.797-2.711-.074-.965.02-.012.3.3-.246.677Zm.066-1.047.395-.227-.164.457-.23-.23Zm-.175-.41-.078-1.043.542 1.02-.464.023Zm-.004 1.765-.086.234-.657-1.062.653-.375.09 1.203Zm-.813-.941-.39-.633.93-.043.163.164.008.102-.71.41Zm.594-.817-1.652-1.656.734-.426.82.57.086.165.098 1.343-.086.004Zm-.79-2.16.231-.133.239.364.082.156-.551-.387Zm.032-.953 1.438-.055-1.117.649-.32-.594Zm.125.707-.277.164-1.168-.82.992-.035.453.691Zm-1.469-2.5.028-.332 1.058 2-1.086-1.668Zm.04-.598-.06.032.056-.035-.633-.98 2.265-.017-1.62 1.012-.009-.012Zm-.91-1.117-1.262-1.547-.27-.503.156-.114 1.403 2.164h-.028Zm-1.958-3.308 2.137-.141-1.52 1.094-.617-.953Zm.508 1.03-.148.106-.602-1.12.086-.008.664 1.023Zm-.82-1.147-.371-.692.445.688-.074.004Zm-.149.011-.25.016-.504-.66-.171-1.086.925 1.73Zm-.883-.594.094.586-1.043-1.715.055-.046.895 1.175Zm-.792-1.265.402-.352.152.133.192 1.203-.746-.984Zm-.165-1.406 1.555.007-.933.817-.622-.824Zm.188.562-.668-.562h.184l.484.562Zm-.828-.7-.746-.624-1.035-1.711L41.98 20.8h-.226Zm-2.117-2.933-.075-.144.125-.156 2.172 2.886-2.222-2.586Zm-.145-.273-.18-.34.13-.012.16.215-.11.137Zm-.62-.442-2.395-2.164-.59-.68 1.933 1.243 1.125 1.594-.074.007ZM35.77 14.07l.054-.113.996.79-1.05-.677Zm.609 1.012 1.82 2.121-1.344.106-.687-1.286-.422-1.507.633.566Zm-.504.39-.414-.769.129-.258.285 1.028Zm-.195-1.198h.004-.004Zm-.024-.278-.07-.047-.02-.031.13.004-.04.074Zm-.16-.21-.062-.122.164.121h-.102Zm-.02.265.016.054-.082-.074.066.02Zm.032.25-.125.254-.34-.637h.016l.039.012.41.37Zm-.5-.953.18.132.062.122-.242-.254Zm-.102-.243.024-.117.113.22-.137-.103Zm-.039-.523-1.14-2.184 1.27 1.489-.13.695Zm-.039.215-.039.219-.324-.239-.285-.296-1.825-2.926.985.398 1.488 2.844Zm-2.594-3.434-.992-1.586 1.094 1.106.793.84-.895-.36Zm-.21-.086-1.426-.57-.344-.664.601-.637 1.168 1.871Zm-1.836-1.359-1.09-2.11 1.671 1.493-.581.617Zm-3.106-2.605-1.441-1.395.847.238.594 1.157Zm-.5-1.27-.457-.887 1.238 1.106-.781-.219Zm-.18-.05-.953-.266-.223-.434.641-.34.535 1.04Zm.871 1.695 1.297 2.515-.504-.125-1.128-.816-1.344-3.2 1.68 1.626Zm-.41 1.742-.582-.418-.258-.246.805.582.035.082Zm-.668-.317.746.711-.797-.12-.164-.747.215.156Zm-.16.707.469 2.106-2.152-2.363 1.683.257Zm.117 1.922-1.62-1.59-.15-.351 1.77 1.941Zm.387.567-.976.324-.899-2.16 1.875 1.836Zm-1.055.492.051.113-.082-.105.031-.008Zm-.043.402.305.223.195.52-.105-.067-.434-.656.04-.02Zm.293.77.504.765.387 1.036-.91-1.813.02.012Zm.84 1.27.906 1.374-.316.203-.59-1.578Zm.953 1.507.07.352-.335-.184.265-.168Zm.106.524.191.957-.543-1.149.352.191Zm.3 1.5.168.847-.55-1.656.383.808Zm.13-.044-.278-1.37.258.14 1.012 1.582.035.531-.48.274-.547-1.157Zm.43 1.227-.169.094-.156-.774.324.68Zm-.313.332.133.399.206 1.097-1.476-.843 1.137-.653Zm.328.586.71.633-.011.672-.383-.223-.316-1.082Zm.699 1.457-.016.895-.316-1.082.332.187Zm-.5-.285.477 1.637-.016.836-.461-2.473Zm.566 3.8.387 2.227-.64.383.253-2.61Zm-.078 3.165-.242.152.04-.406.202.254Zm.082.105.254.313-.191.457-.43-.227.027-.324.34-.219Zm.012.895-.52 1.258-.003-.036.128-1.43.395.208Zm-.512 2.586-.168.36.07-.774.051-.024.047.438Zm-.082-.575.008-.105.012.098-.02.008Zm.043-2.453-.09-.047.106-.066-.016.113Zm-.02.145-.066.484-.058-.55.125.066Zm.087 3.14.074.668-.285-.206.21-.462Zm.054-.761.2-.102-.172.367-.028-.265Zm.391-.2.969-.495.062.39-1.25 1.844-.004-.004-.11-1.012.333-.722Zm-.184 1.926 1.309.942-1.2.261-.128-1.18.02-.023Zm-.007 1.371.18 1.641-.747.777-.262-.125.18-2.152.649-.14Zm-.778.032-.195.043.223-.328-.028.285Zm.047-.559-.277.414.168-1.035.195-.371-.086.992Zm-.059.7-.171 2.058-.422-.195.316-1.801.277-.063Zm-.718 1.8-.52-.242.778-1.227-.258 1.47Zm-.028.14-.058.337-.547-.535.043-.067.562.266Zm.032.61.332.324-.477.496.145-.82Zm-.125 1.063-.075.086.008-.067.067-.02Zm.242-.067.312-.09-.008.149-.68.422.017-.082.359-.399Zm.289.227-.14 1.886-.93.797.378-2.254.692-.43Zm-.777.113-.434.484-.137.082.586-.656-.015.09Zm-.977.824-.762.473.274-.781 1.316-.621-.828.93Zm-.32.36-.664.742.148-.422.516-.32Zm.406-.258.129-.078-1.348 1.496.031-.086 1.188-1.332Zm.543-.336.277-.176-.383 2.281-1.066.465-.668-.527 1.84-2.043Zm-.961 2.906-1.668 1.54.406-1.27 1.031-.453.231.183Zm-1.375.168-.715.313.953-1.059-.238.746Zm-1.016.441-.043.02 1.395-1.562-.004.05-1.348 1.492Zm.438 1.376-.3.94-.485-.214.785-.727Zm.187 1.312.535.238-1.421 1.086.382-1.195.504-.129Zm3.09 3.738-1.136-.64.019-.532 1.215-.214-.098 1.386Zm-.89-1.347 1.03-.715-.034.535-.996.18Zm1.03 1.332.095-1.399 1.32-.234.707.316-2.121 1.317Zm1.65-1.676.566-.102.008.36-.575-.258Zm.554-8.363.203-.176 1.84 1.25-.523.422-1.489.242-.031-1.738Zm.031 1.875 1.277-.207-1.261 1.015-.016-.808Zm.02.98 1.527-1.23.567-.098.007.055-2.097 1.558-.004-.285Zm.039 2.273 2.183-.402-1.457 1.008-.722-.395-.004-.21Zm.008.368.597.324-.582.406-.015-.73Zm.05 2.742.739-.133-.27.184-.46.289-.009-.34Zm.504.68-.426-.2.465-.316.59-.367.899-.16-1.528 1.043Zm1.594.753-1.453-.687 1.605-1.094-.152 1.782Zm.168-1.976-.82.148.828-.515-.008.367Zm.016-.633-1.266.86-1.02.18-.03-1.716.71-.492 1.613.883-.007.285Zm.011-.437-1.492-.817 1.547-1.07-.055 1.887Zm-2.351-1.633-.032-1.688 2.114-1.57.32 2.535.008.281-2.41.442Zm2.379-5.25.675.332-.617.562-.058-.894Zm.066 1.07.738-.676.543.27-1.148.8-.11-.046-.023-.348Zm.027 6.43.286-.176.039.348-.336.215.011-.387Zm.196.414.144-.094.008.074-.152.02Zm-.078-2.992 3.87-.39-3.609 2.44-.261-2.05Zm.3 2.394.274.117-.242.157-.032-.274Zm.047.422.38-.242.64.273-1.004.11-.016-.14Zm.282 2.559-.25-2.282 1.238-.14 1.613.687-2.602 1.735Zm2.738-1.825-1.473-.628 2.895-.32-1.422.948Zm.148.063 1.418-.945-.457 1.351-.96-.406Zm1.043.59.801.34-1.188.82.387-1.16Zm-.14 1.152 1.09-.75.617.262-1.707.488Zm1.882-.558-.664-.286.696-.476.027.726-.059.036Zm-.02-5.458.048-.007 2.078.984-2.035 1.281-.09-2.258Zm.095 2.415 2.175-1.368 1.375.653-.289.543-3.242.605-.02-.433Zm.023.566 2.984-.555-2.675 1.848-.301-1.082-.008-.211Zm.031.8.16.571-.132.094-.028-.664Zm.035.825.164-.113.188.675-.324.18-.028-.742Zm.043 1.082.086.04-.082.081-.004-.121Zm.055.383.262-.246.097.043-.359.203Zm.371-.348.028-.027.011.047-.039-.02Zm.055-.445-.016-.043.282-.156-.176.175-.09.024Zm.129.472-.043-.156.312-.297 3.88-2.96.511.242-4.66 3.172Zm4.27-3.507.242-.184.152.371-.395-.187Zm.35-.27.044-.031.437.242-.28.266-.2-.477Zm.743 2.055-.45-1.328 1.27.64-.82.688Zm.934-.781-1.387-.696.316-.3 1.368.75-.297.246Zm.133.066.226-.188.016.313-.242-.125Zm-.016-2.188 2.21-2.105.583 1.324-2.453 2.504-.34-1.723Zm.398 2.38-.023-.387 2.5 1.636-2.477-1.25Zm3.543 1.785-3.535-2.313 2.445-2.5 2.407 5.477-1.317-.664Zm1.461.664-2.449-5.578.605-.618 1.395.813 1.027 4.48-.578.903Zm.68-1.063-.969-4.226 2.68 1.562-1.711 2.664Zm1.734-2.976-.14-.274.136.13.004.144Zm-.008-.332-.312-.301-2.352-4.633.149-.594 1.488 1.383 1.004 2.535.023 1.61Zm-.03-1.993-.766-1.937.746.695.02 1.242Zm-.22-1.609-.664-.621-.8-2.027 1.465 2.648Zm-.894-.832-1.332-1.242.328-1.297 1.004 2.539Zm-1.445-1.348-.946-.875-.047-.64.325-.899 1.02 1.024-.352 1.39Zm.156-1.78-.774-.774.149-.407.625 1.18Zm-.653-1.642-.746-1.398-.046.023.046-.023-.476-.875 1.25-.727-.028 3Zm.004-3.18-1.687.063-1.16-2.129 1.761-1.097 1.086 3.164Zm-1.175-3.331-2.465.02-1.453-2.243 1.66-1.195 2.258 3.418Zm-2.387-3.57-2.305.148-1.379-2.121-.054.035.05-.043-.132-.176 1.023-.898 2.797 3.054Zm-6.965-6.794 3.996 3.575-1.656-.004-2.52-3.344.18-.227Zm-.266.114-.086-.117.196-.016-.11.133Zm.082-.266-.265.02-.434-.57.7.55Zm-.425.035-.102.008-.25-.477.352.47Zm-.785-.996.441.867-.824-1.168.383.301Zm-.372-.496-.21-.133-.075-.062-.57-.809.855 1.004Zm-3.035-3.851.375.527-.386-.453.011-.075Zm1.223 1.73 1.152 1.629-1.683-1.332-.043.05.043-.054-.551-.406-.324-.617.14-.754 1.266 1.484Zm-1.332-1.879-.016.09-.57-.668.586.578Zm-.781-.988-.942-.95-1.523-2.132 2.465 3.082ZM32.72 9.078l-.282-.289-1.55-1.64-.41-1.208 2.242 3.137Zm-2.067-2.203-1.172-1.652.73.355.442 1.297ZM29.99 5.32l-.668-.328-1.523-2.148 2.191 2.476Zm-3.465-3.91.45.504 2.093 2.957-.609-.297-1.973-3.054.04-.11Zm-.418-.476.32.359-.034.086-.286-.445Zm.317.742 1.605 2.484-1.86-1.812.255-.672Zm-.309.808 2.059 2.004-.512-.144-1.684-1.5.137-.36Zm-.836-.816.73.715-.124.324-.606-1.039Zm-.86.047 1.36 1.137-.613.324-.746-1.461Zm.759 1.773-.117-.105.05-.027.067.132Zm-.242-.039.254.23-.528-.085.274-.145Zm-.473.25.894.145 1.371 3.265-.87-.632-.61-.45-1.855-1.765 1.07-.563Zm-.219-.039-.953.504-.836-.793 1.79.29Zm-1.789-.101.711.672-.203.105-.227-.168-.28-.61Zm-.496 1.379.73-.313.59 1.824-1.12-1.156-.2-.355Zm.46.816.684.707h-.288l-.395-.707Zm.411 1.016.266.5-.297-.036.031-.464Zm.047.609.297.035.656 1.23-.953-1.265Zm.46.055.27.035.395 1.21-.664-1.245Zm.673 1.68.226.3.028.078-.254-.379Zm.347.234-.554-1.723.613.606 1.02 2.445-.067.02-1.012-1.348Zm.34 1.054.344.52.137.27-.192.101-.289-.89Zm.356 1.137.441.281 1.574 3.13 1.07 3.206-1.187.68-1.898-7.297Zm3.512 15.879L27 19.07l1.55.891.606 3.23-.285 3.387-.094.703-.214.137Zm.027 2.285-.004.012v.004l.004-.016Zm-.051.555-.012.133-.008-.125.02-.008Zm.027 1.207.332.238.012.106-.426.629.082-.973Zm.368.55.109 1.04-.621.136.039-.48.473-.695Zm-.52-1.16.027.47-.152.288.125-.758Zm-.137.016-.187 1.13-.95 1.835 1.137-2.965Zm-.258 1.559-.148.91-.871 1.058 1.02-1.968Zm-.718 1.816-.39.621-.087-.043.477-.578Zm-.465.734-.02.028-.07-.07.09.042Zm-.16.079.07.066-.215.34.145-.406Zm.168.164.594.578-.192 1.094-1.465.691.547-1.547.516-.816Zm-.555.527-.082.23-.273.434.355-.664Zm-.285.805-.39 1.113-.446.211.836-1.324Zm-.95 1.527.493-.234-.285.816-.243.149.036-.73Zm-.042.898.175-.113-.199.567.024-.453Zm-.078 1.024.59.465-.86.375.27-.84Zm-.028-1.656-.027.554-.379.235.406-.79Zm-.523 1.023.488-.305-.023.532-1.364 1.527.899-1.754Zm-.617.906-.637 1.246-.293.356.93-1.602Zm-1.516 2.778-.035-.09.527-.586-.336.746-.156-.07Zm.101.195-.015.04-.023-.056.038.016Zm-.03.395.105.285-.395.363.29-.648Zm-.243.789.398-.367.087.238-.485.129Zm.504-.47.45-.41.546.247-.078.262-.805.21-.113-.308Zm.16.434.707-.183-.36 1.129-.347-.946Zm.258 1.735.406-.328 1.645.925-2.39.61.339-1.207Z" fill="white"/></g><path d="M39.223 18.985c-1.504-1.422-2.929-2.77-4.004-4.004-4.824-5.524-6.437-12.695-6.453-12.766l-.078-.343-3.848 8.605 14.797 35.719.102-.04c7.367-2.75 8.863-8.648 8.871-8.695 2.617-7.121-4.039-13.418-9.387-18.476Zm9.168 18.41c-.015.059-1.472 5.785-8.629 8.508L25.09 10.48l3.528-7.887c.383 1.485 2.156 7.649 6.426 12.539 1.085 1.242 2.511 2.594 4.023 4.02 5.297 5.012 11.891 11.25 9.324 18.242Z" fill="white"/></g><defs><clipPath id="a"><path fill="white" d="M0 0h142.36v53.165H0z"/></clipPath></defs></svg>
