<?xml version="1.0" encoding="UTF-8" standalone="no"?>
<!DOCTYPE svg PUBLIC "-//W3C//DTD SVG 1.1//EN" "http://www.w3.org/Graphics/SVG/1.1/DTD/svg11.dtd">
<svg width="100%" height="100%" viewBox="0 0 50 83" version="1.1" xmlns="http://www.w3.org/2000/svg" xmlns:xlink="http://www.w3.org/1999/xlink" xml:space="preserve" xmlns:serif="http://www.serif.com/" style="fill-rule:evenodd;clip-rule:evenodd;stroke-linejoin:round;stroke-miterlimit:2;">
  <path d="M37.596,18.028l-9.61,0l-2.951,2.253l-2.72,-2.253l-9.911,0c-2.387,0 -12.123,8.064 -12.404,9.701l0.003,28.703c1.832,2.359 3.942,4.875 6.147,7.394l0,-15.765c0.727,0.698 1.419,1.205 1.872,1.504l0,16.371c2.319,2.595 4.685,5.138 6.901,7.475l0,-7.39c0.121,0.195 0.251,0.389 0.403,0.572c0.39,0.463 0.884,0.869 1.472,1.222l0,7.555c3.061,3.186 5.681,5.817 7.266,7.391l0,-13.323c0.31,0.01 0.608,0.025 0.933,0.025c0.327,0 0.627,-0.015 0.938,-0.025l0,13.323c1.584,-1.571 4.203,-4.202 7.265,-7.388l0,-7.555c0.588,-0.354 1.083,-0.76 1.471,-1.223c0.15,-0.181 0.281,-0.373 0.401,-0.569l0,7.385c2.152,-2.265 4.444,-4.728 6.701,-7.243l0,-16.469c0.386,-0.245 1.096,-0.733 1.871,-1.446l0,15.805c2.278,-2.594 4.462,-5.195 6.356,-7.626l0,-28.731c-0.281,-1.609 -10.017,-9.673 -12.404,-9.673Zm-25.665,6.896l-0.555,0.874c-3.24,-1.647 -5.454,0.668 -6.024,3.128c2.181,-3.275 4.423,-2.042 5.048,-1.595l-4.25,6.706c-5.955,-5.927 1.535,-12.897 5.781,-9.113Zm13.069,43.207c-10.302,-0.02 -9.379,-4.479 -9.233,-5.092c0.125,-0.529 0.579,-1.073 1.106,-1.073c5.412,0 8.127,-0.672 8.127,-0.672c0,-0.001 2.716,0.672 8.127,0.672c0.527,0 0.981,0.544 1.105,1.073c0.146,0.613 1.071,5.072 -9.232,5.092Zm15.755,-19.396c-2.215,-2.993 -7.079,-3.945 -7.079,-3.945c11.204,6.008 7.448,20.333 -7.778,14.68l0,-3.549c0,-0.326 5.497,-1.608 6.325,-3.622c0.702,-1.694 -0.419,-3.89 -0.419,-3.89c0,0 -0.013,1.153 -0.497,2.151c-0.291,0.597 -1.545,1.254 -6.307,1.254c-4.764,0 -6.015,-0.657 -6.307,-1.254c-0.485,-0.998 -0.498,-2.151 -0.498,-2.151c0,0 -1.119,2.196 -0.419,3.89c0.831,2.014 6.327,3.296 6.327,3.622l0,3.549c-15.226,5.653 -18.984,-8.672 -7.78,-14.68c0,0 -4.863,0.952 -7.078,3.945c0,0 -7.853,-4.387 -3.36,-11.348c1.436,-2.231 5.29,-8.495 7.221,-11.487c1.921,-2.974 10.86,-0.462 11.894,0.738c1.252,-1.266 9.974,-3.712 11.891,-0.738c1.934,2.992 5.786,9.258 7.227,11.487c4.489,6.961 -3.363,11.348 -3.363,11.348Zm3.069,-14.698l-4.251,-6.706c0.627,-0.447 2.869,-1.68 5.049,1.595c-0.568,-2.46 -2.785,-4.775 -6.022,-3.127l-0.555,-0.875c4.243,-3.784 11.732,3.186 5.779,9.113Zm-13.458,4.084c-0.26,0.477 0.782,4.915 0.782,4.915c0,0 -0.144,-3.432 0.124,-4.035c0.077,-0.175 0.302,-0.24 0.497,-0.299c1.989,-0.581 4.061,0.071 6.37,-3.75c-2.365,-0.686 -5.585,-0.811 -7.773,3.169Zm-18.505,-3.169c2.306,3.821 4.381,3.169 6.373,3.75c0.191,0.058 0.416,0.124 0.494,0.299c0.268,0.603 0.127,4.035 0.127,4.035c0,0 1.04,-4.438 0.779,-4.915c-2.189,-3.98 -5.41,-3.855 -7.773,-3.169Zm0.104,-18.794c-0.084,-0.608 -0.166,-1.239 -0.242,-1.882l26.553,0c-0.077,0.643 -0.156,1.274 -0.241,1.882l-26.07,0Zm-0.443,-3.748c-0.283,-2.836 -0.459,-5.801 -0.459,-8.339c0,0 2.381,3.341 6.027,3.341c4.683,0 7.534,-6.296 7.909,-7.173l0.001,0c0.374,0.877 3.228,7.173 7.911,7.173c3.644,0 6.027,-3.341 6.027,-3.341c0,2.538 -0.178,5.503 -0.458,8.339l-26.958,0Z" style="fill:white;fill-rule:nonzero;" />
</svg>